<svg width="81" height="81" viewBox="0 0 81 81" fill="none" xmlns="http://www.w3.org/2000/svg">
<path d="M1 16C1 7.16344 8.16344 0 17 0H65C73.8366 0 81 7.16344 81 16V64C81 72.8366 73.8366 80 65 80H17C8.16344 80 1 72.8366 1 64V16Z" fill="white"/>
<path fill-rule="evenodd" clip-rule="evenodd" d="M65 1H17C8.71573 1 2 7.71573 2 16V64C2 72.2843 8.71573 79 17 79H65C73.2843 79 80 72.2843 80 64V16C80 7.71573 73.2843 1 65 1ZM17 0C8.16344 0 1 7.16344 1 16V64C1 72.8366 8.16344 80 17 80H65C73.8366 80 81 72.8366 81 64V16C81 7.16344 73.8366 0 65 0H17Z" fill="#C4C4CF"/>
<path fill-rule="evenodd" clip-rule="evenodd" d="M80.6 14.9455H1.4V65.0545H80.6V14.9455ZM1 14.5455V65.4545H81V14.5455H1Z" fill="#C4C4CF"/>
<path fill-rule="evenodd" clip-rule="evenodd" d="M66.0546 0.4H15.9455V79.6H66.0546V0.4ZM15.5455 0V80H66.4546V0H15.5455Z" fill="#C4C4CF"/>
<path fill-rule="evenodd" clip-rule="evenodd" d="M80.6 0.4H1.4V79.6H80.6V0.4ZM1 0V80H81V0H1Z" fill="#C4C4CF"/>
<path fill-rule="evenodd" clip-rule="evenodd" d="M41 75.9636C60.8622 75.9636 76.9636 59.8622 76.9636 40C76.9636 20.1378 60.8622 4.03636 41 4.03636C21.1378 4.03636 5.03635 20.1378 5.03635 40C5.03635 59.8622 21.1378 75.9636 41 75.9636ZM41 76.3636C61.0831 76.3636 77.3636 60.0831 77.3636 40C77.3636 19.9169 61.0831 3.63636 41 3.63636C20.9169 3.63636 4.63635 19.9169 4.63635 40C4.63635 60.0831 20.9169 76.3636 41 76.3636Z" fill="#C4C4CF"/>
<path fill-rule="evenodd" clip-rule="evenodd" d="M80.6768 80.0129L0.987098 0.323213L1.26994 0.04037L80.9596 79.73L80.6768 80.0129Z" fill="#C4C4CF"/>
<path fill-rule="evenodd" clip-rule="evenodd" d="M0.987198 79.6766L80.6768 0.115587L80.9594 0.398658L1.26981 79.9597L0.987198 79.6766Z" fill="#C4C4CF"/>
<path fill-rule="evenodd" clip-rule="evenodd" d="M41 80L41 1.5895e-08L41.4 0L41.4 80L41 80Z" fill="#C4C4CF"/>
<path fill-rule="evenodd" clip-rule="evenodd" d="M1 40L81 40V40.4L1 40.4V40Z" fill="#C4C4CF"/>
<g style="mix-blend-mode:multiply">
<path d="M37.1364 46.5341H43.5966V45.9545C43.6307 42.6307 44.8239 41.0795 47.517 39.4602C50.7045 37.5682 52.7841 35.0625 52.7841 31.0568C52.7841 25.0909 47.9773 21.6136 41.2102 21.6136C35.0227 21.6136 29.9773 24.8523 29.8239 31.6705H36.7784C36.8807 28.892 38.9432 27.4091 41.1761 27.4091C43.4773 27.4091 45.3352 28.9432 45.3352 31.3125C45.3352 33.5455 43.7159 35.0284 41.6193 36.358C38.7557 38.1648 37.1534 39.9886 37.1364 45.9545V46.5341ZM40.4943 57.4432C42.6761 57.4432 44.5682 55.6193 44.5852 53.3523C44.5682 51.1193 42.6761 49.2955 40.4943 49.2955C38.2443 49.2955 36.3864 51.1193 36.4034 53.3523C36.3864 55.6193 38.2443 57.4432 40.4943 57.4432Z" fill="#1A94FF"/>
</g>
</svg>
