<svg width="360" height="640" viewBox="0 0 360 640" fill="none" xmlns="http://www.w3.org/2000/svg">
<rect width="360" height="640" fill="white"/>
<path d="M25.2237 102.909V111.174C25.2237 112.67 24.1754 113.75 22.5646 113.75C20.9602 113.75 19.9055 112.67 19.9055 111.174V102.909H17.1378V111.411C17.1378 114.274 19.2983 116.185 22.5646 116.185C25.8182 116.185 27.9915 114.274 27.9915 111.411V102.909H25.2237ZM38.3865 108.982C38.1436 107.173 36.6863 106.054 34.2061 106.054C31.6941 106.054 30.0385 107.217 30.0449 109.109C30.0385 110.58 30.9654 111.532 32.883 111.915L34.5833 112.254C35.4398 112.427 35.8297 112.74 35.8425 113.232C35.8297 113.814 35.1969 114.229 34.2445 114.229C33.2729 114.229 32.6273 113.814 32.4611 113.015L29.7828 113.156C30.0385 115.035 31.6365 116.192 34.2381 116.192C36.7821 116.192 38.6039 114.894 38.6103 112.957C38.6039 111.538 37.677 110.688 35.7722 110.298L33.9952 109.94C33.0811 109.742 32.7424 109.429 32.7488 108.956C32.7424 108.368 33.4071 107.984 34.2509 107.984C35.1969 107.984 35.7594 108.502 35.8936 109.135L38.3865 108.982ZM43.1246 116.185C44.5756 116.185 45.5153 115.553 45.9947 114.638H46.0714V116H48.6538V109.378C48.6538 107.038 46.6722 106.054 44.4862 106.054C42.1339 106.054 40.587 107.179 40.2099 108.969L42.7283 109.173C42.9137 108.521 43.4954 108.042 44.4734 108.042C45.4002 108.042 45.9308 108.509 45.9308 109.314V109.352C45.9308 109.985 45.2596 110.068 43.5529 110.234C41.6097 110.413 39.8647 111.065 39.8647 113.258C39.8647 115.201 41.2518 116.185 43.1246 116.185ZM43.9045 114.306C43.0671 114.306 42.4663 113.916 42.4663 113.168C42.4663 112.401 43.0991 112.024 44.0579 111.89C44.6523 111.807 45.6239 111.666 45.9499 111.449V112.491C45.9499 113.52 45.0998 114.306 43.9045 114.306ZM55.1896 119.886C57.9957 119.886 59.9901 118.608 59.9901 116.096V106.182H57.2862V107.831H57.1839C56.8196 107.032 56.0206 106.054 54.3778 106.054C52.2237 106.054 50.402 107.729 50.402 111.072C50.402 114.338 52.1726 115.859 54.3842 115.859C55.9503 115.859 56.826 115.073 57.1839 114.261H57.299V116.058C57.299 117.406 56.4361 117.93 55.2536 117.93C54.0518 117.93 53.4446 117.406 53.2209 116.812L50.7024 117.151C51.0284 118.697 52.5433 119.886 55.1896 119.886ZM55.2472 113.814C53.9112 113.814 53.1825 112.753 53.1825 111.059C53.1825 109.391 53.8984 108.221 55.2472 108.221C56.5703 108.221 57.3118 109.339 57.3118 111.059C57.3118 112.791 56.5575 113.814 55.2472 113.814ZM66.6314 116.192C69.0604 116.192 70.6967 115.009 71.0803 113.188L68.5618 113.021C68.2869 113.769 67.5838 114.159 66.6761 114.159C65.3146 114.159 64.4517 113.258 64.4517 111.794V111.788H71.1378V111.04C71.1378 107.703 69.1179 106.054 66.5227 106.054C63.6335 106.054 61.7607 108.106 61.7607 111.136C61.7607 114.249 63.608 116.192 66.6314 116.192ZM64.4517 110.1C64.5092 108.982 65.3594 108.087 66.5675 108.087C67.75 108.087 68.5682 108.93 68.5746 110.1H64.4517Z" fill="#27272A"/>
<path d="M22.8011 139.364H23.9943C23.9396 137.827 22.5227 136.679 20.554 136.679C18.6051 136.679 17.0739 137.812 17.0739 139.523C17.0739 140.895 18.0682 141.71 19.6591 142.168L20.9119 142.526C21.9858 142.824 22.9403 143.202 22.9403 144.216C22.9403 145.33 21.8665 146.065 20.4545 146.065C19.2415 146.065 18.1676 145.528 18.0682 144.375H16.7955C16.9148 146.045 18.267 147.179 20.4545 147.179C22.8011 147.179 24.1335 145.886 24.1335 144.236C24.1335 142.327 22.3239 141.71 21.2699 141.432L20.2358 141.153C19.4801 140.955 18.267 140.557 18.267 139.463C18.267 138.489 19.1619 137.773 20.5142 137.773C21.7472 137.773 22.6818 138.359 22.8011 139.364ZM29.3226 139.364H27.6919V137.534H26.5186V139.364H25.3652V140.358H26.5186V145.131C26.5186 146.463 27.5925 147.099 28.5868 147.099C29.0243 147.099 29.3027 147.02 29.4618 146.96L29.2232 145.906C29.1238 145.926 28.9647 145.966 28.7061 145.966C28.1891 145.966 27.6919 145.807 27.6919 144.812V140.358H29.3226V139.364ZM34.2072 147.159C35.7583 147.159 36.8919 146.384 37.2498 145.23L36.1163 144.912C35.818 145.707 35.127 146.105 34.2072 146.105C32.8301 146.105 31.8805 145.215 31.8258 143.58H37.3691V143.082C37.3691 140.239 35.6788 139.264 34.0879 139.264C32.0197 139.264 30.6475 140.895 30.6475 143.241C30.6475 145.588 31.9998 147.159 34.2072 147.159ZM31.8258 142.565C31.9054 141.377 32.7456 140.318 34.0879 140.318C35.3606 140.318 36.176 141.273 36.176 142.565H31.8258ZM39.1539 149.864H40.3272V145.827H40.4267C40.6852 146.244 41.1824 147.159 42.6539 147.159C44.563 147.159 45.8954 145.628 45.8954 143.202C45.8954 140.795 44.563 139.264 42.6341 139.264C41.1426 139.264 40.6852 140.179 40.4267 140.577H40.2875V139.364H39.1539V149.864ZM40.3074 143.182C40.3074 141.472 41.063 140.318 42.4949 140.318C43.9863 140.318 44.7221 141.571 44.7221 143.182C44.7221 144.812 43.9664 146.105 42.4949 146.105C41.0829 146.105 40.3074 144.912 40.3074 143.182ZM47.6852 149.864H48.8585V145.827H48.9579C49.2164 146.244 49.7136 147.159 51.1852 147.159C53.0943 147.159 54.4267 145.628 54.4267 143.202C54.4267 140.795 53.0943 139.264 51.1653 139.264C49.6738 139.264 49.2164 140.179 48.9579 140.577H48.8187V139.364H47.6852V149.864ZM48.8386 143.182C48.8386 141.472 49.5943 140.318 51.0261 140.318C52.5176 140.318 53.2534 141.571 53.2534 143.182C53.2534 144.812 52.4977 146.105 51.0261 146.105C49.6142 146.105 48.8386 144.912 48.8386 143.182ZM59.4181 147.159C60.9693 147.159 62.1028 146.384 62.4608 145.23L61.3272 144.912C61.0289 145.707 60.3379 146.105 59.4181 146.105C58.041 146.105 57.0914 145.215 57.0368 143.58H62.5801V143.082C62.5801 140.239 60.8897 139.264 59.2988 139.264C57.2306 139.264 55.8585 140.895 55.8585 143.241C55.8585 145.588 57.2108 147.159 59.4181 147.159ZM57.0368 142.565C57.1163 141.377 57.9565 140.318 59.2988 140.318C60.5716 140.318 61.3869 141.273 61.3869 142.565H57.0368ZM64.3649 147H65.5382V142.168C65.5382 141.134 66.3535 140.378 67.4672 140.378C67.7804 140.378 68.1035 140.438 68.1831 140.457V139.264C68.0488 139.254 67.7406 139.244 67.5666 139.244C66.6518 139.244 65.8564 139.761 65.5779 140.517H65.4984V139.364H64.3649V147ZM73.5114 147H74.6847V139.364H73.5114V147ZM74.108 138.091C74.5653 138.091 74.9432 137.733 74.9432 137.295C74.9432 136.858 74.5653 136.5 74.108 136.5C73.6506 136.5 73.2727 136.858 73.2727 137.295C73.2727 137.733 73.6506 138.091 74.108 138.091ZM82.2427 141.074C81.8748 139.99 81.0495 139.264 79.5382 139.264C77.9274 139.264 76.7342 140.179 76.7342 141.472C76.7342 142.526 77.3606 143.232 78.7626 143.56L80.0353 143.858C80.8059 144.037 81.1689 144.405 81.1689 144.932C81.1689 145.588 80.4728 146.125 79.3791 146.125C78.4196 146.125 77.818 145.712 77.6092 144.892L76.4956 145.17C76.769 146.468 77.8379 147.159 79.399 147.159C81.1738 147.159 82.3819 146.19 82.3819 144.872C82.3819 143.808 81.7157 143.137 80.3535 142.804L79.22 142.526C78.3152 142.302 77.9075 141.999 77.9075 141.412C77.9075 140.756 78.6035 140.278 79.5382 140.278C80.5623 140.278 80.9849 140.845 81.1887 141.372L82.2427 141.074ZM92.8981 143.878C92.8981 145.31 91.8043 145.966 90.9293 145.966C89.9549 145.966 89.2589 145.25 89.2589 144.136V139.364H88.0856V144.216C88.0856 146.165 89.1197 147.099 90.5515 147.099C91.7049 147.099 92.4606 146.483 92.8185 145.707H92.8981V147H94.0714V139.364H92.8981V143.878ZM101.629 141.074C101.262 139.99 100.436 139.264 98.9249 139.264C97.3141 139.264 96.1209 140.179 96.1209 141.472C96.1209 142.526 96.7473 143.232 98.1493 143.56L99.4221 143.858C100.193 144.037 100.556 144.405 100.556 144.932C100.556 145.588 99.8596 146.125 98.7658 146.125C97.8063 146.125 97.2047 145.712 96.9959 144.892L95.8823 145.17C96.1557 146.468 97.2246 147.159 98.7857 147.159C100.561 147.159 101.769 146.19 101.769 144.872C101.769 143.808 101.102 143.137 99.7402 142.804L98.6067 142.526C97.7019 142.302 97.2942 141.999 97.2942 141.412C97.2942 140.756 97.9902 140.278 98.9249 140.278C99.949 140.278 100.372 140.845 100.575 141.372L101.629 141.074ZM106.737 147.159C108.288 147.159 109.421 146.384 109.779 145.23L108.646 144.912C108.347 145.707 107.656 146.105 106.737 146.105C105.359 146.105 104.41 145.215 104.355 143.58H109.898V143.082C109.898 140.239 108.208 139.264 106.617 139.264C104.549 139.264 103.177 140.895 103.177 143.241C103.177 145.588 104.529 147.159 106.737 147.159ZM104.355 142.565C104.435 141.377 105.275 140.318 106.617 140.318C107.89 140.318 108.705 141.273 108.705 142.565H104.355ZM114.567 147.159C116.038 147.159 116.536 146.244 116.794 145.827H116.933V147H118.067V136.818H116.893V140.577H116.794C116.536 140.179 116.078 139.264 114.587 139.264C112.658 139.264 111.325 140.795 111.325 143.202C111.325 145.628 112.658 147.159 114.567 147.159ZM114.726 146.105C113.254 146.105 112.499 144.812 112.499 143.182C112.499 141.571 113.234 140.318 114.726 140.318C116.158 140.318 116.913 141.472 116.913 143.182C116.913 144.912 116.138 146.105 114.726 146.105ZM127.637 139.364H126.006V137.534H124.833V139.364H123.68V140.358H124.833V145.131C124.833 146.463 125.907 147.099 126.901 147.099C127.339 147.099 127.617 147.02 127.776 146.96L127.538 145.906C127.438 145.926 127.279 145.966 127.021 145.966C126.504 145.966 126.006 145.807 126.006 144.812V140.358H127.637V139.364ZM132.422 147.159C134.49 147.159 135.882 145.588 135.882 143.222C135.882 140.835 134.49 139.264 132.422 139.264C130.354 139.264 128.962 140.835 128.962 143.222C128.962 145.588 130.354 147.159 132.422 147.159ZM132.422 146.105C130.851 146.105 130.135 144.753 130.135 143.222C130.135 141.69 130.851 140.318 132.422 140.318C133.993 140.318 134.709 141.69 134.709 143.222C134.709 144.753 133.993 146.105 132.422 146.105ZM144.713 147.159C146.404 147.159 147.517 146.125 147.716 144.773H146.543C146.324 145.608 145.628 146.105 144.713 146.105C143.321 146.105 142.426 144.952 142.426 143.182C142.426 141.452 143.341 140.318 144.713 140.318C145.747 140.318 146.364 140.955 146.543 141.651H147.716C147.517 140.219 146.304 139.264 144.693 139.264C142.625 139.264 141.253 140.895 141.253 143.222C141.253 145.509 142.566 147.159 144.713 147.159ZM149.431 147H150.605V142.168C150.605 141.134 151.42 140.378 152.534 140.378C152.847 140.378 153.17 140.438 153.249 140.457V139.264C153.115 139.254 152.807 139.244 152.633 139.244C151.718 139.244 150.923 139.761 150.644 140.517H150.565V139.364H149.431V147ZM157.61 147.159C159.161 147.159 160.294 146.384 160.652 145.23L159.519 144.912C159.22 145.707 158.529 146.105 157.61 146.105C156.232 146.105 155.283 145.215 155.228 143.58H160.771V143.082C160.771 140.239 159.081 139.264 157.49 139.264C155.422 139.264 154.05 140.895 154.05 143.241C154.05 145.588 155.402 147.159 157.61 147.159ZM155.228 142.565C155.308 141.377 156.148 140.318 157.49 140.318C158.763 140.318 159.578 141.273 159.578 142.565H155.228ZM164.803 147.179C166.136 147.179 166.832 146.463 167.07 145.966H167.13V147H168.303V141.969C168.303 139.543 166.454 139.264 165.48 139.264C164.326 139.264 163.014 139.662 162.417 141.054L163.531 141.452C163.789 140.895 164.401 140.298 165.519 140.298C166.598 140.298 167.13 140.87 167.13 141.849V141.889C167.13 142.456 166.553 142.406 165.161 142.585C163.744 142.769 162.198 143.082 162.198 144.832C162.198 146.324 163.352 147.179 164.803 147.179ZM164.982 146.125C164.048 146.125 163.372 145.707 163.372 144.892C163.372 143.997 164.187 143.719 165.102 143.599C165.599 143.54 166.931 143.401 167.13 143.162V144.236C167.13 145.19 166.374 146.125 164.982 146.125ZM173.766 139.364H172.135V137.534H170.962V139.364H169.809V140.358H170.962V145.131C170.962 146.463 172.036 147.099 173.03 147.099C173.468 147.099 173.746 147.02 173.905 146.96L173.667 145.906C173.567 145.926 173.408 145.966 173.15 145.966C172.632 145.966 172.135 145.807 172.135 144.812V140.358H173.766V139.364ZM178.651 147.159C180.202 147.159 181.335 146.384 181.693 145.23L180.56 144.912C180.261 145.707 179.57 146.105 178.651 146.105C177.273 146.105 176.324 145.215 176.269 143.58H181.812V143.082C181.812 140.239 180.122 139.264 178.531 139.264C176.463 139.264 175.091 140.895 175.091 143.241C175.091 145.588 176.443 147.159 178.651 147.159ZM176.269 142.565C176.349 141.377 177.189 140.318 178.531 140.318C179.804 140.318 180.619 141.273 180.619 142.565H176.269ZM189.265 147H190.418L192.089 141.134H192.208L193.879 147H195.032L197.359 139.364H196.126L194.475 145.19H194.396L192.785 139.364H191.532L189.901 145.21H189.822L188.171 139.364H186.938L189.265 147ZM198.91 147H200.083V139.364H198.91V147ZM199.506 138.091C199.964 138.091 200.342 137.733 200.342 137.295C200.342 136.858 199.964 136.5 199.506 136.5C199.049 136.5 198.671 136.858 198.671 137.295C198.671 137.733 199.049 138.091 199.506 138.091ZM202.013 147H207.999V145.906H203.644V145.827L207.86 140.298V139.364H202.153V140.457H206.349V140.537L202.013 146.105V147ZM212.053 147.179C213.386 147.179 214.082 146.463 214.32 145.966H214.38V147H215.553V141.969C215.553 139.543 213.704 139.264 212.73 139.264C211.576 139.264 210.264 139.662 209.667 141.054L210.781 141.452C211.039 140.895 211.651 140.298 212.769 140.298C213.848 140.298 214.38 140.87 214.38 141.849V141.889C214.38 142.456 213.803 142.406 212.411 142.585C210.994 142.769 209.448 143.082 209.448 144.832C209.448 146.324 210.602 147.179 212.053 147.179ZM212.232 146.125C211.298 146.125 210.622 145.707 210.622 144.892C210.622 143.997 211.437 143.719 212.352 143.599C212.849 143.54 214.181 143.401 214.38 143.162V144.236C214.38 145.19 213.624 146.125 212.232 146.125ZM217.695 147H218.868V142.168C218.868 141.134 219.684 140.378 220.797 140.378C221.11 140.378 221.434 140.438 221.513 140.457V139.264C221.379 139.254 221.071 139.244 220.897 139.244C219.982 139.244 219.186 139.761 218.908 140.517H218.828V139.364H217.695V147ZM225.555 147.159C227.027 147.159 227.524 146.244 227.782 145.827H227.922V147H229.055V136.818H227.882V140.577H227.782C227.524 140.179 227.066 139.264 225.575 139.264C223.646 139.264 222.314 140.795 222.314 143.202C222.314 145.628 223.646 147.159 225.555 147.159ZM225.714 146.105C224.243 146.105 223.487 144.812 223.487 143.182C223.487 141.571 224.223 140.318 225.714 140.318C227.146 140.318 227.902 141.472 227.902 143.182C227.902 144.912 227.126 146.105 225.714 146.105ZM235.742 142.088H231.287V143.182H235.742V142.088ZM238.98 136.818H237.806V147H238.98V136.818ZM241.129 147H242.302V139.364H241.129V147ZM241.725 138.091C242.183 138.091 242.56 137.733 242.56 137.295C242.56 136.858 242.183 136.5 241.725 136.5C241.268 136.5 240.89 136.858 240.89 137.295C240.89 137.733 241.268 138.091 241.725 138.091ZM244.451 147H245.624V144.141L246.444 143.381L249.303 147H250.795L247.329 142.625L250.556 139.364H249.104L245.763 142.764H245.624V136.818H244.451V147ZM254.953 147.159C256.504 147.159 257.638 146.384 257.996 145.23L256.862 144.912C256.564 145.707 255.873 146.105 254.953 146.105C253.576 146.105 252.627 145.215 252.572 143.58H258.115V143.082C258.115 140.239 256.425 139.264 254.834 139.264C252.766 139.264 251.394 140.895 251.394 143.241C251.394 145.588 252.746 147.159 254.953 147.159ZM252.572 142.565C252.651 141.377 253.492 140.318 254.834 140.318C256.107 140.318 256.922 141.273 256.922 142.565H252.572ZM265.568 147H266.721L268.392 141.134H268.511L270.181 147H271.335L273.661 139.364H272.428L270.778 145.19H270.698L269.088 139.364H267.835L266.204 145.21H266.124L264.474 139.364H263.241L265.568 147ZM278.055 147.159C280.123 147.159 281.515 145.588 281.515 143.222C281.515 140.835 280.123 139.264 278.055 139.264C275.987 139.264 274.595 140.835 274.595 143.222C274.595 145.588 275.987 147.159 278.055 147.159ZM278.055 146.105C276.484 146.105 275.768 144.753 275.768 143.222C275.768 141.69 276.484 140.318 278.055 140.318C279.626 140.318 280.342 141.69 280.342 143.222C280.342 144.753 279.626 146.105 278.055 146.105ZM283.306 147H284.48V142.168C284.48 141.134 285.295 140.378 286.409 140.378C286.722 140.378 287.045 140.438 287.124 140.457V139.264C286.99 139.254 286.682 139.244 286.508 139.244C285.593 139.244 284.798 139.761 284.519 140.517H284.44V139.364H283.306V147ZM288.515 147H289.689V144.141L290.509 143.381L293.368 147H294.859L291.394 142.625L294.62 139.364H293.169L289.828 142.764H289.689V136.818H288.515V147ZM299.531 139.364H297.821V138.588C297.821 137.832 298.139 137.435 298.915 137.435C299.253 137.435 299.452 137.514 299.571 137.554L299.909 136.54C299.73 136.46 299.372 136.341 298.795 136.341C297.702 136.341 296.648 136.997 296.648 138.31V139.364H295.415V140.358H296.648V147H297.821V140.358H299.531V139.364ZM302.349 136.818H301.175V147H302.349V136.818ZM307.6 147.159C309.668 147.159 311.06 145.588 311.06 143.222C311.06 140.835 309.668 139.264 307.6 139.264C305.532 139.264 304.14 140.835 304.14 143.222C304.14 145.588 305.532 147.159 307.6 147.159ZM307.6 146.105C306.029 146.105 305.313 144.753 305.313 143.222C305.313 141.69 306.029 140.318 307.6 140.318C309.171 140.318 309.887 141.69 309.887 143.222C309.887 144.753 309.171 146.105 307.6 146.105ZM314.322 147H315.475L317.145 141.134H317.265L318.935 147H320.089L322.415 139.364H321.182L319.532 145.19H319.452L317.841 139.364H316.589L314.958 145.21H314.878L313.228 139.364H311.995L314.322 147ZM329.376 141.074C329.008 139.99 328.182 139.264 326.671 139.264C325.06 139.264 323.867 140.179 323.867 141.472C323.867 142.526 324.493 143.232 325.895 143.56L327.168 143.858C327.939 144.037 328.302 144.405 328.302 144.932C328.302 145.588 327.606 146.125 326.512 146.125C325.552 146.125 324.951 145.712 324.742 144.892L323.628 145.17C323.902 146.468 324.971 147.159 326.532 147.159C328.307 147.159 329.515 146.19 329.515 144.872C329.515 143.808 328.849 143.137 327.486 142.804L326.353 142.526C325.448 142.302 325.04 141.999 325.04 141.412C325.04 140.756 325.736 140.278 326.671 140.278C327.695 140.278 328.118 140.845 328.322 141.372L329.376 141.074ZM17.233 168H18.3665V166.827H18.5057C18.7642 167.244 19.2614 168.159 20.733 168.159C22.642 168.159 23.9744 166.628 23.9744 164.202C23.9744 161.795 22.642 160.264 20.7131 160.264C19.2216 160.264 18.7642 161.179 18.5057 161.577H18.4062V157.818H17.233V168ZM18.3864 164.182C18.3864 162.472 19.142 161.318 20.5739 161.318C22.0653 161.318 22.8011 162.571 22.8011 164.182C22.8011 165.812 22.0455 167.105 20.5739 167.105C19.1619 167.105 18.3864 165.912 18.3864 164.182ZM26.2514 170.864C27.3104 170.864 28.0561 170.302 28.4986 169.114L31.75 160.384L30.4673 160.364L28.3594 166.449H28.2798L26.1719 160.364H24.8991L27.723 168.04L27.5043 168.636C27.0767 169.8 26.5497 169.909 25.6946 169.69L25.3963 170.724C25.5156 170.784 25.8537 170.864 26.2514 170.864ZM40.1234 168.159C41.595 168.159 42.0922 167.244 42.3507 166.827H42.4899V168H43.6234V157.818H42.4501V161.577H42.3507C42.0922 161.179 41.6348 160.264 40.1433 160.264C38.2143 160.264 36.8819 161.795 36.8819 164.202C36.8819 166.628 38.2143 168.159 40.1234 168.159ZM40.2825 167.105C38.8109 167.105 38.0552 165.812 38.0552 164.182C38.0552 162.571 38.791 161.318 40.2825 161.318C41.7143 161.318 42.47 162.472 42.47 164.182C42.47 165.912 41.6944 167.105 40.2825 167.105ZM45.9352 168H47.1085V160.364H45.9352V168ZM46.5318 159.091C46.9892 159.091 47.367 158.733 47.367 158.295C47.367 157.858 46.9892 157.5 46.5318 157.5C46.0744 157.5 45.6966 157.858 45.6966 158.295C45.6966 158.733 46.0744 159.091 46.5318 159.091ZM55.5018 160.364H54.229L52.1211 166.449H52.0415L49.9336 160.364H48.6609L51.4847 168H52.6779L55.5018 160.364ZM57.0504 168H58.2237V160.364H57.0504V168ZM57.647 159.091C58.1044 159.091 58.4822 158.733 58.4822 158.295C58.4822 157.858 58.1044 157.5 57.647 157.5C57.1896 157.5 56.8118 157.858 56.8118 158.295C56.8118 158.733 57.1896 159.091 57.647 159.091ZM63.2562 168.159C64.7278 168.159 65.225 167.244 65.4835 166.827H65.6227V168H66.7562V157.818H65.5829V161.577H65.4835C65.225 161.179 64.7676 160.264 63.2761 160.264C61.3471 160.264 60.0147 161.795 60.0147 164.202C60.0147 166.628 61.3471 168.159 63.2562 168.159ZM63.4153 167.105C61.9437 167.105 61.188 165.812 61.188 164.182C61.188 162.571 61.9238 161.318 63.4153 161.318C64.8471 161.318 65.6028 162.472 65.6028 164.182C65.6028 165.912 64.8272 167.105 63.4153 167.105ZM69.068 168H70.2413V160.364H69.068V168ZM69.6646 159.091C70.122 159.091 70.4998 158.733 70.4998 158.295C70.4998 157.858 70.122 157.5 69.6646 157.5C69.2072 157.5 68.8294 157.858 68.8294 158.295C68.8294 158.733 69.2072 159.091 69.6646 159.091ZM73.5636 163.406C73.5636 162.074 74.3888 161.318 75.5124 161.318C76.6012 161.318 77.2624 162.029 77.2624 163.227V168H78.4357V163.148C78.4357 161.199 77.3967 160.264 75.8505 160.264C74.6971 160.264 73.9812 160.781 73.6232 161.557H73.5238V160.364H72.3903V168H73.5636V163.406ZM83.6621 171.023C85.4917 171.023 86.9632 170.188 86.9632 168.219V160.364H85.8297V161.577H85.7104C85.4519 161.179 84.9746 160.264 83.4831 160.264C81.5542 160.264 80.2218 161.795 80.2218 164.142C80.2218 166.528 81.6138 167.881 83.4632 167.881C84.9547 167.881 85.432 167.006 85.6905 166.588H85.79V168.139C85.79 169.412 84.8951 169.989 83.6621 169.989C82.275 169.989 81.7878 169.258 81.4746 168.835L80.54 169.491C81.0172 170.292 81.9569 171.023 83.6621 171.023ZM83.6223 166.827C82.1507 166.827 81.3951 165.713 81.3951 164.122C81.3951 162.571 82.1309 161.318 83.6223 161.318C85.0542 161.318 85.8098 162.472 85.8098 164.122C85.8098 165.812 85.0343 166.827 83.6223 166.827ZM96.1507 168.159C97.8411 168.159 98.9547 167.125 99.1536 165.773H97.9803C97.7615 166.608 97.0655 167.105 96.1507 167.105C94.7587 167.105 93.8638 165.952 93.8638 164.182C93.8638 162.452 94.7786 161.318 96.1507 161.318C97.1848 161.318 97.8013 161.955 97.9803 162.651H99.1536C98.9547 161.219 97.7417 160.264 96.1309 160.264C94.0627 160.264 92.6905 161.895 92.6905 164.222C92.6905 166.509 94.003 168.159 96.1507 168.159ZM103.971 168.159C106.039 168.159 107.431 166.588 107.431 164.222C107.431 161.835 106.039 160.264 103.971 160.264C101.903 160.264 100.511 161.835 100.511 164.222C100.511 166.588 101.903 168.159 103.971 168.159ZM103.971 167.105C102.4 167.105 101.684 165.753 101.684 164.222C101.684 162.69 102.4 161.318 103.971 161.318C105.542 161.318 106.258 162.69 106.258 164.222C106.258 165.753 105.542 167.105 103.971 167.105ZM110.396 163.406C110.396 162.074 111.221 161.318 112.344 161.318C113.433 161.318 114.094 162.029 114.094 163.227V168H115.268V163.148C115.268 161.199 114.229 160.264 112.683 160.264C111.529 160.264 110.813 160.781 110.455 161.557H110.356V160.364H109.222V168H110.396V163.406ZM120.733 160.364H119.102V158.534H117.929V160.364H116.775V161.358H117.929V166.131C117.929 167.463 119.003 168.099 119.997 168.099C120.434 168.099 120.713 168.02 120.872 167.96L120.633 166.906C120.534 166.926 120.375 166.966 120.116 166.966C119.599 166.966 119.102 166.807 119.102 165.812V161.358H120.733V160.364ZM125.617 168.159C127.169 168.159 128.302 167.384 128.66 166.23L127.526 165.912C127.228 166.707 126.537 167.105 125.617 167.105C124.24 167.105 123.291 166.215 123.236 164.58H128.779V164.082C128.779 161.239 127.089 160.264 125.498 160.264C123.43 160.264 122.058 161.895 122.058 164.241C122.058 166.588 123.41 168.159 125.617 168.159ZM123.236 163.565C123.316 162.377 124.156 161.318 125.498 161.318C126.771 161.318 127.586 162.273 127.586 163.565H123.236ZM131.737 163.406C131.737 162.074 132.563 161.318 133.686 161.318C134.775 161.318 135.436 162.029 135.436 163.227V168H136.61V163.148C136.61 161.199 135.57 160.264 134.024 160.264C132.871 160.264 132.155 160.781 131.797 161.557H131.698V160.364H130.564V168H131.737V163.406ZM142.075 160.364H140.444V158.534H139.271V160.364H138.117V161.358H139.271V166.131C139.271 167.463 140.344 168.099 141.339 168.099C141.776 168.099 142.055 168.02 142.214 167.96L141.975 166.906C141.876 166.926 141.717 166.966 141.458 166.966C140.941 166.966 140.444 166.807 140.444 165.812V161.358H142.075V160.364ZM147.777 168H148.95V160.364H147.777V168ZM148.374 159.091C148.831 159.091 149.209 158.733 149.209 158.295C149.209 157.858 148.831 157.5 148.374 157.5C147.916 157.5 147.538 157.858 147.538 158.295C147.538 158.733 147.916 159.091 148.374 159.091ZM152.273 163.406C152.273 162.074 153.098 161.318 154.221 161.318C155.31 161.318 155.971 162.029 155.971 163.227V168H157.145V163.148C157.145 161.199 156.106 160.264 154.559 160.264C153.406 160.264 152.69 160.781 152.332 161.557H152.233V160.364H151.099V168H152.273V163.406ZM162.61 160.364H160.979V158.534H159.806V160.364H158.652V161.358H159.806V166.131C159.806 167.463 160.88 168.099 161.874 168.099C162.311 168.099 162.59 168.02 162.749 167.96L162.51 166.906C162.411 166.926 162.252 166.966 161.993 166.966C161.476 166.966 160.979 166.807 160.979 165.812V161.358H162.61V160.364ZM167.395 168.159C169.463 168.159 170.855 166.588 170.855 164.222C170.855 161.835 169.463 160.264 167.395 160.264C165.327 160.264 163.935 161.835 163.935 164.222C163.935 166.588 165.327 168.159 167.395 168.159ZM167.395 167.105C165.824 167.105 165.108 165.753 165.108 164.222C165.108 162.69 165.824 161.318 167.395 161.318C168.966 161.318 169.682 162.69 169.682 164.222C169.682 165.753 168.966 167.105 167.395 167.105ZM177.757 157.818H176.584V168H177.757V157.818ZM183.008 168.159C185.076 168.159 186.468 166.588 186.468 164.222C186.468 161.835 185.076 160.264 183.008 160.264C180.94 160.264 179.548 161.835 179.548 164.222C179.548 166.588 180.94 168.159 183.008 168.159ZM183.008 167.105C181.437 167.105 180.721 165.753 180.721 164.222C180.721 162.69 181.437 161.318 183.008 161.318C184.579 161.318 185.295 162.69 185.295 164.222C185.295 165.753 184.579 167.105 183.008 167.105ZM191.342 171.023C193.171 171.023 194.643 170.188 194.643 168.219V160.364H193.509V161.577H193.39C193.132 161.179 192.654 160.264 191.163 160.264C189.234 160.264 187.901 161.795 187.901 164.142C187.901 166.528 189.294 167.881 191.143 167.881C192.634 167.881 193.112 167.006 193.37 166.588H193.47V168.139C193.47 169.412 192.575 169.989 191.342 169.989C189.955 169.989 189.468 169.258 189.154 168.835L188.22 169.491C188.697 170.292 189.637 171.023 191.342 171.023ZM191.302 166.827C189.83 166.827 189.075 165.713 189.075 164.122C189.075 162.571 189.811 161.318 191.302 161.318C192.734 161.318 193.49 162.472 193.49 164.122C193.49 165.812 192.714 166.827 191.302 166.827ZM196.791 168H197.964V160.364H196.791V168ZM197.387 159.091C197.845 159.091 198.222 158.733 198.222 158.295C198.222 157.858 197.845 157.5 197.387 157.5C196.93 157.5 196.552 157.858 196.552 158.295C196.552 158.733 196.93 159.091 197.387 159.091ZM203.215 168.159C204.906 168.159 206.019 167.125 206.218 165.773H205.045C204.826 166.608 204.13 167.105 203.215 167.105C201.823 167.105 200.928 165.952 200.928 164.182C200.928 162.452 201.843 161.318 203.215 161.318C204.249 161.318 204.866 161.955 205.045 162.651H206.218C206.019 161.219 204.806 160.264 203.195 160.264C201.127 160.264 199.755 161.895 199.755 164.222C199.755 166.509 201.067 168.159 203.215 168.159ZM210.18 168.179C211.513 168.179 212.209 167.463 212.447 166.966H212.507V168H213.68V162.969C213.68 160.543 211.831 160.264 210.857 160.264C209.703 160.264 208.391 160.662 207.794 162.054L208.908 162.452C209.166 161.895 209.778 161.298 210.896 161.298C211.975 161.298 212.507 161.87 212.507 162.849V162.889C212.507 163.456 211.93 163.406 210.538 163.585C209.121 163.769 207.575 164.082 207.575 165.832C207.575 167.324 208.729 168.179 210.18 168.179ZM210.359 167.125C209.425 167.125 208.749 166.707 208.749 165.892C208.749 164.997 209.564 164.719 210.479 164.599C210.976 164.54 212.308 164.401 212.507 164.162V165.236C212.507 166.19 211.751 167.125 210.359 167.125ZM216.995 157.818H215.822V168H216.995V157.818ZM228.491 162.074C228.123 160.99 227.298 160.264 225.786 160.264C224.175 160.264 222.982 161.179 222.982 162.472C222.982 163.526 223.609 164.232 225.011 164.56L226.283 164.858C227.054 165.037 227.417 165.405 227.417 165.932C227.417 166.588 226.721 167.125 225.627 167.125C224.668 167.125 224.066 166.712 223.857 165.892L222.744 166.17C223.017 167.468 224.086 168.159 225.647 168.159C227.422 168.159 228.63 167.19 228.63 165.872C228.63 164.808 227.964 164.137 226.602 163.804L225.468 163.526C224.563 163.302 224.156 162.999 224.156 162.412C224.156 161.756 224.852 161.278 225.786 161.278C226.81 161.278 227.233 161.845 227.437 162.372L228.491 162.074ZM233.717 160.364H232.086V158.534H230.913V160.364H229.76V161.358H230.913V166.131C230.913 167.463 231.987 168.099 232.981 168.099C233.419 168.099 233.697 168.02 233.856 167.96L233.618 166.906C233.518 166.926 233.359 166.966 233.101 166.966C232.584 166.966 232.086 166.807 232.086 165.812V161.358H233.717V160.364ZM238.602 168.159C240.153 168.159 241.286 167.384 241.644 166.23L240.511 165.912C240.213 166.707 239.521 167.105 238.602 167.105C237.225 167.105 236.275 166.215 236.22 164.58H241.764V164.082C241.764 161.239 240.073 160.264 238.482 160.264C236.414 160.264 235.042 161.895 235.042 164.241C235.042 166.588 236.394 168.159 238.602 168.159ZM236.22 163.565C236.3 162.377 237.14 161.318 238.482 161.318C239.755 161.318 240.57 162.273 240.57 163.565H236.22ZM243.548 170.864H244.722V166.827H244.821C245.08 167.244 245.577 168.159 247.048 168.159C248.958 168.159 250.29 166.628 250.29 164.202C250.29 161.795 248.958 160.264 247.029 160.264C245.537 160.264 245.08 161.179 244.821 161.577H244.682V160.364H243.548V170.864ZM244.702 164.182C244.702 162.472 245.458 161.318 246.889 161.318C248.381 161.318 249.117 162.571 249.117 164.182C249.117 165.812 248.361 167.105 246.889 167.105C245.477 167.105 244.702 165.912 244.702 164.182ZM257.489 162.074C257.121 160.99 256.296 160.264 254.784 160.264C253.173 160.264 251.98 161.179 251.98 162.472C251.98 163.526 252.607 164.232 254.009 164.56L255.281 164.858C256.052 165.037 256.415 165.405 256.415 165.932C256.415 166.588 255.719 167.125 254.625 167.125C253.666 167.125 253.064 166.712 252.855 165.892L251.742 166.17C252.015 167.468 253.084 168.159 254.645 168.159C256.42 168.159 257.628 167.19 257.628 165.872C257.628 164.808 256.962 164.137 255.6 163.804L254.466 163.526C253.561 163.302 253.154 162.999 253.154 162.412C253.154 161.756 253.85 161.278 254.784 161.278C255.808 161.278 256.231 161.845 256.435 162.372L257.489 162.074ZM260.249 168.08C260.741 168.08 261.144 167.677 261.144 167.185C261.144 166.692 260.741 166.29 260.249 166.29C259.757 166.29 259.354 166.692 259.354 167.185C259.354 167.677 259.757 168.08 260.249 168.08Z" fill="#27272A"/>
<rect y="189" width="360" height="8" fill="#F5F5FA"/>
<path d="M19.5028 219.909H16.4283L20.9474 233H24.5142L29.027 219.909H25.9588L22.7884 229.855H22.6669L19.5028 219.909ZM32.2614 233.185C33.7124 233.185 34.652 232.553 35.1314 231.638H35.2081V233H37.7905V226.378C37.7905 224.038 35.8089 223.054 33.6229 223.054C31.2706 223.054 29.7237 224.179 29.3466 225.969L31.8651 226.173C32.0504 225.521 32.6321 225.042 33.6101 225.042C34.5369 225.042 35.0675 225.509 35.0675 226.314V226.352C35.0675 226.985 34.3963 227.068 32.6896 227.234C30.7464 227.413 29.0014 228.065 29.0014 230.258C29.0014 232.201 30.3885 233.185 32.2614 233.185ZM33.0412 231.306C32.2038 231.306 31.603 230.916 31.603 230.168C31.603 229.401 32.2358 229.024 33.1946 228.89C33.7891 228.807 34.7607 228.666 35.0866 228.449V229.491C35.0866 230.52 34.2365 231.306 33.0412 231.306ZM39.9031 233H42.6261V227.445C42.6261 226.237 43.5082 225.406 44.7099 225.406C45.087 225.406 45.6048 225.47 45.8604 225.553V223.137C45.6175 223.08 45.2788 223.041 45.0039 223.041C43.9045 223.041 43.0032 223.68 42.6452 224.895H42.543V223.182H39.9031V233ZM47.2683 233H49.9913V223.182H47.2683V233ZM48.6362 221.916C49.448 221.916 50.1127 221.296 50.1127 220.536C50.1127 219.781 49.448 219.161 48.6362 219.161C47.8308 219.161 47.166 219.781 47.166 220.536C47.166 221.296 47.8308 221.916 48.6362 221.916ZM54.9723 233.185C56.4233 233.185 57.3629 232.553 57.8423 231.638H57.919V233H60.5014V226.378C60.5014 224.038 58.5199 223.054 56.3338 223.054C53.9815 223.054 52.4347 224.179 52.0575 225.969L54.576 226.173C54.7614 225.521 55.343 225.042 56.321 225.042C57.2479 225.042 57.7784 225.509 57.7784 226.314V226.352C57.7784 226.985 57.1072 227.068 55.4006 227.234C53.4574 227.413 51.7124 228.065 51.7124 230.258C51.7124 232.201 53.0994 233.185 54.9723 233.185ZM55.7521 231.306C54.9148 231.306 54.3139 230.916 54.3139 230.168C54.3139 229.401 54.9467 229.024 55.9055 228.89C56.5 228.807 57.4716 228.666 57.7976 228.449V229.491C57.7976 230.52 56.9474 231.306 55.7521 231.306ZM65.337 227.324C65.3434 226.058 66.0977 225.317 67.1971 225.317C68.2901 225.317 68.9485 226.033 68.9421 227.234V233H71.6651V226.749C71.6651 224.46 70.3228 223.054 68.2773 223.054C66.82 223.054 65.7653 223.77 65.3242 224.914H65.2092V223.182H62.614V233H65.337V227.324ZM79.0336 223.182H77.1863V220.83H74.4632V223.182H73.1209V225.227H74.4632V230.341C74.4505 232.265 75.7608 233.217 77.736 233.134C78.4391 233.109 78.9377 232.968 79.2125 232.879L78.7843 230.852C78.65 230.878 78.3624 230.942 78.1067 230.942C77.5634 230.942 77.1863 230.737 77.1863 229.983V225.227H79.0336V223.182ZM88.8358 225.982C88.5929 224.173 87.1355 223.054 84.6554 223.054C82.1433 223.054 80.4877 224.217 80.4941 226.109C80.4877 227.58 81.4146 228.532 83.3322 228.915L85.0325 229.254C85.889 229.427 86.2789 229.74 86.2917 230.232C86.2789 230.814 85.6461 231.229 84.6937 231.229C83.7221 231.229 83.0765 230.814 82.9103 230.015L80.2321 230.156C80.4877 232.035 82.0858 233.192 84.6873 233.192C87.2314 233.192 89.0531 231.894 89.0595 229.957C89.0531 228.538 88.1262 227.688 86.2214 227.298L84.4444 226.94C83.5304 226.742 83.1916 226.429 83.198 225.956C83.1916 225.368 83.8564 224.984 84.7001 224.984C85.6461 224.984 86.2086 225.502 86.3429 226.135L88.8358 225.982Z" fill="#27272A"/>
<path d="M282.755 216.273H281.647L284.851 225H285.942L289.147 216.273H288.039L285.448 223.619H285.346L282.755 216.273ZM290.37 225H291.375V218.455H290.37V225ZM290.881 217.364C291.273 217.364 291.597 217.057 291.597 216.682C291.597 216.307 291.273 216 290.881 216C290.489 216 290.165 216.307 290.165 216.682C290.165 217.057 290.489 217.364 290.881 217.364ZM295.962 225.136C297.291 225.136 298.263 224.472 298.57 223.483L297.598 223.21C297.342 223.892 296.75 224.233 295.962 224.233C294.781 224.233 293.967 223.47 293.92 222.068H298.672V221.642C298.672 219.205 297.223 218.369 295.859 218.369C294.087 218.369 292.911 219.767 292.911 221.778C292.911 223.79 294.07 225.136 295.962 225.136ZM293.92 221.199C293.989 220.18 294.709 219.273 295.859 219.273C296.95 219.273 297.649 220.091 297.649 221.199H293.92ZM301.685 225H302.673L304.105 219.972H304.207L305.639 225H306.628L308.622 218.455H307.565L306.151 223.449H306.082L304.702 218.455H303.628L302.23 223.466H302.162L300.747 218.455H299.69L301.685 225ZM315.798 225.136C317.06 225.136 317.486 224.352 317.707 223.994H317.827V225H318.798V216.273H317.793V219.494H317.707C317.486 219.153 317.094 218.369 315.815 218.369C314.162 218.369 313.02 219.682 313.02 221.744C313.02 223.824 314.162 225.136 315.798 225.136ZM315.935 224.233C314.673 224.233 314.026 223.125 314.026 221.727C314.026 220.347 314.656 219.273 315.935 219.273C317.162 219.273 317.81 220.261 317.81 221.727C317.81 223.21 317.145 224.233 315.935 224.233ZM323.524 225.136C324.854 225.136 325.825 224.472 326.132 223.483L325.161 223.21C324.905 223.892 324.312 224.233 323.524 224.233C322.344 224.233 321.53 223.47 321.483 222.068H326.234V221.642C326.234 219.205 324.786 218.369 323.422 218.369C321.649 218.369 320.473 219.767 320.473 221.778C320.473 223.79 321.632 225.136 323.524 225.136ZM321.483 221.199C321.551 220.18 322.271 219.273 323.422 219.273C324.513 219.273 325.212 220.091 325.212 221.199H321.483ZM330.611 218.455H329.213V216.886H328.207V218.455H327.219V219.307H328.207V223.398C328.207 224.54 329.128 225.085 329.98 225.085C330.355 225.085 330.594 225.017 330.73 224.966L330.526 224.062C330.44 224.08 330.304 224.114 330.082 224.114C329.639 224.114 329.213 223.977 329.213 223.125V219.307H330.611V218.455ZM334.05 225.153C335.192 225.153 335.788 224.54 335.993 224.114H336.044V225H337.05V220.688C337.05 218.608 335.464 218.369 334.629 218.369C333.641 218.369 332.516 218.71 332.004 219.903L332.959 220.244C333.18 219.767 333.705 219.256 334.663 219.256C335.588 219.256 336.044 219.746 336.044 220.585V220.619C336.044 221.105 335.55 221.062 334.357 221.216C333.142 221.374 331.817 221.642 331.817 223.142C331.817 224.42 332.805 225.153 334.05 225.153ZM334.203 224.25C333.402 224.25 332.822 223.892 332.822 223.193C332.822 222.426 333.521 222.188 334.305 222.085C334.732 222.034 335.874 221.915 336.044 221.71V222.631C336.044 223.449 335.396 224.25 334.203 224.25ZM338.885 225H339.891V218.455H338.885V225ZM339.397 217.364C339.789 217.364 340.113 217.057 340.113 216.682C340.113 216.307 339.789 216 339.397 216C339.005 216 338.681 216.307 338.681 216.682C338.681 217.057 339.005 217.364 339.397 217.364ZM342.739 216.273H341.733V225H342.739V216.273Z" fill="#1A94FF"/>
<path d="M281.34 227.386H343.659V228.205H281.34V227.386Z" fill="#1A94FF"/>
<a href="https://www.figma.com/file/PH6ZIgexyuFMWO4TZCorai/?node-id=549%3A6400">
<rect fill="black" fill-opacity="0" x="0.339844" y="0.738636" width="62.3192" height="14.5227"/>
</a>
<rect width="328" height="59" transform="translate(16 248)" fill="white"/>
<path d="M16.4972 263.593H19.6143V272H21.7422V263.593H24.8594V261.818H16.4972V263.593ZM26.6293 274.864C28.2053 274.864 29.0405 274.058 29.473 272.825L32.4411 264.374L30.1989 264.364L28.603 269.972H28.5234L26.9425 264.364H24.7152L27.4545 272.219L27.3303 272.542C27.0518 273.258 26.5199 273.293 25.7741 273.064L25.2969 274.645C25.6001 274.774 26.0923 274.864 26.6293 274.864ZM33.5249 274.864H35.6428V270.777H35.7074C36.0007 271.413 36.642 272.124 37.875 272.124C39.6151 272.124 40.9723 270.747 40.9723 268.192C40.9723 265.567 39.5554 264.264 37.88 264.264C36.6023 264.264 35.9908 265.025 35.7074 265.646H35.6129V264.364H33.5249V274.864ZM35.598 268.182C35.598 266.82 36.1747 265.95 37.2038 265.95C38.2528 265.95 38.8097 266.859 38.8097 268.182C38.8097 269.514 38.2429 270.439 37.2038 270.439C36.1847 270.439 35.598 269.544 35.598 268.182ZM45.8643 272.149C47.7536 272.149 49.0263 271.229 49.3246 269.812L47.3658 269.683C47.152 270.265 46.6051 270.568 45.8991 270.568C44.8402 270.568 44.169 269.867 44.169 268.729V268.724H49.3693V268.142C49.3693 265.547 47.7983 264.264 45.7798 264.264C43.5327 264.264 42.076 265.86 42.076 268.217C42.076 270.638 43.5128 272.149 45.8643 272.149ZM44.169 267.411C44.2138 266.541 44.875 265.845 45.8146 265.845C46.7344 265.845 47.3707 266.501 47.3757 267.411H44.169Z" fill="#28282B"/>
<path d="M17.0568 294H18.1136V290.097H22.767V294H23.8239V285.273H22.767V289.159H18.1136V285.273H17.0568V294ZM28.4624 294.136C30.2351 294.136 31.4283 292.79 31.4283 290.761C31.4283 288.716 30.2351 287.369 28.4624 287.369C26.6896 287.369 25.4964 288.716 25.4964 290.761C25.4964 292.79 26.6896 294.136 28.4624 294.136ZM28.4624 293.233C27.1158 293.233 26.5021 292.074 26.5021 290.761C26.5021 289.449 27.1158 288.273 28.4624 288.273C29.8089 288.273 30.4226 289.449 30.4226 290.761C30.4226 292.074 29.8089 293.233 28.4624 293.233ZM32.9634 294H33.9691V289.858C33.9691 288.972 34.668 288.324 35.6225 288.324C35.891 288.324 36.168 288.375 36.2362 288.392V287.369C36.1211 287.361 35.8569 287.352 35.7077 287.352C34.9237 287.352 34.2418 287.795 34.0032 288.443H33.935V287.455H32.9634V294ZM37.4283 294H38.4339V287.455H37.4283V294ZM37.9396 286.364C38.3317 286.364 38.6555 286.057 38.6555 285.682C38.6555 285.307 38.3317 285 37.9396 285C37.5476 285 37.2237 285.307 37.2237 285.682C37.2237 286.057 37.5476 286.364 37.9396 286.364ZM40.0884 294H45.2191V293.062H41.4862V292.994L45.0998 288.256V287.455H40.2077V288.392H43.8043V288.46L40.0884 293.233V294ZM49.2397 294.136C51.0124 294.136 52.2056 292.79 52.2056 290.761C52.2056 288.716 51.0124 287.369 49.2397 287.369C47.467 287.369 46.2738 288.716 46.2738 290.761C46.2738 292.79 47.467 294.136 49.2397 294.136ZM49.2397 293.233C47.8931 293.233 47.2795 292.074 47.2795 290.761C47.2795 289.449 47.8931 288.273 49.2397 288.273C50.5863 288.273 51.1999 289.449 51.1999 290.761C51.1999 292.074 50.5863 293.233 49.2397 293.233ZM54.7464 290.062C54.7464 288.92 55.4538 288.273 56.4169 288.273C57.3501 288.273 57.9169 288.882 57.9169 289.909V294H58.9226V289.841C58.9226 288.17 58.032 287.369 56.7067 287.369C55.718 287.369 55.1044 287.812 54.7976 288.477H54.7124V287.455H53.7408V294H54.7464V290.062ZM63.6069 287.455H62.2092V285.886H61.2035V287.455H60.2148V288.307H61.2035V292.398C61.2035 293.54 62.1239 294.085 62.9762 294.085C63.3512 294.085 63.5898 294.017 63.7262 293.966L63.5217 293.062C63.4364 293.08 63.3001 293.114 63.0785 293.114C62.6353 293.114 62.2092 292.977 62.2092 292.125V288.307H63.6069V287.455ZM67.0458 294.153C68.1879 294.153 68.7844 293.54 68.989 293.114H69.0401V294H70.0458V289.688C70.0458 287.608 68.4606 287.369 67.6254 287.369C66.6367 287.369 65.5117 287.71 65.0004 288.903L65.9549 289.244C66.1765 288.767 66.7006 288.256 67.6594 288.256C68.5842 288.256 69.0401 288.746 69.0401 289.585V289.619C69.0401 290.105 68.5458 290.062 67.3526 290.216C66.1381 290.374 64.8129 290.642 64.8129 292.142C64.8129 293.42 65.8015 294.153 67.0458 294.153ZM67.1992 293.25C66.3981 293.25 65.8185 292.892 65.8185 292.193C65.8185 291.426 66.5174 291.188 67.3015 291.085C67.7276 291.034 68.8697 290.915 69.0401 290.71V291.631C69.0401 292.449 68.3924 293.25 67.1992 293.25ZM72.8871 285.273H71.8814V294H72.8871V285.273ZM80.0302 294.153C81.1722 294.153 81.7688 293.54 81.9734 293.114H82.0245V294H83.0302V289.688C83.0302 287.608 81.445 287.369 80.6097 287.369C79.6211 287.369 78.4961 287.71 77.9847 288.903L78.9393 289.244C79.1609 288.767 79.685 288.256 80.6438 288.256C81.5685 288.256 82.0245 288.746 82.0245 289.585V289.619C82.0245 290.105 81.5302 290.062 80.337 290.216C79.1225 290.374 77.7972 290.642 77.7972 292.142C77.7972 293.42 78.7859 294.153 80.0302 294.153ZM80.1836 293.25C79.3825 293.25 78.8029 292.892 78.8029 292.193C78.8029 291.426 79.5018 291.188 80.2859 291.085C80.712 291.034 81.854 290.915 82.0245 290.71V291.631C82.0245 292.449 81.3768 293.25 80.1836 293.25ZM85.8714 290.062C85.8714 288.92 86.5788 288.273 87.5419 288.273C88.4751 288.273 89.0419 288.882 89.0419 289.909V294H90.0476V289.841C90.0476 288.17 89.157 287.369 87.8317 287.369C86.843 287.369 86.2294 287.812 85.9226 288.477H85.8374V287.455H84.8658V294H85.8714V290.062ZM94.3569 294.136C95.6183 294.136 96.0444 293.352 96.266 292.994H96.3853V294H97.3569V285.273H96.3512V288.494H96.266C96.0444 288.153 95.6523 287.369 94.3739 287.369C92.7205 287.369 91.5785 288.682 91.5785 290.744C91.5785 292.824 92.7205 294.136 94.3569 294.136ZM94.4933 293.233C93.2319 293.233 92.5842 292.125 92.5842 290.727C92.5842 289.347 93.2148 288.273 94.4933 288.273C95.7205 288.273 96.3683 289.261 96.3683 290.727C96.3683 292.21 95.7035 293.233 94.4933 293.233ZM103.208 285.273H102.1L105.304 294H106.395L109.6 285.273H108.492L105.901 292.619H105.799L103.208 285.273ZM112.958 294.136C114.287 294.136 115.259 293.472 115.566 292.483L114.594 292.21C114.338 292.892 113.746 293.233 112.958 293.233C111.777 293.233 110.963 292.47 110.917 291.068H115.668V290.642C115.668 288.205 114.219 287.369 112.855 287.369C111.083 287.369 109.907 288.767 109.907 290.778C109.907 292.79 111.066 294.136 112.958 294.136ZM110.917 290.199C110.985 289.18 111.705 288.273 112.855 288.273C113.946 288.273 114.645 289.091 114.645 290.199H110.917ZM117.198 294H118.203V289.858C118.203 288.972 118.902 288.324 119.857 288.324C120.125 288.324 120.402 288.375 120.471 288.392V287.369C120.355 287.361 120.091 287.352 119.942 287.352C119.158 287.352 118.476 287.795 118.238 288.443H118.169V287.455H117.198V294ZM124.919 287.455H123.522V285.886H122.516V287.455H121.527V288.307H122.516V292.398C122.516 293.54 123.436 294.085 124.289 294.085C124.664 294.085 124.902 294.017 125.039 293.966L124.834 293.062C124.749 293.08 124.613 293.114 124.391 293.114C123.948 293.114 123.522 292.977 123.522 292.125V288.307H124.919V287.455ZM126.432 294H127.438V287.455H126.432V294ZM126.944 286.364C127.336 286.364 127.659 286.057 127.659 285.682C127.659 285.307 127.336 285 126.944 285C126.551 285 126.228 285.307 126.228 285.682C126.228 286.057 126.551 286.364 126.944 286.364ZM131.939 294.136C133.388 294.136 134.342 293.25 134.513 292.091H133.507C133.32 292.807 132.723 293.233 131.939 293.233C130.746 293.233 129.979 292.244 129.979 290.727C129.979 289.244 130.763 288.273 131.939 288.273C132.825 288.273 133.354 288.818 133.507 289.415H134.513C134.342 288.188 133.303 287.369 131.922 287.369C130.149 287.369 128.973 288.767 128.973 290.761C128.973 292.722 130.098 294.136 131.939 294.136ZM137.909 294.153C139.051 294.153 139.648 293.54 139.852 293.114H139.903V294H140.909V289.688C140.909 287.608 139.324 287.369 138.489 287.369C137.5 287.369 136.375 287.71 135.864 288.903L136.818 289.244C137.04 288.767 137.564 288.256 138.523 288.256C139.447 288.256 139.903 288.746 139.903 289.585V289.619C139.903 290.105 139.409 290.062 138.216 290.216C137.001 290.374 135.676 290.642 135.676 292.142C135.676 293.42 136.665 294.153 137.909 294.153ZM138.062 293.25C137.261 293.25 136.682 292.892 136.682 292.193C136.682 291.426 137.381 291.188 138.165 291.085C138.591 291.034 139.733 290.915 139.903 290.71V291.631C139.903 292.449 139.256 293.25 138.062 293.25ZM143.75 285.273H142.745V294H143.75V285.273ZM146.325 294.068C146.747 294.068 147.092 293.723 147.092 293.301C147.092 292.879 146.747 292.534 146.325 292.534C145.903 292.534 145.558 292.879 145.558 293.301C145.558 293.723 145.903 294.068 146.325 294.068Z" fill="#808089"/>
<line x1="16" y1="306.5" x2="344" y2="306.5" stroke="#EBEBF0"/>
<circle cx="70.6667" cy="331" r="8" fill="#1A94FF"/>
<rect width="42.6667" height="4" transform="translate(82.6667 329)" fill="#1A94FF"/>
<path d="M59.7675 356.273H61.1312C61.0687 354.517 59.4493 353.205 57.1993 353.205C54.9721 353.205 53.2221 354.5 53.2221 356.455C53.2221 358.023 54.3584 358.955 56.1766 359.477L57.6084 359.886C58.8357 360.227 59.9266 360.659 59.9266 361.818C59.9266 363.091 58.6993 363.932 57.0857 363.932C55.6993 363.932 54.4721 363.318 54.3584 362H52.9039C53.0402 363.909 54.5857 365.205 57.0857 365.205C59.7675 365.205 61.2902 363.727 61.2902 361.841C61.2902 359.659 59.2221 358.955 58.0175 358.636L56.8357 358.318C55.9721 358.091 54.5857 357.636 54.5857 356.386C54.5857 355.273 55.6084 354.455 57.1539 354.455C58.563 354.455 59.6312 355.125 59.7675 356.273ZM67.2206 356.273H65.357V354.182H64.0161V356.273H62.6979V357.409H64.0161V362.864C64.0161 364.386 65.2434 365.114 66.3797 365.114C66.8797 365.114 67.1979 365.023 67.3797 364.955L67.107 363.75C66.9934 363.773 66.8116 363.818 66.5161 363.818C65.9252 363.818 65.357 363.636 65.357 362.5V357.409H67.2206V356.273ZM71.8059 365.205C73.3286 365.205 74.1241 364.386 74.3968 363.818H74.465V365H75.8059V359.25C75.8059 356.477 73.6922 356.159 72.5786 356.159C71.2604 356.159 69.7604 356.614 69.0786 358.205L70.3513 358.659C70.6468 358.023 71.3456 357.341 72.6241 357.341C73.857 357.341 74.465 357.994 74.465 359.114V359.159C74.465 359.807 73.8059 359.75 72.215 359.955C70.5956 360.165 68.8286 360.523 68.8286 362.523C68.8286 364.227 70.1468 365.205 71.8059 365.205ZM72.0104 364C70.9422 364 70.1695 363.523 70.1695 362.591C70.1695 361.568 71.1013 361.25 72.1468 361.114C72.715 361.045 74.2377 360.886 74.465 360.614V361.841C74.465 362.932 73.6013 364 72.0104 364ZM78.2533 365H79.5942V359.477C79.5942 358.295 80.526 357.432 81.7988 357.432C82.1567 357.432 82.526 357.5 82.617 357.523V356.159C82.4635 356.148 82.1113 356.136 81.9124 356.136C80.867 356.136 79.9579 356.727 79.6397 357.591H79.5488V356.273H78.2533V365ZM88.5488 356.273H86.6851V354.182H85.3442V356.273H84.026V357.409H85.3442V362.864C85.3442 364.386 86.5715 365.114 87.7079 365.114C88.2079 365.114 88.526 365.023 88.7079 364.955L88.4351 363.75C88.3215 363.773 88.1397 363.818 87.8442 363.818C87.2533 363.818 86.6851 363.636 86.6851 362.5V357.409H88.5488V356.273Z" fill="#27272A"/>
<path d="M37.362 391C40.4643 391 42.2143 389.071 42.2143 385.889C42.2143 382.727 40.4643 380.818 37.5012 380.818H34.2199V391H37.362ZM35.4529 389.906V381.912H37.4216C39.808 381.912 41.0211 383.423 41.0211 385.889C41.0211 388.375 39.808 389.906 37.2824 389.906H35.4529ZM47.325 391.159C48.8762 391.159 50.0097 390.384 50.3677 389.23L49.2341 388.912C48.9358 389.707 48.2448 390.105 47.325 390.105C45.9479 390.105 44.9983 389.215 44.9437 387.58H50.487V387.082C50.487 384.239 48.7966 383.264 47.2057 383.264C45.1375 383.264 43.7654 384.895 43.7654 387.241C43.7654 389.588 45.1177 391.159 47.325 391.159ZM44.9437 386.565C45.0232 385.377 45.8634 384.318 47.2057 384.318C48.4785 384.318 49.2938 385.273 49.2938 386.565H44.9437ZM57.6809 385.074C57.313 383.99 56.4877 383.264 54.9763 383.264C53.3655 383.264 52.1723 384.179 52.1723 385.472C52.1723 386.526 52.7988 387.232 54.2008 387.56L55.4735 387.858C56.2441 388.037 56.607 388.405 56.607 388.932C56.607 389.588 55.911 390.125 54.8172 390.125C53.8577 390.125 53.2562 389.712 53.0473 388.892L51.9337 389.17C52.2072 390.468 53.276 391.159 54.8371 391.159C56.612 391.159 57.8201 390.19 57.8201 388.872C57.8201 387.808 57.1539 387.137 55.7917 386.804L54.6581 386.526C53.7533 386.302 53.3456 385.999 53.3456 385.412C53.3456 384.756 54.0417 384.278 54.9763 384.278C56.0005 384.278 56.4231 384.845 56.6269 385.372L57.6809 385.074ZM62.6885 391.159C64.3788 391.159 65.4925 390.125 65.6913 388.773H64.5181C64.2993 389.608 63.6033 390.105 62.6885 390.105C61.2965 390.105 60.4016 388.952 60.4016 387.182C60.4016 385.452 61.3163 384.318 62.6885 384.318C63.7226 384.318 64.3391 384.955 64.5181 385.651H65.6913C65.4925 384.219 64.2794 383.264 62.6686 383.264C60.6004 383.264 59.2283 384.895 59.2283 387.222C59.2283 389.509 60.5408 391.159 62.6885 391.159ZM67.4065 391H68.5798V386.168C68.5798 385.134 69.3952 384.378 70.5088 384.378C70.822 384.378 71.1452 384.438 71.2247 384.457V383.264C71.0905 383.254 70.7823 383.244 70.6083 383.244C69.6935 383.244 68.898 383.761 68.6196 384.517H68.5401V383.364H67.4065V391ZM72.6155 391H73.7888V383.364H72.6155V391ZM73.2121 382.091C73.6695 382.091 74.0473 381.733 74.0473 381.295C74.0473 380.858 73.6695 380.5 73.2121 380.5C72.7547 380.5 72.3769 380.858 72.3769 381.295C72.3769 381.733 72.7547 382.091 73.2121 382.091ZM75.9378 393.864H77.1111V389.827H77.2105C77.469 390.244 77.9662 391.159 79.4378 391.159C81.3469 391.159 82.6793 389.628 82.6793 387.202C82.6793 384.795 81.3469 383.264 79.4179 383.264C77.9264 383.264 77.469 384.179 77.2105 384.577H77.0713V383.364H75.9378V393.864ZM77.0912 387.182C77.0912 385.472 77.8469 384.318 79.2787 384.318C80.7702 384.318 81.506 385.571 81.506 387.182C81.506 388.812 80.7503 390.105 79.2787 390.105C77.8668 390.105 77.0912 388.912 77.0912 387.182ZM87.7901 383.364H86.1594V381.534H84.9861V383.364H83.8327V384.358H84.9861V389.131C84.9861 390.463 86.06 391.099 87.0543 391.099C87.4918 391.099 87.7702 391.02 87.9293 390.96L87.6906 389.906C87.5912 389.926 87.4321 389.966 87.1736 389.966C86.6566 389.966 86.1594 389.807 86.1594 388.812V384.358H87.7901V383.364ZM89.555 391H90.7283V383.364H89.555V391ZM90.1516 382.091C90.609 382.091 90.9868 381.733 90.9868 381.295C90.9868 380.858 90.609 380.5 90.1516 380.5C89.6942 380.5 89.3164 380.858 89.3164 381.295C89.3164 381.733 89.6942 382.091 90.1516 382.091ZM95.9795 391.159C98.0477 391.159 99.4398 389.588 99.4398 387.222C99.4398 384.835 98.0477 383.264 95.9795 383.264C93.9113 383.264 92.5193 384.835 92.5193 387.222C92.5193 389.588 93.9113 391.159 95.9795 391.159ZM95.9795 390.105C94.4085 390.105 93.6926 388.753 93.6926 387.222C93.6926 385.69 94.4085 384.318 95.9795 384.318C97.5505 384.318 98.2665 385.69 98.2665 387.222C98.2665 388.753 97.5505 390.105 95.9795 390.105ZM102.404 386.406C102.404 385.074 103.229 384.318 104.353 384.318C105.442 384.318 106.103 385.029 106.103 386.227V391H107.276V386.148C107.276 384.199 106.237 383.264 104.691 383.264C103.538 383.264 102.822 383.781 102.464 384.557H102.364V383.364H101.231V391H102.404V386.406Z" fill="#808089"/>
<rect width="42.6667" height="4" transform="translate(125.333 329)" fill="#1A94FF"/>
<circle cx="180" cy="331" r="8" fill="#1A94FF"/>
<rect width="42.6667" height="4" transform="translate(192 329)" fill="black" fill-opacity="0.1"/>
<path d="M154.378 353.364V365H156.765V357.398H156.861L159.873 364.943H161.498L164.509 357.426H164.606V365H166.992V353.364H163.958L160.753 361.182H160.617L157.413 353.364H154.378ZM168.974 365H171.394V356.273H168.974V365ZM170.19 355.148C170.911 355.148 171.502 354.597 171.502 353.92C171.502 353.25 170.911 352.699 170.19 352.699C169.474 352.699 168.883 353.25 168.883 353.92C168.883 354.597 169.474 355.148 170.19 355.148ZM176.549 365.142C177.958 365.142 178.691 364.33 179.026 363.602H179.128V365H181.515V353.364H179.1V357.739H179.026C178.702 357.028 178.003 356.159 176.543 356.159C174.628 356.159 173.009 357.648 173.009 360.648C173.009 363.568 174.56 365.142 176.549 365.142ZM177.316 363.216C176.128 363.216 175.481 362.159 175.481 360.636C175.481 359.125 176.117 358.085 177.316 358.085C178.492 358.085 179.151 359.08 179.151 360.636C179.151 362.193 178.481 363.216 177.316 363.216ZM186.721 365.142C188.13 365.142 188.863 364.33 189.198 363.602H189.3V365H191.687V353.364H189.272V357.739H189.198C188.874 357.028 188.175 356.159 186.715 356.159C184.8 356.159 183.181 357.648 183.181 360.648C183.181 363.568 184.732 365.142 186.721 365.142ZM187.488 363.216C186.3 363.216 185.653 362.159 185.653 360.636C185.653 359.125 186.289 358.085 187.488 358.085C188.664 358.085 189.323 359.08 189.323 360.636C189.323 362.193 188.653 363.216 187.488 363.216ZM196.097 353.364H193.677V365H196.097V353.364ZM202.013 365.17C204.173 365.17 205.627 364.119 205.968 362.5L203.729 362.352C203.485 363.017 202.86 363.364 202.053 363.364C200.843 363.364 200.076 362.562 200.076 361.261V361.256H206.019V360.591C206.019 357.625 204.224 356.159 201.917 356.159C199.349 356.159 197.684 357.983 197.684 360.676C197.684 363.443 199.326 365.17 202.013 365.17ZM200.076 359.756C200.127 358.761 200.883 357.966 201.957 357.966C203.008 357.966 203.735 358.716 203.741 359.756H200.076Z" fill="#27272A"/>
<path d="M146.695 391C149.798 391 151.548 389.071 151.548 385.889C151.548 382.727 149.798 380.818 146.834 380.818H143.553V391H146.695ZM144.786 389.906V381.912H146.755C149.141 381.912 150.354 383.423 150.354 385.889C150.354 388.375 149.141 389.906 146.616 389.906H144.786ZM156.658 391.159C158.209 391.159 159.343 390.384 159.701 389.23L158.567 388.912C158.269 389.707 157.578 390.105 156.658 390.105C155.281 390.105 154.332 389.215 154.277 387.58H159.82V387.082C159.82 384.239 158.13 383.264 156.539 383.264C154.471 383.264 153.099 384.895 153.099 387.241C153.099 389.588 154.451 391.159 156.658 391.159ZM154.277 386.565C154.356 385.377 155.197 384.318 156.539 384.318C157.812 384.318 158.627 385.273 158.627 386.565H154.277ZM167.014 385.074C166.646 383.99 165.821 383.264 164.31 383.264C162.699 383.264 161.506 384.179 161.506 385.472C161.506 386.526 162.132 387.232 163.534 387.56L164.807 387.858C165.577 388.037 165.94 388.405 165.94 388.932C165.94 389.588 165.244 390.125 164.15 390.125C163.191 390.125 162.589 389.712 162.381 388.892L161.267 389.17C161.54 390.468 162.609 391.159 164.17 391.159C165.945 391.159 167.153 390.19 167.153 388.872C167.153 387.808 166.487 387.137 165.125 386.804L163.991 386.526C163.087 386.302 162.679 385.999 162.679 385.412C162.679 384.756 163.375 384.278 164.31 384.278C165.334 384.278 165.756 384.845 165.96 385.372L167.014 385.074ZM172.022 391.159C173.712 391.159 174.826 390.125 175.025 388.773H173.851C173.633 389.608 172.937 390.105 172.022 390.105C170.63 390.105 169.735 388.952 169.735 387.182C169.735 385.452 170.65 384.318 172.022 384.318C173.056 384.318 173.672 384.955 173.851 385.651H175.025C174.826 384.219 173.613 383.264 172.002 383.264C169.934 383.264 168.562 384.895 168.562 387.222C168.562 389.509 169.874 391.159 172.022 391.159ZM176.74 391H177.913V386.168C177.913 385.134 178.728 384.378 179.842 384.378C180.155 384.378 180.478 384.438 180.558 384.457V383.264C180.424 383.254 180.116 383.244 179.942 383.244C179.027 383.244 178.231 383.761 177.953 384.517H177.873V383.364H176.74V391ZM181.949 391H183.122V383.364H181.949V391ZM182.545 382.091C183.003 382.091 183.381 381.733 183.381 381.295C183.381 380.858 183.003 380.5 182.545 380.5C182.088 380.5 181.71 380.858 181.71 381.295C181.71 381.733 182.088 382.091 182.545 382.091ZM185.271 393.864H186.444V389.827H186.544C186.802 390.244 187.299 391.159 188.771 391.159C190.68 391.159 192.013 389.628 192.013 387.202C192.013 384.795 190.68 383.264 188.751 383.264C187.26 383.264 186.802 384.179 186.544 384.577H186.405V383.364H185.271V393.864ZM186.424 387.182C186.424 385.472 187.18 384.318 188.612 384.318C190.103 384.318 190.839 385.571 190.839 387.182C190.839 388.812 190.084 390.105 188.612 390.105C187.2 390.105 186.424 388.912 186.424 387.182ZM197.123 383.364H195.493V381.534H194.319V383.364H193.166V384.358H194.319V389.131C194.319 390.463 195.393 391.099 196.388 391.099C196.825 391.099 197.103 391.02 197.263 390.96L197.024 389.906C196.924 389.926 196.765 389.966 196.507 389.966C195.99 389.966 195.493 389.807 195.493 388.812V384.358H197.123V383.364ZM198.888 391H200.062V383.364H198.888V391ZM199.485 382.091C199.942 382.091 200.32 381.733 200.32 381.295C200.32 380.858 199.942 380.5 199.485 380.5C199.027 380.5 198.65 380.858 198.65 381.295C198.65 381.733 199.027 382.091 199.485 382.091ZM205.313 391.159C207.381 391.159 208.773 389.588 208.773 387.222C208.773 384.835 207.381 383.264 205.313 383.264C203.245 383.264 201.853 384.835 201.853 387.222C201.853 389.588 203.245 391.159 205.313 391.159ZM205.313 390.105C203.742 390.105 203.026 388.753 203.026 387.222C203.026 385.69 203.742 384.318 205.313 384.318C206.884 384.318 207.6 385.69 207.6 387.222C207.6 388.753 206.884 390.105 205.313 390.105ZM211.737 386.406C211.737 385.074 212.563 384.318 213.686 384.318C214.775 384.318 215.436 385.029 215.436 386.227V391H216.609V386.148C216.609 384.199 215.57 383.264 214.024 383.264C212.871 383.264 212.155 383.781 211.797 384.557H211.698V383.364H210.564V391H211.737V386.406Z" fill="#808089"/>
<rect width="42.6667" height="4" transform="translate(234.667 329)" fill="black" fill-opacity="0.1"/>
<circle cx="289.333" cy="331" r="8" fill="black" fill-opacity="0.1"/>
<path d="M276.313 365H283.426V363.75H277.722V359.795H282.972V358.545H277.722V354.614H283.336V353.364H276.313V365ZM287.034 359.75C287.034 358.227 287.978 357.364 289.262 357.364C290.506 357.364 291.262 358.176 291.262 359.545V365H292.603V359.455C292.603 357.227 291.415 356.159 289.648 356.159C288.33 356.159 287.512 356.75 287.103 357.636H286.989V356.273H285.694V365H287.034V359.75ZM298.348 365.182C300.03 365.182 300.598 364.136 300.894 363.659H301.053V365H302.348V353.364H301.007V357.659H300.894C300.598 357.205 300.076 356.159 298.371 356.159C296.167 356.159 294.644 357.909 294.644 360.659C294.644 363.432 296.167 365.182 298.348 365.182ZM298.53 363.977C296.848 363.977 295.985 362.5 295.985 360.636C295.985 358.795 296.826 357.364 298.53 357.364C300.167 357.364 301.03 358.682 301.03 360.636C301.03 362.614 300.144 363.977 298.53 363.977Z" fill="#27272A"/>
<path d="M256.029 391C259.131 391 260.881 389.071 260.881 385.889C260.881 382.727 259.131 380.818 256.168 380.818H252.887V391H256.029ZM254.12 389.906V381.912H256.088C258.475 381.912 259.688 383.423 259.688 385.889C259.688 388.375 258.475 389.906 255.949 389.906H254.12ZM265.992 391.159C267.543 391.159 268.676 390.384 269.034 389.23L267.901 388.912C267.603 389.707 266.912 390.105 265.992 390.105C264.615 390.105 263.665 389.215 263.61 387.58H269.154V387.082C269.154 384.239 267.463 383.264 265.872 383.264C263.804 383.264 262.432 384.895 262.432 387.241C262.432 389.588 263.784 391.159 265.992 391.159ZM263.61 386.565C263.69 385.377 264.53 384.318 265.872 384.318C267.145 384.318 267.961 385.273 267.961 386.565H263.61ZM276.348 385.074C275.98 383.99 275.154 383.264 273.643 383.264C272.032 383.264 270.839 384.179 270.839 385.472C270.839 386.526 271.466 387.232 272.868 387.56L274.14 387.858C274.911 388.037 275.274 388.405 275.274 388.932C275.274 389.588 274.578 390.125 273.484 390.125C272.524 390.125 271.923 389.712 271.714 388.892L270.6 389.17C270.874 390.468 271.943 391.159 273.504 391.159C275.279 391.159 276.487 390.19 276.487 388.872C276.487 387.808 275.821 387.137 274.458 386.804L273.325 386.526C272.42 386.302 272.012 385.999 272.012 385.412C272.012 384.756 272.708 384.278 273.643 384.278C274.667 384.278 275.09 384.845 275.294 385.372L276.348 385.074ZM281.355 391.159C283.046 391.159 284.159 390.125 284.358 388.773H283.185C282.966 389.608 282.27 390.105 281.355 390.105C279.963 390.105 279.068 388.952 279.068 387.182C279.068 385.452 279.983 384.318 281.355 384.318C282.389 384.318 283.006 384.955 283.185 385.651H284.358C284.159 384.219 282.946 383.264 281.335 383.264C279.267 383.264 277.895 384.895 277.895 387.222C277.895 389.509 279.208 391.159 281.355 391.159ZM286.073 391H287.247V386.168C287.247 385.134 288.062 384.378 289.176 384.378C289.489 384.378 289.812 384.438 289.891 384.457V383.264C289.757 383.254 289.449 383.244 289.275 383.244C288.36 383.244 287.565 383.761 287.286 384.517H287.207V383.364H286.073V391ZM291.282 391H292.456V383.364H291.282V391ZM291.879 382.091C292.336 382.091 292.714 381.733 292.714 381.295C292.714 380.858 292.336 380.5 291.879 380.5C291.421 380.5 291.044 380.858 291.044 381.295C291.044 381.733 291.421 382.091 291.879 382.091ZM294.605 393.864H295.778V389.827H295.877C296.136 390.244 296.633 391.159 298.105 391.159C300.014 391.159 301.346 389.628 301.346 387.202C301.346 384.795 300.014 383.264 298.085 383.264C296.593 383.264 296.136 384.179 295.877 384.577H295.738V383.364H294.605V393.864ZM295.758 387.182C295.758 385.472 296.514 384.318 297.945 384.318C299.437 384.318 300.173 385.571 300.173 387.182C300.173 388.812 299.417 390.105 297.945 390.105C296.534 390.105 295.758 388.912 295.758 387.182ZM306.457 383.364H304.826V381.534H303.653V383.364H302.499V384.358H303.653V389.131C303.653 390.463 304.727 391.099 305.721 391.099C306.159 391.099 306.437 391.02 306.596 390.96L306.357 389.906C306.258 389.926 306.099 389.966 305.84 389.966C305.323 389.966 304.826 389.807 304.826 388.812V384.358H306.457V383.364ZM308.222 391H309.395V383.364H308.222V391ZM308.818 382.091C309.276 382.091 309.654 381.733 309.654 381.295C309.654 380.858 309.276 380.5 308.818 380.5C308.361 380.5 307.983 380.858 307.983 381.295C307.983 381.733 308.361 382.091 308.818 382.091ZM314.646 391.159C316.714 391.159 318.107 389.588 318.107 387.222C318.107 384.835 316.714 383.264 314.646 383.264C312.578 383.264 311.186 384.835 311.186 387.222C311.186 389.588 312.578 391.159 314.646 391.159ZM314.646 390.105C313.075 390.105 312.359 388.753 312.359 387.222C312.359 385.69 313.075 384.318 314.646 384.318C316.217 384.318 316.933 385.69 316.933 387.222C316.933 388.753 316.217 390.105 314.646 390.105ZM321.071 386.406C321.071 385.074 321.896 384.318 323.02 384.318C324.108 384.318 324.77 385.029 324.77 386.227V391H325.943V386.148C325.943 384.199 324.904 383.264 323.358 383.264C322.204 383.264 321.488 383.781 321.13 384.557H321.031V383.364H319.898V391H321.071V386.406Z" fill="#808089"/>
<circle cx="24" cy="438" r="8" fill="#1A94FF"/>
<rect width="4" height="30" transform="translate(22 450)" fill="black" fill-opacity="0.1"/>
<path d="M48.8849 444H55.4027V442.225H51.0376V433.818H48.8849V444ZM58.9661 444.144C60.0946 444.144 60.8255 443.652 61.1983 442.941H61.258V444H63.2665V438.849C63.2665 437.03 61.7253 436.264 60.025 436.264C58.1955 436.264 56.9924 437.139 56.699 438.531L58.6578 438.69C58.802 438.183 59.2544 437.81 60.0151 437.81C60.736 437.81 61.1486 438.173 61.1486 438.8V438.83C61.1486 439.322 60.6266 439.386 59.2992 439.516C57.7878 439.655 56.4306 440.162 56.4306 441.867C56.4306 443.379 57.5094 444.144 58.9661 444.144ZM59.5726 442.683C58.9213 442.683 58.454 442.379 58.454 441.798C58.454 441.201 58.9462 440.908 59.6919 440.803C60.1543 440.739 60.91 440.629 61.1635 440.46V441.271C61.1635 442.071 60.5023 442.683 59.5726 442.683ZM68.9714 436.364H67.5346V434.534H65.4167V436.364H64.3727V437.955H65.4167V441.932C65.4068 443.428 66.426 444.169 67.9622 444.104C68.5091 444.085 68.8968 443.975 69.1106 443.906L68.7775 442.33C68.6731 442.349 68.4494 442.399 68.2505 442.399C67.8279 442.399 67.5346 442.24 67.5346 441.653V437.955H68.9714V436.364ZM73.7491 444.149C75.6383 444.149 76.911 443.229 77.2093 441.812L75.2505 441.683C75.0368 442.265 74.4899 442.568 73.7839 442.568C72.725 442.568 72.0538 441.867 72.0538 440.729V440.724H77.2541V440.142C77.2541 437.547 75.6831 436.264 73.6646 436.264C71.4174 436.264 69.9608 437.86 69.9608 440.217C69.9608 442.638 71.3975 444.149 73.7491 444.149ZM72.0538 439.411C72.0985 438.541 72.7598 437.845 73.6994 437.845C74.6191 437.845 75.2555 438.501 75.2605 439.411H72.0538ZM84.9899 438.541C84.801 437.134 83.6674 436.264 81.7385 436.264C79.7846 436.264 78.497 437.169 78.502 438.641C78.497 439.784 79.2179 440.525 80.7093 440.823L82.0318 441.087C82.698 441.221 83.0012 441.464 83.0112 441.847C83.0012 442.3 82.5091 442.623 81.7683 442.623C81.0126 442.623 80.5105 442.3 80.3812 441.678L78.2981 441.788C78.497 443.249 79.7399 444.149 81.7633 444.149C83.742 444.149 85.1589 443.14 85.1639 441.634C85.1589 440.53 84.438 439.869 82.9565 439.565L81.5744 439.287C80.8635 439.133 80.6 438.889 80.6049 438.521C80.6 438.064 81.117 437.766 81.7733 437.766C82.5091 437.766 82.9466 438.168 83.051 438.661L84.9899 438.541ZM90.5593 436.364H89.1225V434.534H87.0046V436.364H85.9606V437.955H87.0046V441.932C86.9947 443.428 88.0138 444.169 89.5501 444.104C90.0969 444.085 90.4847 443.975 90.6985 443.906L90.3654 442.33C90.261 442.349 90.0373 442.399 89.8384 442.399C89.4158 442.399 89.1225 442.24 89.1225 441.653V437.955H90.5593V436.364ZM97.3567 444.144C98.4853 444.144 99.2161 443.652 99.589 442.941H99.6486V444H101.657V438.849C101.657 437.03 100.116 436.264 98.4157 436.264C96.5861 436.264 95.383 437.139 95.0897 438.531L97.0485 438.69C97.1926 438.183 97.6451 437.81 98.4057 437.81C99.1266 437.81 99.5392 438.173 99.5392 438.8V438.83C99.5392 439.322 99.0172 439.386 97.6898 439.516C96.1784 439.655 94.8212 440.162 94.8212 441.867C94.8212 443.379 95.9 444.144 97.3567 444.144ZM97.9632 442.683C97.312 442.683 96.8446 442.379 96.8446 441.798C96.8446 441.201 97.3368 440.908 98.0826 440.803C98.5449 440.739 99.3006 440.629 99.5542 440.46V441.271C99.5542 442.071 98.8929 442.683 97.9632 442.683ZM106.751 444.149C108.784 444.149 110.062 442.956 110.161 441.201H108.162C108.038 442.016 107.501 442.474 106.775 442.474C105.786 442.474 105.145 441.643 105.145 440.182C105.145 438.74 105.791 437.915 106.775 437.915C107.551 437.915 108.048 438.427 108.162 439.188H110.161C110.072 437.423 108.734 436.264 106.741 436.264C104.424 436.264 102.992 437.87 102.992 440.212C102.992 442.533 104.399 444.149 106.751 444.149ZM115.579 436.364H114.142V434.534H112.024V436.364H110.98V437.955H112.024V441.932C112.014 443.428 113.033 444.169 114.57 444.104C115.116 444.085 115.504 443.975 115.718 443.906L115.385 442.33C115.281 442.349 115.057 442.399 114.858 442.399C114.435 442.399 114.142 442.24 114.142 441.653V437.955H115.579V436.364ZM116.958 444H119.076V436.364H116.958V444ZM118.022 435.379C118.654 435.379 119.171 434.897 119.171 434.305C119.171 433.719 118.654 433.237 118.022 433.237C117.396 433.237 116.879 433.719 116.879 434.305C116.879 434.897 117.396 435.379 118.022 435.379ZM124.223 444.149C126.54 444.149 127.982 442.563 127.982 440.212C127.982 437.845 126.54 436.264 124.223 436.264C121.906 436.264 120.465 437.845 120.465 440.212C120.465 442.563 121.906 444.149 124.223 444.149ZM124.233 442.509C123.164 442.509 122.617 441.529 122.617 440.197C122.617 438.864 123.164 437.88 124.233 437.88C125.282 437.88 125.829 438.864 125.829 440.197C125.829 441.529 125.282 442.509 124.233 442.509ZM131.477 439.585C131.482 438.601 132.068 438.024 132.923 438.024C133.774 438.024 134.286 438.581 134.281 439.516V444H136.399V439.138C136.399 437.358 135.355 436.264 133.764 436.264C132.63 436.264 131.81 436.821 131.467 437.711H131.377V436.364H129.359V444H131.477V439.585Z" fill="#27272A"/>
<path d="M52.375 469C55.4773 469 57.2273 467.071 57.2273 463.889C57.2273 460.727 55.4773 458.818 52.5142 458.818H49.233V469H52.375ZM50.4659 467.906V459.912H52.4347C54.821 459.912 56.0341 461.423 56.0341 463.889C56.0341 466.375 54.821 467.906 52.2955 467.906H50.4659ZM62.3381 469.159C63.8892 469.159 65.0227 468.384 65.3807 467.23L64.2472 466.912C63.9489 467.707 63.2578 468.105 62.3381 468.105C60.9609 468.105 60.0114 467.215 59.9567 465.58H65.5V465.082C65.5 462.239 63.8097 461.264 62.2188 461.264C60.1506 461.264 58.7784 462.895 58.7784 465.241C58.7784 467.588 60.1307 469.159 62.3381 469.159ZM59.9567 464.565C60.0362 463.377 60.8764 462.318 62.2188 462.318C63.4915 462.318 64.3068 463.273 64.3068 464.565H59.9567ZM72.6939 463.074C72.326 461.99 71.5007 461.264 69.9893 461.264C68.3786 461.264 67.1854 462.179 67.1854 463.472C67.1854 464.526 67.8118 465.232 69.2138 465.56L70.4865 465.858C71.2571 466.037 71.62 466.405 71.62 466.932C71.62 467.588 70.924 468.125 69.8303 468.125C68.8707 468.125 68.2692 467.712 68.0604 466.892L66.9467 467.17C67.2202 468.468 68.2891 469.159 69.8501 469.159C71.625 469.159 72.8331 468.19 72.8331 466.872C72.8331 465.808 72.1669 465.137 70.8047 464.804L69.6712 464.526C68.7663 464.302 68.3587 463.999 68.3587 463.412C68.3587 462.756 69.0547 462.278 69.9893 462.278C71.0135 462.278 71.4361 462.845 71.6399 463.372L72.6939 463.074ZM77.7015 469.159C79.3919 469.159 80.5055 468.125 80.7044 466.773H79.5311C79.3123 467.608 78.6163 468.105 77.7015 468.105C76.3095 468.105 75.4146 466.952 75.4146 465.182C75.4146 463.452 76.3294 462.318 77.7015 462.318C78.7356 462.318 79.3521 462.955 79.5311 463.651H80.7044C80.5055 462.219 79.2924 461.264 77.6816 461.264C75.6135 461.264 74.2413 462.895 74.2413 465.222C74.2413 467.509 75.5538 469.159 77.7015 469.159ZM82.4196 469H83.5929V464.168C83.5929 463.134 84.4082 462.378 85.5218 462.378C85.835 462.378 86.1582 462.438 86.2377 462.457V461.264C86.1035 461.254 85.7953 461.244 85.6213 461.244C84.7065 461.244 83.911 461.761 83.6326 462.517H83.5531V461.364H82.4196V469ZM87.6286 469H88.8018V461.364H87.6286V469ZM88.2251 460.091C88.6825 460.091 89.0604 459.733 89.0604 459.295C89.0604 458.858 88.6825 458.5 88.2251 458.5C87.7678 458.5 87.3899 458.858 87.3899 459.295C87.3899 459.733 87.7678 460.091 88.2251 460.091ZM90.9508 471.864H92.1241V467.827H92.2235C92.4821 468.244 92.9792 469.159 94.4508 469.159C96.3599 469.159 97.6923 467.628 97.6923 465.202C97.6923 462.795 96.3599 461.264 94.4309 461.264C92.9395 461.264 92.4821 462.179 92.2235 462.577H92.0843V461.364H90.9508V471.864ZM92.1042 465.182C92.1042 463.472 92.8599 462.318 94.2917 462.318C95.7832 462.318 96.519 463.571 96.519 465.182C96.519 466.812 95.7633 468.105 94.2917 468.105C92.8798 468.105 92.1042 466.912 92.1042 465.182ZM102.803 461.364H101.172V459.534H99.9991V461.364H98.8457V462.358H99.9991V467.131C99.9991 468.463 101.073 469.099 102.067 469.099C102.505 469.099 102.783 469.02 102.942 468.96L102.704 467.906C102.604 467.926 102.445 467.966 102.187 467.966C101.67 467.966 101.172 467.807 101.172 466.812V462.358H102.803V461.364ZM104.568 469H105.741V461.364H104.568V469ZM105.165 460.091C105.622 460.091 106 459.733 106 459.295C106 458.858 105.622 458.5 105.165 458.5C104.707 458.5 104.329 458.858 104.329 459.295C104.329 459.733 104.707 460.091 105.165 460.091ZM110.993 469.159C113.061 469.159 114.453 467.588 114.453 465.222C114.453 462.835 113.061 461.264 110.993 461.264C108.924 461.264 107.532 462.835 107.532 465.222C107.532 467.588 108.924 469.159 110.993 469.159ZM110.993 468.105C109.422 468.105 108.706 466.753 108.706 465.222C108.706 463.69 109.422 462.318 110.993 462.318C112.564 462.318 113.279 463.69 113.279 465.222C113.279 466.753 112.564 468.105 110.993 468.105ZM117.417 464.406C117.417 463.074 118.242 462.318 119.366 462.318C120.455 462.318 121.116 463.029 121.116 464.227V469H122.289V464.148C122.289 462.199 121.25 461.264 119.704 461.264C118.551 461.264 117.835 461.781 117.477 462.557H117.377V461.364H116.244V469H117.417V464.406Z" fill="#808089"/>
<circle cx="24" cy="492" r="8" fill="black" fill-opacity="0.1"/>
<rect width="4" height="30" transform="translate(22 504)" fill="black" fill-opacity="0.1"/>
<path d="M49.054 498H55.4773V496.906H50.7443V496.827L53.0312 494.381C54.7812 492.506 55.2983 491.631 55.2983 490.503C55.2983 488.932 54.0256 487.679 52.2358 487.679C50.451 487.679 49.0938 488.892 49.0938 490.682H50.267C50.267 489.523 51.0178 488.753 52.196 488.753C53.2997 488.753 54.1449 489.429 54.1449 490.503C54.1449 491.442 53.593 492.138 52.4148 493.426L49.054 497.105V498ZM58.7237 493.406C58.7237 492.074 59.549 491.318 60.6726 491.318C61.7614 491.318 62.4226 492.029 62.4226 493.227V498H63.5959V493.148C63.5959 491.199 62.5568 490.264 61.0107 490.264C59.8572 490.264 59.1413 490.781 58.7834 491.557H58.6839V490.364H57.5504V498H58.7237V493.406ZM68.6234 498.159C70.095 498.159 70.5922 497.244 70.8507 496.827H70.9899V498H72.1234V487.818H70.9501V491.577H70.8507C70.5922 491.179 70.1348 490.264 68.6433 490.264C66.7143 490.264 65.3819 491.795 65.3819 494.202C65.3819 496.628 66.7143 498.159 68.6234 498.159ZM68.7825 497.105C67.3109 497.105 66.5552 495.812 66.5552 494.182C66.5552 492.571 67.291 491.318 68.7825 491.318C70.2143 491.318 70.97 492.472 70.97 494.182C70.97 495.912 70.1944 497.105 68.7825 497.105ZM80.6199 498.179C81.9522 498.179 82.6483 497.463 82.8869 496.966H82.9466V498H84.1199V492.969C84.1199 490.543 82.2704 490.264 81.296 490.264C80.1426 490.264 78.8301 490.662 78.2335 492.054L79.3471 492.452C79.6056 491.895 80.2172 491.298 81.3358 491.298C82.4146 491.298 82.9466 491.87 82.9466 492.849V492.889C82.9466 493.456 82.3699 493.406 80.9778 493.585C79.5609 493.769 78.0147 494.082 78.0147 495.832C78.0147 497.324 79.1681 498.179 80.6199 498.179ZM80.7988 497.125C79.8642 497.125 79.188 496.707 79.188 495.892C79.188 494.997 80.0034 494.719 80.9181 494.599C81.4153 494.54 82.7477 494.401 82.9466 494.162V495.236C82.9466 496.19 82.1909 497.125 80.7988 497.125ZM89.3636 498.159C91.054 498.159 92.1676 497.125 92.3665 495.773H91.1932C90.9744 496.608 90.2784 497.105 89.3636 497.105C87.9716 497.105 87.0767 495.952 87.0767 494.182C87.0767 492.452 87.9915 491.318 89.3636 491.318C90.3977 491.318 91.0142 491.955 91.1932 492.651H92.3665C92.1676 491.219 90.9545 490.264 89.3438 490.264C87.2756 490.264 85.9034 491.895 85.9034 494.222C85.9034 496.509 87.2159 498.159 89.3636 498.159ZM97.4027 490.364H95.772V488.534H94.5987V490.364H93.4453V491.358H94.5987V496.131C94.5987 497.463 95.6726 498.099 96.6669 498.099C97.1044 498.099 97.3828 498.02 97.5419 497.96L97.3033 496.906C97.2038 496.926 97.0447 496.966 96.7862 496.966C96.2692 496.966 95.772 496.807 95.772 495.812V491.358H97.4027V490.364ZM99.1676 498H100.341V490.364H99.1676V498ZM99.7642 489.091C100.222 489.091 100.599 488.733 100.599 488.295C100.599 487.858 100.222 487.5 99.7642 487.5C99.3068 487.5 98.929 487.858 98.929 488.295C98.929 488.733 99.3068 489.091 99.7642 489.091ZM105.592 498.159C107.66 498.159 109.052 496.588 109.052 494.222C109.052 491.835 107.66 490.264 105.592 490.264C103.524 490.264 102.132 491.835 102.132 494.222C102.132 496.588 103.524 498.159 105.592 498.159ZM105.592 497.105C104.021 497.105 103.305 495.753 103.305 494.222C103.305 492.69 104.021 491.318 105.592 491.318C107.163 491.318 107.879 492.69 107.879 494.222C107.879 495.753 107.163 497.105 105.592 497.105ZM112.017 493.406C112.017 492.074 112.842 491.318 113.966 491.318C115.054 491.318 115.716 492.029 115.716 493.227V498H116.889V493.148C116.889 491.199 115.85 490.264 114.304 490.264C113.15 490.264 112.434 490.781 112.076 491.557H111.977V490.364H110.843V498H112.017V493.406Z" fill="#27272A"/>
<path d="M52.375 523C55.4773 523 57.2273 521.071 57.2273 517.889C57.2273 514.727 55.4773 512.818 52.5142 512.818H49.233V523H52.375ZM50.4659 521.906V513.912H52.4347C54.821 513.912 56.0341 515.423 56.0341 517.889C56.0341 520.375 54.821 521.906 52.2955 521.906H50.4659ZM62.3381 523.159C63.8892 523.159 65.0227 522.384 65.3807 521.23L64.2472 520.912C63.9489 521.707 63.2578 522.105 62.3381 522.105C60.9609 522.105 60.0114 521.215 59.9567 519.58H65.5V519.082C65.5 516.239 63.8097 515.264 62.2188 515.264C60.1506 515.264 58.7784 516.895 58.7784 519.241C58.7784 521.588 60.1307 523.159 62.3381 523.159ZM59.9567 518.565C60.0362 517.377 60.8764 516.318 62.2188 516.318C63.4915 516.318 64.3068 517.273 64.3068 518.565H59.9567ZM72.6939 517.074C72.326 515.99 71.5007 515.264 69.9893 515.264C68.3786 515.264 67.1854 516.179 67.1854 517.472C67.1854 518.526 67.8118 519.232 69.2138 519.56L70.4865 519.858C71.2571 520.037 71.62 520.405 71.62 520.932C71.62 521.588 70.924 522.125 69.8303 522.125C68.8707 522.125 68.2692 521.712 68.0604 520.892L66.9467 521.17C67.2202 522.468 68.2891 523.159 69.8501 523.159C71.625 523.159 72.8331 522.19 72.8331 520.872C72.8331 519.808 72.1669 519.137 70.8047 518.804L69.6712 518.526C68.7663 518.302 68.3587 517.999 68.3587 517.412C68.3587 516.756 69.0547 516.278 69.9893 516.278C71.0135 516.278 71.4361 516.845 71.6399 517.372L72.6939 517.074ZM77.7015 523.159C79.3919 523.159 80.5055 522.125 80.7044 520.773H79.5311C79.3123 521.608 78.6163 522.105 77.7015 522.105C76.3095 522.105 75.4146 520.952 75.4146 519.182C75.4146 517.452 76.3294 516.318 77.7015 516.318C78.7356 516.318 79.3521 516.955 79.5311 517.651H80.7044C80.5055 516.219 79.2924 515.264 77.6816 515.264C75.6135 515.264 74.2413 516.895 74.2413 519.222C74.2413 521.509 75.5538 523.159 77.7015 523.159ZM82.4196 523H83.5929V518.168C83.5929 517.134 84.4082 516.378 85.5218 516.378C85.835 516.378 86.1582 516.438 86.2377 516.457V515.264C86.1035 515.254 85.7953 515.244 85.6213 515.244C84.7065 515.244 83.911 515.761 83.6326 516.517H83.5531V515.364H82.4196V523ZM87.6286 523H88.8018V515.364H87.6286V523ZM88.2251 514.091C88.6825 514.091 89.0604 513.733 89.0604 513.295C89.0604 512.858 88.6825 512.5 88.2251 512.5C87.7678 512.5 87.3899 512.858 87.3899 513.295C87.3899 513.733 87.7678 514.091 88.2251 514.091ZM90.9508 525.864H92.1241V521.827H92.2235C92.4821 522.244 92.9792 523.159 94.4508 523.159C96.3599 523.159 97.6923 521.628 97.6923 519.202C97.6923 516.795 96.3599 515.264 94.4309 515.264C92.9395 515.264 92.4821 516.179 92.2235 516.577H92.0843V515.364H90.9508V525.864ZM92.1042 519.182C92.1042 517.472 92.8599 516.318 94.2917 516.318C95.7832 516.318 96.519 517.571 96.519 519.182C96.519 520.812 95.7633 522.105 94.2917 522.105C92.8798 522.105 92.1042 520.912 92.1042 519.182ZM102.803 515.364H101.172V513.534H99.9991V515.364H98.8457V516.358H99.9991V521.131C99.9991 522.463 101.073 523.099 102.067 523.099C102.505 523.099 102.783 523.02 102.942 522.96L102.704 521.906C102.604 521.926 102.445 521.966 102.187 521.966C101.67 521.966 101.172 521.807 101.172 520.812V516.358H102.803V515.364ZM104.568 523H105.741V515.364H104.568V523ZM105.165 514.091C105.622 514.091 106 513.733 106 513.295C106 512.858 105.622 512.5 105.165 512.5C104.707 512.5 104.329 512.858 104.329 513.295C104.329 513.733 104.707 514.091 105.165 514.091ZM110.993 523.159C113.061 523.159 114.453 521.588 114.453 519.222C114.453 516.835 113.061 515.264 110.993 515.264C108.924 515.264 107.532 516.835 107.532 519.222C107.532 521.588 108.924 523.159 110.993 523.159ZM110.993 522.105C109.422 522.105 108.706 520.753 108.706 519.222C108.706 517.69 109.422 516.318 110.993 516.318C112.564 516.318 113.279 517.69 113.279 519.222C113.279 520.753 112.564 522.105 110.993 522.105ZM117.417 518.406C117.417 517.074 118.242 516.318 119.366 516.318C120.455 516.318 121.116 517.029 121.116 518.227V523H122.289V518.148C122.289 516.199 121.25 515.264 119.704 515.264C118.551 515.264 117.835 515.781 117.477 516.557H117.377V515.364H116.244V523H117.417V518.406Z" fill="#808089"/>
<circle cx="24" cy="546" r="8" fill="black" fill-opacity="0.1"/>
<rect width="4" height="30" transform="translate(22 558)" fill="black" fill-opacity="0.1"/>
<path d="M52.6335 541.818H51.4006L48.8551 543.509V544.761L51.3409 543.111H51.4006V552H52.6335V541.818ZM60.9908 546.074C60.6229 544.99 59.7976 544.264 58.2862 544.264C56.6754 544.264 55.4822 545.179 55.4822 546.472C55.4822 547.526 56.1087 548.232 57.5107 548.56L58.7834 548.858C59.554 549.037 59.9169 549.405 59.9169 549.932C59.9169 550.588 59.2209 551.125 58.1271 551.125C57.1676 551.125 56.5661 550.712 56.3572 549.892L55.2436 550.17C55.517 551.468 56.5859 552.159 58.147 552.159C59.9219 552.159 61.13 551.19 61.13 549.872C61.13 548.808 60.4638 548.137 59.1016 547.804L57.968 547.526C57.0632 547.302 56.6555 546.999 56.6555 546.412C56.6555 545.756 57.3516 545.278 58.2862 545.278C59.3104 545.278 59.733 545.845 59.9368 546.372L60.9908 546.074ZM66.2172 544.364H64.5865V542.534H63.4132V544.364H62.2598V545.358H63.4132V550.131C63.4132 551.463 64.487 552.099 65.4814 552.099C65.9189 552.099 66.1973 552.02 66.3564 551.96L66.1177 550.906C66.0183 550.926 65.8592 550.966 65.6007 550.966C65.0836 550.966 64.5865 550.807 64.5865 549.812V545.358H66.2172V544.364ZM74.1667 552.179C75.4991 552.179 76.1951 551.463 76.4338 550.966H76.4934V552H77.6667V546.969C77.6667 544.543 75.8173 544.264 74.8429 544.264C73.6895 544.264 72.377 544.662 71.7804 546.054L72.894 546.452C73.1525 545.895 73.764 545.298 74.8826 545.298C75.9615 545.298 76.4934 545.87 76.4934 546.849V546.889C76.4934 547.456 75.9167 547.406 74.5247 547.585C73.1078 547.769 71.5616 548.082 71.5616 549.832C71.5616 551.324 72.715 552.179 74.1667 552.179ZM74.3457 551.125C73.411 551.125 72.7349 550.707 72.7349 549.892C72.7349 548.997 73.5502 548.719 74.465 548.599C74.9622 548.54 76.2946 548.401 76.4934 548.162V549.236C76.4934 550.19 75.7377 551.125 74.3457 551.125ZM82.9105 552.159C84.6009 552.159 85.7145 551.125 85.9134 549.773H84.7401C84.5213 550.608 83.8253 551.105 82.9105 551.105C81.5185 551.105 80.6236 549.952 80.6236 548.182C80.6236 546.452 81.5384 545.318 82.9105 545.318C83.9446 545.318 84.5611 545.955 84.7401 546.651H85.9134C85.7145 545.219 84.5014 544.264 82.8906 544.264C80.8224 544.264 79.4503 545.895 79.4503 548.222C79.4503 550.509 80.7628 552.159 82.9105 552.159ZM90.9496 544.364H89.3189V542.534H88.1456V544.364H86.9922V545.358H88.1456V550.131C88.1456 551.463 89.2195 552.099 90.2138 552.099C90.6513 552.099 90.9297 552.02 91.0888 551.96L90.8501 550.906C90.7507 550.926 90.5916 550.966 90.3331 550.966C89.8161 550.966 89.3189 550.807 89.3189 549.812V545.358H90.9496V544.364ZM92.7145 552H93.8878V544.364H92.7145V552ZM93.3111 543.091C93.7685 543.091 94.1463 542.733 94.1463 542.295C94.1463 541.858 93.7685 541.5 93.3111 541.5C92.8537 541.5 92.4759 541.858 92.4759 542.295C92.4759 542.733 92.8537 543.091 93.3111 543.091ZM99.139 552.159C101.207 552.159 102.599 550.588 102.599 548.222C102.599 545.835 101.207 544.264 99.139 544.264C97.0708 544.264 95.6788 545.835 95.6788 548.222C95.6788 550.588 97.0708 552.159 99.139 552.159ZM99.139 551.105C97.568 551.105 96.8521 549.753 96.8521 548.222C96.8521 546.69 97.568 545.318 99.139 545.318C100.71 545.318 101.426 546.69 101.426 548.222C101.426 549.753 100.71 551.105 99.139 551.105ZM105.564 547.406C105.564 546.074 106.389 545.318 107.512 545.318C108.601 545.318 109.262 546.029 109.262 547.227V552H110.436V547.148C110.436 545.199 109.397 544.264 107.85 544.264C106.697 544.264 105.981 544.781 105.623 545.557H105.524V544.364H104.39V552H105.564V547.406Z" fill="#27272A"/>
<path d="M52.375 577C55.4773 577 57.2273 575.071 57.2273 571.889C57.2273 568.727 55.4773 566.818 52.5142 566.818H49.233V577H52.375ZM50.4659 575.906V567.912H52.4347C54.821 567.912 56.0341 569.423 56.0341 571.889C56.0341 574.375 54.821 575.906 52.2955 575.906H50.4659ZM62.3381 577.159C63.8892 577.159 65.0227 576.384 65.3807 575.23L64.2472 574.912C63.9489 575.707 63.2578 576.105 62.3381 576.105C60.9609 576.105 60.0114 575.215 59.9567 573.58H65.5V573.082C65.5 570.239 63.8097 569.264 62.2188 569.264C60.1506 569.264 58.7784 570.895 58.7784 573.241C58.7784 575.588 60.1307 577.159 62.3381 577.159ZM59.9567 572.565C60.0362 571.377 60.8764 570.318 62.2188 570.318C63.4915 570.318 64.3068 571.273 64.3068 572.565H59.9567ZM72.6939 571.074C72.326 569.99 71.5007 569.264 69.9893 569.264C68.3786 569.264 67.1854 570.179 67.1854 571.472C67.1854 572.526 67.8118 573.232 69.2138 573.56L70.4865 573.858C71.2571 574.037 71.62 574.405 71.62 574.932C71.62 575.588 70.924 576.125 69.8303 576.125C68.8707 576.125 68.2692 575.712 68.0604 574.892L66.9467 575.17C67.2202 576.468 68.2891 577.159 69.8501 577.159C71.625 577.159 72.8331 576.19 72.8331 574.872C72.8331 573.808 72.1669 573.137 70.8047 572.804L69.6712 572.526C68.7663 572.302 68.3587 571.999 68.3587 571.412C68.3587 570.756 69.0547 570.278 69.9893 570.278C71.0135 570.278 71.4361 570.845 71.6399 571.372L72.6939 571.074ZM77.7015 577.159C79.3919 577.159 80.5055 576.125 80.7044 574.773H79.5311C79.3123 575.608 78.6163 576.105 77.7015 576.105C76.3095 576.105 75.4146 574.952 75.4146 573.182C75.4146 571.452 76.3294 570.318 77.7015 570.318C78.7356 570.318 79.3521 570.955 79.5311 571.651H80.7044C80.5055 570.219 79.2924 569.264 77.6816 569.264C75.6135 569.264 74.2413 570.895 74.2413 573.222C74.2413 575.509 75.5538 577.159 77.7015 577.159ZM82.4196 577H83.5929V572.168C83.5929 571.134 84.4082 570.378 85.5218 570.378C85.835 570.378 86.1582 570.438 86.2377 570.457V569.264C86.1035 569.254 85.7953 569.244 85.6213 569.244C84.7065 569.244 83.911 569.761 83.6326 570.517H83.5531V569.364H82.4196V577ZM87.6286 577H88.8018V569.364H87.6286V577ZM88.2251 568.091C88.6825 568.091 89.0604 567.733 89.0604 567.295C89.0604 566.858 88.6825 566.5 88.2251 566.5C87.7678 566.5 87.3899 566.858 87.3899 567.295C87.3899 567.733 87.7678 568.091 88.2251 568.091ZM90.9508 579.864H92.1241V575.827H92.2235C92.4821 576.244 92.9792 577.159 94.4508 577.159C96.3599 577.159 97.6923 575.628 97.6923 573.202C97.6923 570.795 96.3599 569.264 94.4309 569.264C92.9395 569.264 92.4821 570.179 92.2235 570.577H92.0843V569.364H90.9508V579.864ZM92.1042 573.182C92.1042 571.472 92.8599 570.318 94.2917 570.318C95.7832 570.318 96.519 571.571 96.519 573.182C96.519 574.812 95.7633 576.105 94.2917 576.105C92.8798 576.105 92.1042 574.912 92.1042 573.182ZM102.803 569.364H101.172V567.534H99.9991V569.364H98.8457V570.358H99.9991V575.131C99.9991 576.463 101.073 577.099 102.067 577.099C102.505 577.099 102.783 577.02 102.942 576.96L102.704 575.906C102.604 575.926 102.445 575.966 102.187 575.966C101.67 575.966 101.172 575.807 101.172 574.812V570.358H102.803V569.364ZM104.568 577H105.741V569.364H104.568V577ZM105.165 568.091C105.622 568.091 106 567.733 106 567.295C106 566.858 105.622 566.5 105.165 566.5C104.707 566.5 104.329 566.858 104.329 567.295C104.329 567.733 104.707 568.091 105.165 568.091ZM110.993 577.159C113.061 577.159 114.453 575.588 114.453 573.222C114.453 570.835 113.061 569.264 110.993 569.264C108.924 569.264 107.532 570.835 107.532 573.222C107.532 575.588 108.924 577.159 110.993 577.159ZM110.993 576.105C109.422 576.105 108.706 574.753 108.706 573.222C108.706 571.69 109.422 570.318 110.993 570.318C112.564 570.318 113.279 571.69 113.279 573.222C113.279 574.753 112.564 576.105 110.993 576.105ZM117.417 572.406C117.417 571.074 118.242 570.318 119.366 570.318C120.455 570.318 121.116 571.029 121.116 572.227V577H122.289V572.148C122.289 570.199 121.25 569.264 119.704 569.264C118.551 569.264 117.835 569.781 117.477 570.557H117.377V569.364H116.244V577H117.417V572.406Z" fill="#808089"/>
<rect width="360" height="56" transform="translate(0 24)" fill="#1A94FF"/>
<path fill-rule="evenodd" clip-rule="evenodd" d="M31.7071 45.2929C32.0976 45.6834 32.0976 46.3166 31.7071 46.7071L26.4142 52L31.7071 57.2929C32.0976 57.6834 32.0976 58.3166 31.7071 58.7071C31.3166 59.0976 30.6834 59.0976 30.2929 58.7071L24.2929 52.7071C23.9024 52.3166 23.9024 51.6834 24.2929 51.2929L30.2929 45.2929C30.6834 44.9024 31.3166 44.9024 31.7071 45.2929Z" fill="white"/>
<path d="M56.2393 49.174H58.892C58.8537 46.8409 56.9361 45.2301 54.0213 45.2301C51.1513 45.2301 49.0483 46.8153 49.0611 49.1932C49.0547 51.1236 50.4162 52.2294 52.6278 52.7599L54.0533 53.1179C55.4787 53.4631 56.2713 53.8722 56.2777 54.7543C56.2713 55.7131 55.3636 56.3651 53.9574 56.3651C52.5192 56.3651 51.4837 55.7003 51.3942 54.3899H48.7159C48.7862 57.2216 50.8125 58.6854 53.9893 58.6854C57.1854 58.6854 59.0646 57.1577 59.071 54.7607C59.0646 52.581 57.4219 51.424 55.1463 50.9126L53.9702 50.6314C52.8324 50.3693 51.88 49.9474 51.8991 49.0078C51.8991 48.1641 52.647 47.544 54.0021 47.544C55.3253 47.544 56.1371 48.1449 56.2393 49.174ZM66.1039 48.6818H64.2566V46.3295H61.5336V48.6818H60.1912V50.7273H61.5336V55.8409C61.5208 57.7649 62.8311 58.7173 64.8063 58.6342C65.5094 58.6087 66.008 58.468 66.2828 58.3786L65.8546 56.3523C65.7203 56.3778 65.4327 56.4418 65.177 56.4418C64.6337 56.4418 64.2566 56.2372 64.2566 55.483V50.7273H66.1039V48.6818ZM72.2466 58.6918C74.6756 58.6918 76.312 57.5092 76.6955 55.6875L74.177 55.5213C73.9022 56.2692 73.199 56.6591 72.2914 56.6591C70.9299 56.6591 70.0669 55.7578 70.0669 54.294V54.2876H76.753V53.5398C76.753 50.2031 74.7331 48.554 72.138 48.554C69.2488 48.554 67.3759 50.6058 67.3759 53.6357C67.3759 56.7486 69.2232 58.6918 72.2466 58.6918ZM70.0669 52.6001C70.1245 51.4815 70.9746 50.5866 72.1827 50.5866C73.3652 50.5866 74.1834 51.4304 74.1898 52.6001H70.0669ZM78.53 62.1818H81.253V56.9276H81.3361C81.7132 57.7457 82.5378 58.6598 84.123 58.6598C86.3603 58.6598 88.1053 56.8892 88.1053 53.6037C88.1053 50.2287 86.2836 48.554 84.1294 48.554C82.4867 48.554 81.7005 49.532 81.3361 50.331H81.2147V48.6818H78.53V62.1818ZM81.1955 53.5909C81.1955 51.8395 81.937 50.7209 83.2601 50.7209C84.6088 50.7209 85.3248 51.8906 85.3248 53.5909C85.3248 55.304 84.5961 56.4929 83.2601 56.4929C81.9498 56.4929 81.1955 55.3423 81.1955 53.5909Z" fill="white"/>
<path d="M280 52C280 45.3726 285.373 40 292 40H332C338.627 40 344 45.3726 344 52C344 58.6274 338.627 64 332 64H292C285.373 64 280 58.6274 280 52Z" fill="black" fill-opacity="0.2"/>
<g clip-path="url(#clip-form-step)">
<path d="M330.653 49.3465C330.914 49.6068 330.914 50.0289 330.653 50.2893L328.943 51.9997L330.653 53.7101C330.914 53.9705 330.914 54.3926 330.653 54.6529C330.393 54.9133 329.971 54.9133 329.71 54.6529L328 52.9425L326.29 54.6529C326.029 54.9133 325.607 54.9133 325.347 54.6529C325.086 54.3926 325.086 53.9705 325.347 53.7101L327.057 51.9997L325.347 50.2893C325.086 50.0289 325.086 49.6068 325.347 49.3465C325.607 49.0861 326.029 49.0861 326.29 49.3465L328 51.0569L329.71 49.3465C329.971 49.0861 330.393 49.0861 330.653 49.3465Z" fill="white"/>
<path fill-rule="evenodd" clip-rule="evenodd" d="M328 45.333C324.318 45.333 321.333 48.3178 321.333 51.9997C321.333 55.6816 324.318 58.6663 328 58.6663C331.682 58.6663 334.667 55.6816 334.667 51.9997C334.667 48.3178 331.682 45.333 328 45.333ZM322.667 51.9997C322.667 49.0542 325.054 46.6663 328 46.6663C330.945 46.6663 333.333 49.0542 333.333 51.9997C333.333 54.9452 330.945 57.333 328 57.333C325.054 57.333 322.667 54.9452 322.667 51.9997Z" fill="white"/>
</g>
<line x1="311.5" y1="60" x2="311.5" y2="44" stroke="black" stroke-opacity="0.2"/>
<path d="M291.667 53.333C292.219 53.333 292.667 52.8853 292.667 52.333C292.667 51.7807 292.219 51.333 291.667 51.333C291.114 51.333 290.667 51.7807 290.667 52.333C290.667 52.8853 291.114 53.333 291.667 53.333Z" fill="white"/>
<path d="M296 53.333C296.552 53.333 297 52.8853 297 52.333C297 51.7807 296.552 51.333 296 51.333C295.448 51.333 295 51.7807 295 52.333C295 52.8853 295.448 53.333 296 53.333Z" fill="white"/>
<path d="M301.333 52.333C301.333 52.8853 300.885 53.333 300.333 53.333C299.781 53.333 299.333 52.8853 299.333 52.333C299.333 51.7807 299.781 51.333 300.333 51.333C300.885 51.333 301.333 51.7807 301.333 52.333Z" fill="white"/>
<rect width="360" height="24" fill="#1A94FF"/>
<mask id="mask0" style="mask-type:alpha" maskUnits="userSpaceOnUse" x="250" y="6" width="16" height="12">
<path fill-rule="evenodd" clip-rule="evenodd" d="M250 6L258 18L266 6H250Z" fill="white"/>
</mask>
<g mask="url(#mask0)">
<path opacity="0.1" fill-rule="evenodd" clip-rule="evenodd" d="M258 6C251.4 6 246 11.4 246 18C246 24.6 251.4 30 258 30C264.6 30 270 24.6 270 18C270 11.4 264.6 6 258 6ZM258 27C253 27 249 23 249 18C249 13 253 9 258 9C263 9 267 13 267 18C267 23 263 27 258 27Z" fill="white"/>
<path fill-rule="evenodd" clip-rule="evenodd" d="M258 9C253 9 249 13 249 18C249 23 253 27 258 27C263 27 267 23 267 18C267 13 263 9 258 9ZM258 24C254.7 24 252 21.3 252 18C252 14.7 254.7 12 258 12C261.3 12 264 14.7 264 18C264 21.3 261.3 24 258 24Z" fill="white"/>
<path fill-rule="evenodd" clip-rule="evenodd" d="M258 12C254.7 12 252 14.7 252 18C252 21.3 254.7 24 258 24C261.3 24 264 21.3 264 18C264 14.7 261.3 12 258 12ZM258 21C256.3 21 255 19.7 255 18C255 16.3 256.3 15 258 15C259.7 15 261 16.3 261 18C261 19.7 259.7 21 258 21Z" fill="white"/>
<path fill-rule="evenodd" clip-rule="evenodd" d="M258 20C259.657 20 261 18.6569 261 17C261 15.3431 259.657 14 258 14C256.343 14 255 15.3431 255 17C255 18.6569 256.343 20 258 20Z" fill="white"/>
</g>
<mask id="mask1" style="mask-type:alpha" maskUnits="userSpaceOnUse" x="276" y="6" width="12" height="12">
<path fill-rule="evenodd" clip-rule="evenodd" d="M288 18V6L276 18H288Z" fill="white"/>
</mask>
<g mask="url(#mask1)">
<path opacity="0.1" fill-rule="evenodd" clip-rule="evenodd" d="M285 6V18H288V6H285Z" fill="white"/>
<path opacity="0.1" fill-rule="evenodd" clip-rule="evenodd" d="M282 6V18H285V6H282Z" fill="white"/>
<path fill-rule="evenodd" clip-rule="evenodd" d="M279 6V18H282V6H279Z" fill="white"/>
<path fill-rule="evenodd" clip-rule="evenodd" d="M276 6V18H279V6H276Z" fill="white"/>
</g>
<mask id="mask2" style="mask-type:alpha" maskUnits="userSpaceOnUse" x="302" y="5" width="8" height="13">
<path fill-rule="evenodd" clip-rule="evenodd" d="M309 6H308V5H304V6H303C302.4 6 302 6.4 302 7V17C302 17.6 302.4 18 303 18H309C309.6 18 310 17.6 310 17V7C310 6.4 309.6 6 309 6Z" fill="white"/>
</mask>
<g mask="url(#mask2)">
<path fill-rule="evenodd" clip-rule="evenodd" d="M302 15V18H310V15H302Z" fill="white"/>
<path fill-rule="evenodd" clip-rule="evenodd" d="M302 12V15H310V12H302Z" fill="white"/>
<path opacity="0.1" fill-rule="evenodd" clip-rule="evenodd" d="M302 9V12H310V9H302Z" fill="white"/>
<path opacity="0.1" fill-rule="evenodd" clip-rule="evenodd" d="M302 6V9H310V6H302Z" fill="white"/>
<path opacity="0.1" fill-rule="evenodd" clip-rule="evenodd" d="M304 5V6H308V5H304Z" fill="white"/>
</g>
<g opacity="0.9">
<path d="M323.627 17H322.447V9.17334L320.079 10.043V8.97656L323.443 7.71338H323.627V17ZM333.124 17H327.068V16.1558L330.267 12.6011C330.741 12.0636 331.067 11.6278 331.245 11.2935C331.427 10.9549 331.518 10.6058 331.518 10.2461C331.518 9.76367 331.372 9.368 331.08 9.05908C330.788 8.75016 330.398 8.5957 329.912 8.5957C329.328 8.5957 328.873 8.76286 328.547 9.09717C328.225 9.42725 328.064 9.88851 328.064 10.481H326.89C326.89 9.63037 327.163 8.94271 327.709 8.41797C328.259 7.89323 328.993 7.63086 329.912 7.63086C330.771 7.63086 331.45 7.85726 331.949 8.31006C332.449 8.75863 332.698 9.35742 332.698 10.1064C332.698 11.0163 332.118 12.0996 330.959 13.3564L328.483 16.0415H333.124V17ZM334.45 16.3843C334.45 16.1812 334.509 16.0119 334.628 15.8765C334.751 15.741 334.933 15.6733 335.174 15.6733C335.415 15.6733 335.597 15.741 335.72 15.8765C335.847 16.0119 335.91 16.1812 335.91 16.3843C335.91 16.5789 335.847 16.7419 335.72 16.873C335.597 17.0042 335.415 17.0698 335.174 17.0698C334.933 17.0698 334.751 17.0042 334.628 16.873C334.509 16.7419 334.45 16.5789 334.45 16.3843ZM334.457 10.7793C334.457 10.5762 334.516 10.4069 334.634 10.2715C334.757 10.1361 334.939 10.0684 335.18 10.0684C335.421 10.0684 335.603 10.1361 335.726 10.2715C335.853 10.4069 335.917 10.5762 335.917 10.7793C335.917 10.974 335.853 11.1369 335.726 11.2681C335.603 11.3993 335.421 11.4648 335.18 11.4648C334.939 11.4648 334.757 11.3993 334.634 11.2681C334.516 11.1369 334.457 10.974 334.457 10.7793ZM339.224 11.8076H340.106C340.66 11.7992 341.096 11.6532 341.414 11.3696C341.731 11.0861 341.89 10.7031 341.89 10.2207C341.89 9.13737 341.35 8.5957 340.271 8.5957C339.763 8.5957 339.357 8.7417 339.052 9.03369C338.752 9.32145 338.602 9.70443 338.602 10.1826H337.427C337.427 9.45052 337.694 8.84326 338.227 8.36084C338.764 7.87419 339.446 7.63086 340.271 7.63086C341.143 7.63086 341.826 7.86149 342.321 8.32275C342.816 8.78402 343.064 9.42513 343.064 10.2461C343.064 10.6481 342.933 11.0374 342.67 11.4141C342.412 11.7907 342.059 12.0721 341.61 12.2583C342.118 12.4191 342.51 12.6857 342.785 13.0581C343.064 13.4305 343.204 13.8854 343.204 14.4229C343.204 15.2523 342.933 15.9103 342.391 16.397C341.849 16.8836 341.145 17.127 340.277 17.127C339.41 17.127 338.703 16.8921 338.157 16.4224C337.616 15.9526 337.345 15.3327 337.345 14.5625H338.525C338.525 15.0492 338.684 15.4385 339.001 15.7305C339.319 16.0225 339.744 16.1685 340.277 16.1685C340.844 16.1685 341.278 16.0203 341.579 15.7241C341.879 15.4279 342.029 15.0026 342.029 14.4482C342.029 13.9108 341.864 13.4982 341.534 13.2104C341.204 12.9227 340.728 12.7746 340.106 12.7661H339.224V11.8076ZM350.611 13.0581C350.611 14.4334 350.376 15.4554 349.907 16.124C349.437 16.7926 348.703 17.127 347.704 17.127C346.718 17.127 345.988 16.8011 345.514 16.1494C345.04 15.4935 344.795 14.516 344.778 13.2168V11.6489C344.778 10.2905 345.013 9.28125 345.482 8.62109C345.952 7.96094 346.688 7.63086 347.691 7.63086C348.686 7.63086 349.418 7.95036 349.888 8.58936C350.357 9.22412 350.599 10.2059 350.611 11.5347V13.0581ZM349.437 11.4521C349.437 10.4577 349.297 9.73405 349.018 9.28125C348.739 8.82422 348.297 8.5957 347.691 8.5957C347.09 8.5957 346.653 8.8221 346.377 9.2749C346.102 9.7277 345.961 10.4238 345.952 11.3633V13.2422C345.952 14.2409 346.096 14.9793 346.384 15.4575C346.676 15.9315 347.116 16.1685 347.704 16.1685C348.284 16.1685 348.713 15.9442 348.993 15.4956C349.276 15.047 349.424 14.3403 349.437 13.3755V11.4521Z" fill="white"/>
</g>
<defs>
<clipPath id="clip-form-step">
<rect width="13.3333" height="13.3333" fill="white" transform="translate(321.333 45.333)"/>
</clipPath>
</defs>
</svg>
