<svg width="160" height="40" viewBox="0 0 160 40" fill="none" xmlns="http://www.w3.org/2000/svg">
<g clip-path="url(#clip0_1216_7172)">
<path d="M59.0765 13.4863C58.1138 13.4863 57.3333 12.7059 57.3333 11.7432C57.3333 10.7804 58.1138 10 59.0765 10H72.0159C72.9787 10 73.7591 10.7804 73.7591 11.7432C73.7591 12.7059 72.9787 13.4863 72.0159 13.4863H67.636V27.9102C67.636 29.0643 66.7004 30 65.5462 30C64.392 30 63.4564 29.0643 63.4564 27.9102V13.4863H59.0765Z" fill="white"/>
<path d="M77.9118 10C79.0794 10 80.026 10.9466 80.026 12.1143V27.8857C80.026 29.0534 79.0794 30 77.9118 30C76.7441 30 75.7975 29.0534 75.7975 27.8857V12.1143C75.7975 10.9466 76.7441 10 77.9118 10Z" fill="white"/>
<path d="M99.9002 12.1045C99.9002 10.9422 98.958 10 97.7957 10C96.6334 10 95.6912 10.9422 95.6912 12.1045V22.5781H95.5154L87.6069 11.0553C87.1536 10.3948 86.4038 10 85.6026 10C84.2601 10 83.1717 11.0884 83.1717 12.431V27.8857C83.1717 29.0534 84.1183 30 85.2859 30C86.4536 30 87.4002 29.0534 87.4002 27.8857V17.4121H87.5467L95.5334 28.9664C95.9808 29.6137 96.7175 30 97.5043 30C98.8275 30 99.9002 28.9273 99.9002 27.6041V12.1045Z" fill="white"/>
<path d="M105.175 10C106.342 10 107.289 10.9466 107.289 12.1143V27.8857C107.289 29.0534 106.342 30 105.175 30C104.007 30 103.061 29.0534 103.061 27.8857V12.1143C103.061 10.9466 104.007 10 105.175 10Z" fill="white"/>
<path d="M122.319 21.0138L121.107 17.2831H121.03L119.817 21.0138H122.319Z" fill="white"/>
<path d="M129.081 20.0222H130.497C130.898 20.0222 131.228 19.9532 131.488 19.8152C131.751 19.674 131.947 19.4798 132.076 19.2327C132.207 18.9824 132.273 18.6952 132.273 18.3711C132.273 18.0437 132.207 17.7581 132.076 17.5142C131.947 17.2671 131.751 17.0761 131.488 16.9414C131.225 16.8034 130.891 16.7344 130.487 16.7344H129.081V20.0222Z" fill="white"/>
<path d="M139.273 20.0222H137.858V16.7344H139.264C139.668 16.7344 140.002 16.8034 140.265 16.9414C140.528 17.0761 140.724 17.2671 140.852 17.5142C140.984 17.7581 141.05 18.0437 141.05 18.3711C141.05 18.6952 140.984 18.9824 140.852 19.2327C140.724 19.4798 140.528 19.674 140.265 19.8152C140.005 19.9532 139.674 20.0222 139.273 20.0222Z" fill="white"/>
<path fill-rule="evenodd" clip-rule="evenodd" d="M112.444 15.3333C112.444 12.3878 114.832 10 117.778 10H142C144.946 10 147.333 12.3878 147.333 15.3333V24.6667C147.333 27.6122 144.946 30 142 30H117.778C114.832 30 112.444 27.6122 112.444 24.6667V15.3333ZM116.323 24.8889H118.556L119.287 22.6409H122.847L123.577 24.8889H125.81L122.412 15.0303H119.726L116.323 24.8889ZM126.997 15.0303V24.8889H129.081V21.6925H130.834C131.591 21.6925 132.236 21.553 132.769 21.2737C133.305 20.9945 133.714 20.6046 133.996 20.104C134.279 19.6034 134.42 19.0257 134.42 18.3711C134.42 17.7164 134.28 17.1387 134.001 16.6381C133.725 16.1343 133.324 15.7411 132.798 15.4587C132.271 15.1731 131.634 15.0303 130.887 15.0303H126.997ZM135.774 24.8889V15.0303H139.663C140.411 15.0303 141.048 15.1731 141.574 15.4587C142.101 15.7411 142.502 16.1343 142.778 16.6381C143.057 17.1387 143.197 17.7164 143.197 18.3711C143.197 19.0257 143.055 19.6034 142.773 20.104C142.491 20.6046 142.081 20.9945 141.545 21.2737C141.013 21.553 140.368 21.6925 139.61 21.6925H137.858V24.8889H135.774Z" fill="white"/>
</g>
<g clip-path="url(#clip1_1216_7172)">
<path d="M32.8889 6.66663C38.0621 6.66663 42.3178 10.5948 42.8359 15.6311C43.2169 15.5812 43.6055 15.5555 44 15.5555C48.9092 15.5555 52.8889 19.5352 52.8889 24.4444C52.8889 29.3536 48.9092 33.3333 44 33.3333H35.8767C40.0624 32.0538 43.1111 28.1573 43.1111 23.5555C43.1111 17.9145 38.5299 13.3333 32.8889 13.3333C27.2479 13.3333 22.6667 17.9145 22.6667 23.5555C22.6667 28.1573 25.7154 32.0538 29.9011 33.3333H22.8889C17.3661 33.3333 12.8889 28.8561 12.8889 23.3333C12.8889 17.8104 17.3661 13.3333 22.8889 13.3333C23.078 13.3333 23.2659 13.3385 23.4524 13.3489C24.8208 9.45678 28.529 6.66663 32.8889 6.66663Z" fill="white"/>
<path d="M32.8889 32.0004C37.2052 32.0004 40.7157 28.501 40.7157 24.1847C40.7157 23.4341 40.6053 22.7276 40.4176 22.0321H25.3713C25.1726 22.7165 25.0622 23.4341 25.0622 24.1847C25.0622 28.501 28.5616 32.0004 32.8889 32.0004Z" fill="white"/>
</g>
<defs>
<clipPath id="clip0_1216_7172">
<rect width="90" height="40" fill="white" transform="translate(57.3333)"/>
</clipPath>
<clipPath id="clip1_1216_7172">
<rect width="40" height="40" fill="white" transform="translate(12.8889)"/>
</clipPath>
</defs>
</svg>
