<svg width="62" height="40" viewBox="0 0 62 40" fill="none" xmlns="http://www.w3.org/2000/svg">
<g clip-path="url(#clip0)">
<path d="M22.66 0C19.2533 0 16.4867 2.76667 16.4867 6.17333C16.4867 9.58 19.2533 12.3467 22.66 12.3467C26.0667 12.3467 28.8333 9.58 28.8333 6.17333C28.8333 2.76667 26.0667 0 22.66 0ZM22.66 11.2733C20.0533 11.2733 17.9333 9.16 17.9333 6.55333C17.9333 6.1 18 5.67333 18.1133 5.25333H27.2C27.32 5.66667 27.3867 6.1 27.3867 6.55333C27.3867 9.16 25.2733 11.2733 22.66 11.2733Z" fill="white"/>
<path d="M25.3133 17.36C25.3133 17.2267 25.2933 17.1067 25.28 16.98C25.1133 15.6733 24.0067 14.6667 22.66 14.6667H22.6533C21.3067 14.6733 20.2133 15.6733 20.04 16.9733C20.0267 17.1 20.0067 17.22 20.0067 17.36C20.0067 17.3733 20.0067 17.3867 20.0067 17.4V37.2733C20.0067 37.2867 20.0067 37.3 20.0067 37.3133C20.0067 37.44 20.0267 37.56 20.04 37.6867C20.2067 38.9933 21.3067 40 22.6533 40.0067H22.66C24.0133 40.0067 25.12 38.9933 25.2867 37.68C25.3 37.56 25.3133 37.44 25.32 37.3133C25.32 37.3 25.32 37.2867 25.32 37.2733V17.4C25.32 17.3867 25.3133 17.3733 25.3133 17.36Z" fill="white"/>
<path d="M54.84 0C51.4333 0 48.6667 2.76667 48.6667 6.17333C48.6667 9.58 51.4333 12.3467 54.84 12.3467C58.2467 12.3467 61.0133 9.58 61.0133 6.17333C61.0133 2.76667 58.2533 0 54.84 0ZM54.84 11.2733C52.2333 11.2733 50.1133 9.16 50.1133 6.55333C50.1133 6.1 50.18 5.67333 50.2933 5.25333H59.3733C59.4933 5.66667 59.56 6.1 59.56 6.55333C59.5667 9.16 57.4533 11.2733 54.84 11.2733Z" fill="white"/>
<path d="M57.5 17.36C57.5 17.2267 57.48 17.1067 57.4667 16.98C57.2934 15.6733 56.1934 14.6667 54.84 14.6667H54.8334C53.4867 14.6733 52.3934 15.6733 52.22 16.9733C52.2067 17.1 52.1867 17.22 52.1867 17.36C52.1867 17.3733 52.1867 17.3867 52.1867 17.4V37.2733C52.1867 37.2867 52.1867 37.3 52.1867 37.3133C52.1867 37.44 52.2067 37.56 52.22 37.6867C52.3867 38.9933 53.4867 40 54.8334 40.0067H54.84C56.1934 40.0067 57.3 38.9933 57.4667 37.68C57.48 37.56 57.4934 37.44 57.5 37.3133C57.5 37.3 57.5 37.2867 57.5 37.2733V17.4C57.5 17.3867 57.5 17.3733 57.5 17.36Z" fill="white"/>
<path d="M17.82 16.6133C17.82 16.6067 17.82 16.6067 17.82 16.6067C17.5867 15.5 16.6133 14.6733 15.44 14.6733H2.43333C1.26 14.6733 0.28 15.5067 0.0533333 16.6067C0.0533333 16.6133 0.0533333 16.6133 0.0533333 16.6133C0.02 16.7733 0 16.9333 0 17.1C0 18.4467 1.09333 19.5333 2.43333 19.5333H6.27333V37.2467C6.27333 37.2667 6.28 37.2867 6.28 37.3067C6.28 37.4333 6.29333 37.5467 6.30667 37.6667C6.47333 38.98 7.57333 40 8.93333 40C10.2867 40 11.3933 38.98 11.56 37.6667C11.5733 37.5467 11.5867 37.4333 11.5867 37.3067C11.5867 37.2867 11.5933 37.2667 11.5933 37.2467V19.54H15.4333C16.78 19.54 17.8667 18.4467 17.8667 17.1067C17.8667 16.9333 17.8467 16.7733 17.82 16.6133Z" fill="white"/>
<path d="M49.4933 17.4667C49.4933 17.4533 49.4933 17.4467 49.4933 17.4333C49.4933 17.4267 49.4933 17.42 49.4933 17.4067V17.3333H49.4867C49.4533 16.5733 49.1133 15.8933 48.5933 15.4067C48.1 14.9533 47.4467 14.6667 46.72 14.66C46.7133 14.66 46.7067 14.66 46.7 14.66C45.96 14.66 45.2933 14.9533 44.7933 15.42C44.28 15.9067 43.9467 16.58 43.9133 17.3333H43.9V18.6333V19.66V30.14L34.1333 17.2533L33.0533 15.8133L33.04 15.82C32.5333 15.1267 31.7267 14.6667 30.8 14.6667C30.5867 14.6667 30.3733 14.7 30.1733 14.74C29.4933 14.8933 28.9067 15.3 28.5133 15.8533C28.2 16.3 28.0067 16.84 28 17.4333C28 17.44 28 17.44 28 17.4467V18.4333V18.86V35.8867C28 35.9533 28.0067 36.0133 28.0067 36.08H28V37.1533C28 37.16 28 37.16 28 37.1667C28 37.1733 28 37.18 28 37.1867V37.2667H28.0067C28.0133 37.3667 28.02 37.46 28.0333 37.56C28.2133 38.9333 29.3667 40 30.7933 40.0067H30.8C32.2267 40.0067 33.3933 38.9333 33.5667 37.56C33.58 37.4667 33.5867 37.3733 33.5933 37.2733H33.6V37.22C33.6 37.2067 33.6067 37.1933 33.6067 37.1733C33.6067 37.16 33.6 37.1533 33.6 37.14V36.0867H33.5933C33.5933 36.02 33.6 35.9667 33.6 35.8933V24.5867L43.7267 37.96C44.2733 38.68 44.7867 39.1933 45.32 39.5267C45.66 39.76 46.0533 39.9067 46.48 39.9667C46.52 39.9733 46.5667 39.9733 46.6067 39.98C46.68 39.9867 46.7533 40 46.8333 40C46.8467 40 46.86 39.9933 46.8733 39.9933C47.88 39.98 48.74 39.4 49.18 38.5667C49.3733 38.1933 49.5 37.78 49.5 37.3333V36.5067V35.92V18.64C49.5 18.62 49.5 18.6 49.5 18.58V17.4667H49.4933Z" fill="white"/>
</g>
<defs>
<clipPath id="clip0">
<rect width="61.0133" height="40" fill="white"/>
</clipPath>
</defs>
</svg>
