<svg width="120" height="40" viewBox="0 0 120 40" fill="none" xmlns="http://www.w3.org/2000/svg">
<g clip-path="url(#clip0)">
<path d="M57.3333 11.7432C57.3333 12.7059 58.1138 13.4863 59.0765 13.4863H63.4564V27.9102C63.4564 29.0643 64.392 30 65.5462 30C66.7004 30 67.6361 29.0643 67.6361 27.9102V13.4863H72.0159C72.9787 13.4863 73.7591 12.7059 73.7591 11.7432C73.7591 10.7804 72.9787 10 72.0159 10H59.0765C58.1138 10 57.3333 10.7804 57.3333 11.7432Z" fill="white"/>
<path d="M80.026 12.1143C80.026 10.9466 79.0794 10 77.9118 10C76.7441 10 75.7975 10.9466 75.7975 12.1143V27.8857C75.7975 29.0534 76.7441 30 77.9118 30C79.0794 30 80.026 29.0534 80.026 27.8857V12.1143Z" fill="white"/>
<path d="M99.9002 12.1045C99.9002 10.9422 98.958 10 97.7957 10C96.6335 10 95.6912 10.9422 95.6912 12.1045V22.5781H95.5155L87.607 11.0553C87.1536 10.3948 86.4038 10 85.6027 10C84.2601 10 83.1717 11.0884 83.1717 12.431V27.8857C83.1717 29.0534 84.1183 30 85.286 30C86.4536 30 87.4002 29.0534 87.4002 27.8857V17.4121H87.5467L95.5335 28.9664C95.9808 29.6137 96.7175 30 97.5043 30C98.8275 30 99.9002 28.9273 99.9002 27.6041V12.1045Z" fill="white"/>
<path d="M107.289 12.1143C107.289 10.9466 106.342 10 105.175 10C104.007 10 103.061 10.9466 103.061 12.1143V27.8857C103.061 29.0534 104.007 30 105.175 30C106.342 30 107.289 29.0534 107.289 27.8857V12.1143Z" fill="white"/>
</g>
<g clip-path="url(#clip1)">
<path d="M32.8889 6.66667C38.0621 6.66667 42.3178 10.5948 42.8359 15.6311C43.2169 15.5813 43.6054 15.5556 44 15.5556C48.9092 15.5556 52.8889 19.5353 52.8889 24.4444C52.8889 29.3536 48.9092 33.3333 44 33.3333H35.8767C40.0624 32.0538 43.1111 28.1573 43.1111 23.5556C43.1111 17.9146 38.5299 13.3333 32.8889 13.3333C27.2479 13.3333 22.6667 17.9146 22.6667 23.5556C22.6667 28.1573 25.7154 32.0538 29.9011 33.3333H22.8889C17.366 33.3333 12.8889 28.8562 12.8889 23.3333C12.8889 17.8105 17.366 13.3333 22.8889 13.3333C23.078 13.3333 23.2659 13.3386 23.4524 13.3489C24.8208 9.45682 28.529 6.66667 32.8889 6.66667Z" fill="white"/>
<path d="M32.8889 32.0005C37.2052 32.0005 40.7157 28.5011 40.7157 24.1848C40.7157 23.4341 40.6053 22.7276 40.4176 22.0322H25.3713C25.1726 22.7166 25.0622 23.4341 25.0622 24.1848C25.0622 28.5011 28.5616 32.0005 32.8889 32.0005Z" fill="white"/>
</g>
<defs>
<clipPath id="clip0">
<rect width="50" height="40" fill="white" transform="translate(57.3333)"/>
</clipPath>
<clipPath id="clip1">
<rect width="40" height="40" fill="white" transform="translate(12.8889)"/>
</clipPath>
</defs>
</svg>
