<svg width="208" height="208" viewBox="0 0 208 208" fill="none" xmlns="http://www.w3.org/2000/svg">
<path d="M104 208C161.438 208 208 161.438 208 104C208 46.5624 161.438 0 104 0C46.5625 0 0.00012207 46.5624 0.00012207 104C0.00012207 161.438 46.5625 208 104 208Z" fill="#EBEBF0"/>
<mask id="mask0" mask-type="alpha" maskUnits="userSpaceOnUse" x="0" y="0" width="208" height="208">
<path d="M104 208C161.438 208 208 161.438 208 104C208 46.5624 161.438 0 104 0C46.5624 0 0 46.5624 0 104C0 161.438 46.5624 208 104 208Z" fill="#F5F5FA"/>
</mask>
<g mask="url(#mask0)">
<path d="M142.135 137.3C142.135 137.3 158.119 156.236 181.938 168.58C181.938 168.58 179.954 172.556 172.641 177.159C158.432 186.156 152.373 180.821 141.508 192.747C134.717 200.07 117.897 192.956 112.465 199.965C112.465 199.965 103.898 189.085 108.495 149.331C111.107 127.257 142.135 137.3 142.135 137.3Z" fill="#FFD52E"/>
<path d="M151.119 179.356C147.985 189.608 138.792 192.747 126.464 191.282C128.031 198.292 129.494 205.824 129.389 206.033C128.553 208.963 124.166 210.323 120.927 209.486C113.301 207.603 108.39 197.664 103.689 186.365C102.853 184.482 102.018 182.494 101.495 180.821C92.9286 167.743 104.212 141.275 104.212 141.275C108.599 138.242 144.329 139.288 148.403 140.962C152.582 142.635 153.94 172.451 151.119 179.356Z" fill="#1A94FF"/>
<path d="M105.047 143.159C105.047 143.159 89.8989 120.352 81.1233 111.564C72.3477 102.777 56.0501 110.414 73.4969 134.685C87.0782 153.62 100.555 161.153 100.555 161.153" fill="#008AE8"/>
<path d="M128.136 176.741C109.644 176.636 98.8835 173.602 98.2567 173.393L99.0924 170.882C99.3014 170.882 119.882 176.636 152.477 172.765L152.791 175.485C143.597 176.427 135.24 176.741 128.136 176.741Z" fill="white"/>
<path d="M135.24 180.193C143.806 192.015 126.986 203.941 119.778 193.061C111.942 181.448 120.196 168.371 128.762 168.162C137.225 168.162 142.448 176.322 142.448 176.322" fill="#008AE8"/>
<path d="M144.955 40.1109C176.715 44.191 199.385 72.6468 195.52 103.927C191.863 135.103 163.029 157.177 131.374 153.097C99.6148 149.017 76.9445 120.561 80.8099 89.2808C84.4664 58.105 113.301 36.1355 144.955 40.1109Z" fill="url(#paint0_linear)"/>
<path d="M160.048 53.399V53.1627C160.403 51.7447 162.057 51.0357 163.357 51.6265C176.001 57.2986 180.61 67.9337 182.028 72.1878C182.382 73.2513 181.91 74.433 180.846 74.9057C179.546 75.4965 178.128 75.0239 177.655 73.724C174.229 64.9795 164.775 58.0076 161.112 55.8806C160.285 55.2897 159.812 54.3444 160.048 53.399Z" fill="url(#paint1_linear)"/>
<path d="M152.84 50.0902C153.195 48.554 154.613 47.7269 156.031 48.0814C157.567 48.4359 158.394 49.8539 158.04 51.2719C157.685 52.8081 156.267 53.6353 154.849 53.2808C153.431 52.9263 152.604 51.5083 152.84 50.0902Z" fill="#BBF2FF"/>
<path d="M100.868 139.602C109.122 146.716 119.569 151.528 131.374 153.097C163.029 157.177 191.863 135.208 195.52 103.927C198.027 82.8992 188.52 63.1266 172.431 51.2003C187.266 63.1266 195.729 82.1669 193.326 102.253C189.669 133.429 160.835 155.503 129.18 151.423C118.524 149.959 108.808 145.774 100.868 139.602Z" fill="#008AE8"/>
<path fill-rule="evenodd" clip-rule="evenodd" d="M124.583 143.368C149.761 149.854 175.461 134.789 181.834 109.681C182.67 106.229 183.505 101.939 183.192 96.7086C170.551 91.8962 156.238 87.2931 140.463 83.1084C124.27 78.9237 109.331 75.9944 95.6448 74.1113C93.6598 77.7729 91.8838 81.7484 90.7346 86.1423C84.3619 111.25 99.5102 136.881 124.583 143.368Z" fill="white"/>
<path d="M136.284 181.134C137.433 192.747 126.359 200.907 120.718 191.701C115.077 182.39 121.658 170.254 128.762 170.254C135.866 170.045 142.448 176.322 142.448 176.322" fill="#1A94FF"/>
<path d="M134.195 153.934C134.195 153.934 132.001 136.359 128.658 129.245L87.9139 131.023C87.9139 131.023 94.3911 152.051 98.7789 171.51H134.299V153.934H134.195Z" fill="#94CDFF"/>
<path d="M133.045 154.771C133.045 154.771 129.911 137.3 126.255 130.395L85.6154 134.161C85.6154 134.161 93.1374 154.876 98.4654 174.125L133.881 172.347L133.045 154.771Z" fill="white"/>
<path d="M144.433 176.74C144.433 176.74 154.985 169.731 151.224 159.897C147.463 150.063 123.33 139.497 120.613 156.026C119.255 164.291 137.329 171.614 137.329 171.614" fill="#1A94FF"/>
<path d="M66.7061 127.152L64.9301 125.792L62.8406 126.315L64.0943 129.663L66.7061 127.152Z" fill="#94CDFF"/>
<path d="M69.7357 124.327L61.378 122.34L62.8406 126.315L66.706 127.152L69.7357 124.327Z" fill="white"/>
<path d="M67.4373 95.9763L66.3926 100.684L74.8548 102.672L75.8995 97.964C76.1084 97.2317 75.5861 96.604 74.9592 96.3947L69.0044 94.9301C68.2731 94.8255 67.5418 95.2439 67.4373 95.9763Z" fill="#94CDFF"/>
<path d="M74.7503 102.672L70.5715 101.626L66.2882 100.684L61.378 122.34L66.4971 123.595L69.7357 124.327L74.7503 102.672Z" fill="#FFD52E"/>
<path d="M66.4895 100.054L66.2078 101.277L74.6569 103.228L74.9386 102.005L66.4895 100.054Z" fill="white"/>
<path d="M-2.40002 168.8H220.8V275.2H6.04442L-2.40002 168.8Z" fill="#94CDFF"/>
<path d="M61.8353 166.072H5.80401L0.0479813 129.917C-0.31177 127.669 1.39705 125.6 3.6455 125.6H52.122C53.9208 125.6 55.4497 126.949 55.8095 128.658L61.8353 166.072Z" fill="#BBF2FF"/>
<path d="M49.6937 125.6H3.6455C1.39705 125.6 -0.31177 127.669 0.0479813 129.917L5.80401 166.072H59.3171L53.3812 128.658C53.1113 126.949 51.5824 125.6 49.6937 125.6Z" fill="#1A94FF"/>
<path d="M29.6375 141.519C27.2991 141.519 25.3204 143.408 25.3204 145.836C25.3204 148.174 27.2091 150.153 29.6375 150.153C32.0658 150.153 33.9545 148.264 33.9545 145.836C33.9545 143.498 32.0658 141.519 29.6375 141.519ZM29.6375 149.254C27.7488 149.254 26.2198 147.725 26.2198 145.836H33.0551C33.0551 147.725 31.5261 149.254 29.6375 149.254Z" fill="white"/>
<path d="M83.2405 166.072H61.8353V169.04H83.2405V166.072Z" fill="#1A94FF"/>
<path d="M6.34364 168.95H61.8353V166.072H5.80402L6.34364 168.95Z" fill="#008AE8"/>
</g>
<defs>
<linearGradient id="paint0_linear" x1="114.912" y1="149.004" x2="161.807" y2="44.4124" gradientUnits="userSpaceOnUse">
<stop stop-color="#1BA8FF"/>
<stop offset="0.9986" stop-color="#4ACAFF"/>
</linearGradient>
<linearGradient id="paint1_linear" x1="182.579" y1="73.3554" x2="160.982" y2="51.7585" gradientUnits="userSpaceOnUse">
<stop stop-color="#E1FFFC" stop-opacity="0"/>
<stop offset="1" stop-color="#BBF2FF"/>
</linearGradient>
</defs>
</svg>
