<svg width="520" height="230" viewBox="0 0 520 230" fill="none" xmlns="http://www.w3.org/2000/svg">
<g opacity="0.2">
<path d="M261 118.691C289.537 118.691 312.671 95.5571 312.671 67.0203C312.671 38.4834 289.537 15.3497 261 15.3497C232.463 15.3497 209.329 38.4834 209.329 67.0203C209.329 95.5571 232.463 118.691 261 118.691Z" stroke="#7835B7" stroke-width="2" stroke-linecap="round" stroke-linejoin="round"/>
<path d="M260.262 214.65C286.76 214.65 308.242 193.169 308.242 166.671C308.242 140.172 286.76 118.691 260.262 118.691C233.763 118.691 212.282 140.172 212.282 166.671C212.282 193.169 233.763 214.65 260.262 214.65Z" stroke="#7835B7" stroke-width="2" stroke-linecap="round" stroke-linejoin="round"/>
<path d="M264.691 115C264.691 86.4631 241.557 63.3295 213.02 63.3295C184.483 63.3295 161.35 86.4631 161.35 115C161.35 143.537 184.483 166.671 213.02 166.671C241.557 166.671 264.691 143.537 264.691 115Z" stroke="#7835B7" stroke-width="2" stroke-linecap="round" stroke-linejoin="round"/>
<path d="M360.65 115.738C360.65 89.2396 339.169 67.7583 312.671 67.7583C286.172 67.7583 264.691 89.2396 264.691 115.738C264.691 142.237 286.172 163.718 312.671 163.718C339.169 163.718 360.65 142.237 360.65 115.738Z" stroke="#7835B7" stroke-width="2" stroke-linecap="round" stroke-linejoin="round"/>
<g opacity="0.7">
<path d="M263.61 117.61C283.788 97.4312 283.788 64.7153 263.61 44.5367C243.431 24.3581 210.715 24.358 190.537 44.5367C170.358 64.7153 170.358 97.4312 190.537 117.61C210.715 137.788 243.431 137.788 263.61 117.61Z" stroke="#7835B7" stroke-width="2" stroke-linecap="round" stroke-linejoin="round"/>
<path d="M330.941 185.985C349.679 167.248 349.679 136.869 330.941 118.132C312.204 99.3945 281.825 99.3945 263.088 118.132C244.351 136.869 244.351 167.248 263.088 185.985C281.825 204.723 312.204 204.723 330.941 185.985Z" stroke="#7835B7" stroke-width="2" stroke-linecap="round" stroke-linejoin="round"/>
</g>
<g opacity="0.4">
<path d="M264.345 116.56C276.405 90.6967 265.216 59.9537 239.352 47.8936C213.489 35.8334 182.746 47.0229 170.686 72.886C158.626 98.7492 169.815 129.492 195.679 141.552C221.542 153.613 252.285 142.423 264.345 116.56Z" stroke="#7835B7" stroke-width="2" stroke-linecap="round" stroke-linejoin="round"/>
<path d="M351.002 157.783C362.201 133.767 351.81 105.22 327.795 94.0215C303.779 82.8227 275.232 93.213 264.033 117.229C252.834 141.245 263.225 169.792 287.24 180.99C311.256 192.189 339.803 181.799 351.002 157.783Z" stroke="#7835B7" stroke-width="2" stroke-linecap="round" stroke-linejoin="round"/>
</g>
<g opacity="0.4">
<path d="M262.56 118.345C288.423 106.285 299.612 75.5419 287.552 49.6788C275.492 23.8156 244.749 12.6261 218.886 24.6863C193.023 36.7465 181.833 67.4894 193.893 93.3526C205.954 119.216 236.697 130.405 262.56 118.345Z" stroke="#7835B7" stroke-width="2" stroke-linecap="round" stroke-linejoin="round"/>
<path d="M302.445 205.626C326.461 194.427 336.851 165.88 325.652 141.864C314.454 117.848 285.907 107.458 261.891 118.657C237.875 129.856 227.485 158.403 238.683 182.419C249.882 206.434 278.429 216.825 302.445 205.626Z" stroke="#7835B7" stroke-width="2" stroke-linecap="round" stroke-linejoin="round"/>
</g>
<g opacity="0.7">
<path d="M258.39 117.61C278.569 137.788 311.285 137.788 331.463 117.61C351.642 97.4312 351.642 64.7152 331.463 44.5366C311.285 24.358 278.569 24.358 258.39 44.5366C238.212 64.7152 238.212 97.4312 258.39 117.61Z" stroke="#7835B7" stroke-width="2" stroke-linecap="round" stroke-linejoin="round"/>
<path d="M190.015 184.941C208.752 203.679 239.131 203.679 257.868 184.941C276.606 166.204 276.606 135.825 257.868 117.088C239.131 98.3504 208.752 98.3504 190.015 117.088C171.277 135.825 171.277 166.204 190.015 184.941Z" stroke="#7835B7" stroke-width="2" stroke-linecap="round" stroke-linejoin="round"/>
</g>
<g opacity="0.4">
<path d="M257.655 116.56C269.715 142.423 300.458 153.612 326.321 141.552C352.185 129.492 363.374 98.7491 351.314 72.8859C339.254 47.0228 308.511 35.8332 282.648 47.8934C256.784 59.9536 245.595 90.6966 257.655 116.56Z" stroke="#7835B7" stroke-width="2" stroke-linecap="round" stroke-linejoin="round"/>
<path d="M170.374 156.445C181.573 180.461 210.12 190.851 234.136 179.652C258.152 168.454 268.542 139.906 257.343 115.891C246.144 91.8749 217.597 81.4846 193.581 92.6834C169.566 103.882 159.175 132.429 170.374 156.445Z" stroke="#7835B7" stroke-width="2" stroke-linecap="round" stroke-linejoin="round"/>
</g>
<g opacity="0.4">
<path d="M259.44 118.345C285.303 130.405 316.046 119.216 328.107 93.3525C340.167 67.4893 328.977 36.7463 303.114 24.6862C277.251 12.626 246.508 23.8155 234.448 49.6787C222.388 75.5418 233.577 106.285 259.44 118.345Z" stroke="#7835B7" stroke-width="2" stroke-linecap="round" stroke-linejoin="round"/>
<path d="M218.217 205.002C242.233 216.201 270.78 205.81 281.979 181.795C293.177 157.779 282.787 129.232 258.771 118.033C234.755 106.834 206.208 117.225 195.01 141.24C183.811 165.256 194.201 193.803 218.217 205.002Z" stroke="#7835B7" stroke-width="2" stroke-linecap="round" stroke-linejoin="round"/>
</g>
</g>
<path d="M221 83C221 78.5817 224.582 75 229 75H293C297.418 75 301 78.5817 301 83V147C301 151.418 297.418 155 293 155H229C224.582 155 221 151.418 221 147V83Z" fill="url(#svg-tini)"/>
<g clip-path="url(#clip-tini)">
<path d="M253.284 95C249.934 95 247.213 97.7207 247.213 101.071C247.213 104.421 249.934 107.142 253.284 107.142C256.634 107.142 259.354 104.421 259.354 101.071C259.354 97.7207 256.634 95 253.284 95ZM253.284 106.086C250.72 106.086 248.636 104.008 248.636 101.444C248.636 100.999 248.701 100.579 248.813 100.166H257.748C257.866 100.573 257.932 100.999 257.932 101.444C257.932 104.008 255.854 106.086 253.284 106.086Z" fill="white"/>
<path d="M255.893 112.072C255.893 111.941 255.873 111.823 255.86 111.698C255.696 110.413 254.608 109.423 253.284 109.423H253.277C251.953 109.43 250.878 110.413 250.707 111.691C250.694 111.816 250.674 111.934 250.674 112.072C250.674 112.085 250.674 112.098 250.674 112.111V131.654C250.674 131.667 250.674 131.681 250.674 131.694C250.674 131.818 250.694 131.936 250.707 132.061C250.871 133.346 251.953 134.336 253.277 134.342H253.284C254.615 134.342 255.703 133.346 255.867 132.054C255.88 131.936 255.893 131.818 255.9 131.694C255.9 131.681 255.9 131.667 255.9 131.654V112.111C255.9 112.098 255.893 112.085 255.893 112.072Z" fill="white"/>
<path d="M284.929 95C281.579 95 278.858 97.7207 278.858 101.071C278.858 104.421 281.579 107.142 284.929 107.142C288.279 107.142 291 104.421 291 101.071C291 97.7207 288.286 95 284.929 95ZM284.929 106.086C282.366 106.086 280.281 104.008 280.281 101.444C280.281 100.999 280.347 100.579 280.458 100.166H289.387C289.505 100.573 289.571 100.999 289.571 101.444C289.577 104.008 287.499 106.086 284.929 106.086Z" fill="white"/>
<path d="M287.545 112.072C287.545 111.941 287.525 111.823 287.512 111.698C287.342 110.413 286.26 109.423 284.929 109.423H284.923C283.598 109.43 282.523 110.413 282.353 111.691C282.34 111.816 282.32 111.934 282.32 112.072C282.32 112.085 282.32 112.098 282.32 112.111V131.654C282.32 131.667 282.32 131.681 282.32 131.694C282.32 131.818 282.34 131.936 282.353 132.061C282.517 133.346 283.598 134.336 284.923 134.342H284.929C286.26 134.342 287.348 133.346 287.512 132.054C287.525 131.936 287.538 131.818 287.545 131.694C287.545 131.681 287.545 131.667 287.545 131.654V112.111C287.545 112.098 287.545 112.085 287.545 112.072Z" fill="white"/>
<path d="M248.524 111.337C248.524 111.331 248.524 111.331 248.524 111.331C248.295 110.243 247.337 109.43 246.184 109.43H233.393C232.239 109.43 231.275 110.249 231.052 111.331C231.052 111.337 231.052 111.337 231.052 111.337C231.02 111.495 231 111.652 231 111.816C231 113.14 232.075 114.209 233.393 114.209H237.169V131.628C237.169 131.648 237.176 131.667 237.176 131.687C237.176 131.812 237.189 131.923 237.202 132.041C237.366 133.333 238.448 134.336 239.785 134.336C241.116 134.336 242.204 133.333 242.368 132.041C242.381 131.923 242.394 131.812 242.394 131.687C242.394 131.667 242.401 131.648 242.401 131.628V114.216H246.177C247.501 114.216 248.57 113.14 248.57 111.823C248.57 111.652 248.55 111.495 248.524 111.337Z" fill="white"/>
<path d="M279.671 112.177C279.671 112.163 279.671 112.157 279.671 112.144C279.671 112.137 279.671 112.131 279.671 112.118V112.045H279.665C279.632 111.298 279.298 110.629 278.786 110.151C278.301 109.705 277.659 109.423 276.944 109.417C276.938 109.417 276.931 109.417 276.924 109.417C276.197 109.417 275.541 109.705 275.049 110.164C274.545 110.642 274.217 111.305 274.184 112.045H274.171V113.324V114.333V124.639L264.566 111.967L263.504 110.551L263.491 110.557C262.993 109.875 262.2 109.423 261.288 109.423C261.079 109.423 260.869 109.456 260.672 109.495C260.004 109.646 259.427 110.046 259.04 110.59C258.732 111.029 258.542 111.56 258.535 112.144C258.535 112.15 258.535 112.15 258.535 112.157V113.127V113.547V130.291C258.535 130.356 258.542 130.415 258.542 130.481H258.535V131.536C258.535 131.543 258.535 131.543 258.535 131.549C258.535 131.556 258.535 131.562 258.535 131.569V131.648H258.542C258.548 131.746 258.555 131.838 258.568 131.936C258.745 133.287 259.879 134.336 261.282 134.342H261.288C262.691 134.342 263.839 133.287 264.009 131.936C264.022 131.844 264.029 131.753 264.035 131.654H264.042V131.602C264.042 131.589 264.049 131.576 264.049 131.556C264.049 131.543 264.042 131.536 264.042 131.523V130.487H264.035C264.035 130.422 264.042 130.369 264.042 130.297V119.178L274 132.33C274.538 133.038 275.043 133.542 275.567 133.87C275.902 134.1 276.288 134.244 276.708 134.303C276.747 134.309 276.793 134.309 276.833 134.316C276.905 134.323 276.977 134.336 277.056 134.336C277.069 134.336 277.082 134.329 277.095 134.329C278.085 134.316 278.931 133.746 279.363 132.926C279.553 132.559 279.678 132.153 279.678 131.713V130.9V130.323V113.33C279.678 113.311 279.678 113.291 279.678 113.271V112.177H279.671Z" fill="white"/>
</g>
<defs>
<linearGradient id="svg-tini" x1="261" y1="75" x2="261" y2="155" gradientUnits="userSpaceOnUse">
<stop stop-color="#1BA8FF"/>
<stop offset="1" stop-color="#1B69FF"/>
</linearGradient>
<clipPath id="clip-tini">
<rect width="60" height="39.3357" fill="white" transform="translate(231 95)"/>
</clipPath>
</defs>
</svg>
