<svg width="520" height="230" viewBox="0 0 520 230" fill="none" xmlns="http://www.w3.org/2000/svg">
<g opacity="0.2">
<path d="M261 118.691C289.537 118.691 312.671 95.5571 312.671 67.0203C312.671 38.4834 289.537 15.3497 261 15.3497C232.463 15.3497 209.329 38.4834 209.329 67.0203C209.329 95.5571 232.463 118.691 261 118.691Z" stroke="#7835B7" stroke-width="2" stroke-linecap="round" stroke-linejoin="round"/>
<path d="M260.262 214.65C286.76 214.65 308.242 193.169 308.242 166.671C308.242 140.172 286.76 118.691 260.262 118.691C233.763 118.691 212.282 140.172 212.282 166.671C212.282 193.169 233.763 214.65 260.262 214.65Z" stroke="#7835B7" stroke-width="2" stroke-linecap="round" stroke-linejoin="round"/>
<path d="M264.691 115C264.691 86.4631 241.557 63.3295 213.02 63.3295C184.483 63.3295 161.35 86.4631 161.35 115C161.35 143.537 184.483 166.671 213.02 166.671C241.557 166.671 264.691 143.537 264.691 115Z" stroke="#7835B7" stroke-width="2" stroke-linecap="round" stroke-linejoin="round"/>
<path d="M360.65 115.738C360.65 89.2396 339.169 67.7583 312.671 67.7583C286.172 67.7583 264.691 89.2396 264.691 115.738C264.691 142.237 286.172 163.718 312.671 163.718C339.169 163.718 360.65 142.237 360.65 115.738Z" stroke="#7835B7" stroke-width="2" stroke-linecap="round" stroke-linejoin="round"/>
<g opacity="0.7">
<path d="M263.61 117.61C283.788 97.4312 283.788 64.7153 263.61 44.5367C243.431 24.3581 210.715 24.358 190.537 44.5367C170.358 64.7153 170.358 97.4312 190.537 117.61C210.715 137.788 243.431 137.788 263.61 117.61Z" stroke="#7835B7" stroke-width="2" stroke-linecap="round" stroke-linejoin="round"/>
<path d="M330.941 185.985C349.679 167.248 349.679 136.869 330.941 118.132C312.204 99.3945 281.825 99.3945 263.088 118.132C244.351 136.869 244.351 167.248 263.088 185.985C281.825 204.723 312.204 204.723 330.941 185.985Z" stroke="#7835B7" stroke-width="2" stroke-linecap="round" stroke-linejoin="round"/>
</g>
<g opacity="0.4">
<path d="M264.345 116.56C276.405 90.6967 265.216 59.9537 239.352 47.8936C213.489 35.8334 182.746 47.0229 170.686 72.886C158.626 98.7492 169.815 129.492 195.679 141.552C221.542 153.613 252.285 142.423 264.345 116.56Z" stroke="#7835B7" stroke-width="2" stroke-linecap="round" stroke-linejoin="round"/>
<path d="M351.002 157.783C362.201 133.767 351.81 105.22 327.795 94.0215C303.779 82.8227 275.232 93.213 264.033 117.229C252.834 141.245 263.225 169.792 287.24 180.99C311.256 192.189 339.803 181.799 351.002 157.783Z" stroke="#7835B7" stroke-width="2" stroke-linecap="round" stroke-linejoin="round"/>
</g>
<g opacity="0.4">
<path d="M262.56 118.345C288.423 106.285 299.612 75.5419 287.552 49.6788C275.492 23.8156 244.749 12.6261 218.886 24.6863C193.023 36.7465 181.833 67.4894 193.893 93.3526C205.954 119.216 236.697 130.405 262.56 118.345Z" stroke="#7835B7" stroke-width="2" stroke-linecap="round" stroke-linejoin="round"/>
<path d="M302.445 205.626C326.461 194.427 336.851 165.88 325.652 141.864C314.454 117.848 285.907 107.458 261.891 118.657C237.875 129.856 227.485 158.403 238.683 182.419C249.882 206.434 278.429 216.825 302.445 205.626Z" stroke="#7835B7" stroke-width="2" stroke-linecap="round" stroke-linejoin="round"/>
</g>
<g opacity="0.7">
<path d="M258.39 117.61C278.569 137.788 311.285 137.788 331.463 117.61C351.642 97.4312 351.642 64.7152 331.463 44.5366C311.285 24.358 278.569 24.358 258.39 44.5366C238.212 64.7152 238.212 97.4312 258.39 117.61Z" stroke="#7835B7" stroke-width="2" stroke-linecap="round" stroke-linejoin="round"/>
<path d="M190.015 184.941C208.752 203.679 239.131 203.679 257.868 184.941C276.606 166.204 276.606 135.825 257.868 117.088C239.131 98.3504 208.752 98.3504 190.015 117.088C171.277 135.825 171.277 166.204 190.015 184.941Z" stroke="#7835B7" stroke-width="2" stroke-linecap="round" stroke-linejoin="round"/>
</g>
<g opacity="0.4">
<path d="M257.655 116.56C269.715 142.423 300.458 153.612 326.321 141.552C352.185 129.492 363.374 98.7491 351.314 72.8859C339.254 47.0228 308.511 35.8332 282.648 47.8934C256.784 59.9536 245.595 90.6966 257.655 116.56Z" stroke="#7835B7" stroke-width="2" stroke-linecap="round" stroke-linejoin="round"/>
<path d="M170.374 156.445C181.573 180.461 210.12 190.851 234.136 179.652C258.152 168.454 268.542 139.906 257.343 115.891C246.144 91.8749 217.597 81.4846 193.581 92.6834C169.566 103.882 159.175 132.429 170.374 156.445Z" stroke="#7835B7" stroke-width="2" stroke-linecap="round" stroke-linejoin="round"/>
</g>
<g opacity="0.4">
<path d="M259.44 118.345C285.303 130.405 316.046 119.216 328.107 93.3525C340.167 67.4893 328.977 36.7463 303.114 24.6862C277.251 12.626 246.508 23.8155 234.448 49.6787C222.388 75.5418 233.577 106.285 259.44 118.345Z" stroke="#7835B7" stroke-width="2" stroke-linecap="round" stroke-linejoin="round"/>
<path d="M218.217 205.002C242.233 216.201 270.78 205.81 281.979 181.795C293.177 157.779 282.787 129.232 258.771 118.033C234.755 106.834 206.208 117.225 195.01 141.24C183.811 165.256 194.201 193.803 218.217 205.002Z" stroke="#7835B7" stroke-width="2" stroke-linecap="round" stroke-linejoin="round"/>
</g>
</g>
<rect x="221" y="75" width="80" height="80" rx="8" fill="url(#paint0_linear)"/>
<g clip-path="url(#clip0)">
<path d="M236.033 112.713H232.687C231.213 112.713 230.6 111.635 230.6 110.584C230.6 109.506 231.369 108.457 232.687 108.457H243.984C245.304 108.457 246.07 109.506 246.07 110.584C246.07 111.634 245.456 112.713 243.984 112.713H240.638V128.196C240.638 129.738 239.657 130.6 238.335 130.6C237.014 130.6 236.033 129.738 236.033 128.196V112.713Z" fill="white"/>
<path d="M247.666 110.677C247.666 109.135 248.649 108.271 249.967 108.271C251.288 108.271 252.27 109.135 252.27 110.677V128.196C252.27 129.737 251.288 130.6 249.967 130.6C248.649 130.6 247.666 129.737 247.666 128.196V110.677Z" fill="white"/>
<path d="M249.966 105.612C247.705 105.612 245.876 103.77 245.876 101.502C245.876 101.111 245.933 100.736 246.035 100.374H253.901C254.004 100.736 254.062 101.111 254.062 101.502C254.062 103.77 252.23 105.612 249.966 105.612ZM249.966 95.8C247.015 95.8 244.624 98.2048 244.624 101.171C244.624 104.136 247.015 106.541 249.966 106.541C252.918 106.541 255.312 104.136 255.312 101.171C255.312 98.2048 252.918 95.8 249.966 95.8Z" fill="white"/>
<path d="M289.239 108.271C290.335 108.271 291.4 109.342 291.4 110.413C291.4 111.392 290.882 112.064 290.275 112.921L285.28 120.078V127.082C285.28 129.437 284.489 130.601 282.816 130.601C281.141 130.601 280.35 129.437 280.35 127.082V120.079L275.358 112.983C274.749 112.127 274.263 111.452 274.263 110.473C274.263 109.372 275.205 108.304 276.637 108.304C277.487 108.304 278.28 108.944 279.163 110.199L282.846 115.491L286.591 110.137C287.442 108.914 288.386 108.271 289.239 108.271Z" fill="white"/>
<path d="M270.435 108.457C270.433 108.457 270.432 108.457 270.43 108.457C270.428 108.457 270.427 108.457 270.425 108.457C270.405 108.457 270.385 108.458 270.366 108.458C270.348 108.459 270.33 108.459 270.312 108.459C270.157 108.465 270.011 108.484 269.873 108.515C268.888 108.729 268.205 109.523 268.205 110.788V111.287C268.192 111.49 268.185 111.705 268.185 111.93V121.99L259.914 110.056C259.196 109.03 258.531 108.487 257.536 108.487C257.502 108.487 257.47 108.488 257.437 108.489L257.437 108.488C255.358 108.488 255.462 111.293 255.462 111.293V111.748V127.003V128.27C255.462 129.763 256.414 130.6 257.692 130.6C258.972 130.6 259.924 129.763 259.924 128.27V127.611C259.936 127.418 259.942 127.216 259.942 127.003V117.125L268.048 128.817C268.903 130.057 269.678 130.601 270.62 130.601C271.923 130.601 272.546 129.755 272.651 128.087C272.661 127.984 272.667 127.877 272.667 127.766V127.548V111.93V110.789C272.667 109.294 271.715 108.457 270.435 108.457Z" fill="white"/>
</g>
<defs>
<linearGradient id="paint0_linear" x1="261" y1="75" x2="261" y2="155" gradientUnits="userSpaceOnUse">
<stop stop-color="#1BA8FF"/>
<stop offset="1" stop-color="#1B69FF"/>
</linearGradient>
<clipPath id="clip0">
<rect width="60.8" height="34.8" fill="white" transform="translate(230.6 95.8)"/>
</clipPath>
</defs>
</svg>
