<?xml version="1.0" encoding="UTF-8" standalone="no"?><svg xmlns="http://www.w3.org/2000/svg" xmlns:xlink="http://www.w3.org/1999/xlink" contentScriptType="application/ecmascript" contentStyleType="text/css" height="627px" preserveAspectRatio="none" style="width:253px;height:627px;background:#FFFFFF;" version="1.1" viewBox="0 0 253 627" width="253px" zoomAndPan="magnify"><defs><filter height="300%" id="f1myvyoi0lhyy3" width="300%" x="-1" y="-1"><feGaussianBlur result="blurOut" stdDeviation="2.0"/><feColorMatrix in="blurOut" result="blurOut2" type="matrix" values="0 0 0 0 0 0 0 0 0 0 0 0 0 0 0 0 0 0 .4 0"/><feOffset dx="4.0" dy="4.0" in="blurOut2" result="blurOut3"/><feBlend in="SourceGraphic" in2="blurOut3" mode="normal"/></filter></defs><g><ellipse cx="93" cy="16" fill="#000000" filter="url(#f1myvyoi0lhyy3)" rx="10" ry="10" style="stroke:none;stroke-width:1.0;"/><g id="draft"><rect fill="#FEFECE" filter="url(#f1myvyoi0lhyy3)" height="50" rx="12.5" ry="12.5" style="stroke:#A80036;stroke-width:1.5;" width="56" x="65" y="103"/><line style="stroke:#A80036;stroke-width:1.5;" x1="65" x2="121" y1="129.2969" y2="129.2969"/><text fill="#000000" font-family="sans-serif" font-size="14" lengthAdjust="spacing" textLength="36" x="75" y="120.9951">draft</text></g><g id="waiting_for_payment"><rect fill="#FEFECE" filter="url(#f1myvyoi0lhyy3)" height="50" rx="12.5" ry="12.5" style="stroke:#A80036;stroke-width:1.5;" width="172" x="7" y="230"/><line style="stroke:#A80036;stroke-width:1.5;" x1="7" x2="179" y1="256.2969" y2="256.2969"/><text fill="#000000" font-family="sans-serif" font-size="14" lengthAdjust="spacing" textLength="152" x="17" y="247.9951">waiting_for_payment</text></g><g id="canceled"><rect fill="#FEFECE" filter="url(#f1myvyoi0lhyy3)" height="50" rx="12.5" ry="12.5" style="stroke:#A80036;stroke-width:1.5;" width="84" x="16" y="484"/><line style="stroke:#A80036;stroke-width:1.5;" x1="16" x2="100" y1="510.2969" y2="510.2969"/><text fill="#000000" font-family="sans-serif" font-size="14" lengthAdjust="spacing" textLength="64" x="26" y="501.9951">canceled</text></g><g id="online_paid"><rect fill="#FEFECE" filter="url(#f1myvyoi0lhyy3)" height="50" rx="12.5" ry="12.5" style="stroke:#A80036;stroke-width:1.5;" width="102" x="131" y="357"/><line style="stroke:#A80036;stroke-width:1.5;" x1="131" x2="233" y1="383.2969" y2="383.2969"/><text fill="#000000" font-family="sans-serif" font-size="14" lengthAdjust="spacing" textLength="82" x="141" y="374.9951">online_paid</text></g><g id="completed"><rect fill="#FEFECE" filter="url(#f1myvyoi0lhyy3)" height="50" rx="12.5" ry="12.5" style="stroke:#A80036;stroke-width:1.5;" width="99" x="135.5" y="484"/><line style="stroke:#A80036;stroke-width:1.5;" x1="135.5" x2="234.5" y1="510.2969" y2="510.2969"/><text fill="#000000" font-family="sans-serif" font-size="14" lengthAdjust="spacing" textLength="79" x="145.5" y="501.9951">completed</text></g><ellipse cx="132" cy="605" filter="url(#f1myvyoi0lhyy3)" rx="10" ry="10" style="stroke:#000000;stroke-width:1.0;fill:none;"/><ellipse cx="132.5" cy="605.5" fill="#000000" rx="6" ry="6" style="stroke:none;stroke-width:1.0;"/><!--MD5=[98967d72ce6cf1fee1a27daeddde0c85]
link *start to draft--><path d="M93,26.002 C93,41.458 93,73.685 93,97.6 " fill="none" id="*start-to-draft" style="stroke:#A80036;stroke-width:1.0;"/><polygon fill="#A80036" points="93,102.873,97,93.873,93,97.873,89,93.873,93,102.873" style="stroke:#A80036;stroke-width:1.0;"/><text fill="#000000" font-family="sans-serif" font-size="13" lengthAdjust="spacing" textLength="79" x="94" y="69.0669">create order</text><!--MD5=[cd13f37510f70a690b9b418d7d16e417]
link draft to waiting_for_payment--><path d="M93,153.101 C93,173.593 93,203.076 93,224.884 " fill="none" id="draft-to-waiting_for_payment" style="stroke:#A80036;stroke-width:1.0;"/><polygon fill="#A80036" points="93,229.973,97,220.973,93,224.973,89,220.973,93,229.973" style="stroke:#A80036;stroke-width:1.0;"/><text fill="#000000" font-family="sans-serif" font-size="13" lengthAdjust="spacing" textLength="98" x="94" y="196.0669">make payment</text><!--MD5=[28b8efafa84a35780e41c755a9869fe3]
link waiting_for_payment to canceled--><path d="M83.238,280.011 C75.566,300.18 65.4569,329.958 61,357 C54.1074,398.821 54.7231,448.033 56.1133,478.628 " fill="none" id="waiting_for_payment-to-canceled" style="stroke:#A80036;stroke-width:1.0;"/><polygon fill="#A80036" points="56.3611,483.745,59.9219,474.5624,56.1197,478.7508,51.9312,474.9486,56.3611,483.745" style="stroke:#A80036;stroke-width:1.0;"/><text fill="#000000" font-family="sans-serif" font-size="13" lengthAdjust="spacing" textLength="50" x="62" y="386.5669">timeout</text><!--MD5=[3497160a96ebd940d14eefd7fa8e521a]
link waiting_for_payment to online_paid--><path d="M110.16,280.101 C124.935,300.853 146.275,330.824 161.857,352.709 " fill="none" id="waiting_for_payment-to-online_paid" style="stroke:#A80036;stroke-width:1.0;"/><polygon fill="#A80036" points="164.893,356.973,162.9312,347.3215,161.9929,352.9,156.4144,351.9617,164.893,356.973" style="stroke:#A80036;stroke-width:1.0;"/><text fill="#000000" font-family="sans-serif" font-size="13" lengthAdjust="spacing" textLength="27" x="144" y="323.0669">paid</text><!--MD5=[b238396bef980d63104461b6475c842d]
link online_paid to canceled--><path d="M158.092,407.101 C137.335,428.025 107.278,458.324 85.5238,480.254 " fill="none" id="online_paid-to-canceled" style="stroke:#A80036;stroke-width:1.0;"/><polygon fill="#A80036" points="81.835,483.973,91.0124,480.3989,85.3556,480.4226,85.3319,474.7658,81.835,483.973" style="stroke:#A80036;stroke-width:1.0;"/><text fill="#000000" font-family="sans-serif" font-size="13" lengthAdjust="spacing" textLength="41" x="129" y="450.0669">cancel</text><!--MD5=[c20522095bd12a9538e27a80b2214f3f]
link online_paid to completed--><path d="M182.578,407.101 C183.07,427.593 183.778,457.076 184.301,478.884 " fill="none" id="online_paid-to-completed" style="stroke:#A80036;stroke-width:1.0;"/><polygon fill="#A80036" points="184.423,483.973,188.2058,474.8796,184.303,478.9744,180.2082,475.0716,184.423,483.973" style="stroke:#A80036;stroke-width:1.0;"/><text fill="#000000" font-family="sans-serif" font-size="13" lengthAdjust="spacing" textLength="60" x="185" y="450.0669">complete</text><!--MD5=[e3425dca7585d29a0042898e57b9a0ca]
link canceled to *end--><path d="M77.0568,534.2073 C91.8042,552.9405 111.57,578.0478 122.931,592.4797 " fill="none" id="canceled-to-*end" style="stroke:#A80036;stroke-width:1.0;"/><polygon fill="#A80036" points="126.172,596.597,123.7477,587.0512,123.0791,592.6684,117.4619,591.9998,126.172,596.597" style="stroke:#A80036;stroke-width:1.0;"/><!--MD5=[a1dcb35ea59e9dd29bc76f060092a6d7]
link completed to *end--><path d="M171.351,534.2073 C161.1,552.388 147.464,576.5724 139.231,591.1754 " fill="none" id="completed-to-*end" style="stroke:#A80036;stroke-width:1.0;"/><polygon fill="#A80036" points="136.658,595.7379,144.5624,589.8625,139.1136,591.3824,137.5937,585.9336,136.658,595.7379" style="stroke:#A80036;stroke-width:1.0;"/><!--MD5=[9630d580318d1546650b8891bcd1a3a1]
@startuml
[*] - -> draft: create order
draft - -> waiting_for_payment: make payment
waiting_for_payment - -> canceled: timeout
waiting_for_payment - -> online_paid: paid
online_paid - -> canceled: cancel
online_paid - -> completed: complete
canceled - -> [*]
completed - -> [*]
@enduml

PlantUML version 1.2021.8beta3(Unknown compile time)
(GPL source distribution)
Java Runtime: Java(TM) SE Runtime Environment
JVM: Java HotSpot(TM) 64-Bit Server VM
Default Encoding: UTF-8
Language: en
Country: US
--></g></svg>