<?xml version="1.0" encoding="UTF-8" standalone="no"?><svg xmlns="http://www.w3.org/2000/svg" xmlns:xlink="http://www.w3.org/1999/xlink" contentScriptType="application/ecmascript" contentStyleType="text/css" height="754px" preserveAspectRatio="none" style="width:409px;height:754px;background:#FFFFFF;" version="1.1" viewBox="0 0 409 754" width="409px" zoomAndPan="magnify"><defs><filter height="300%" id="f1p9kr8gvmv1n0" width="300%" x="-1" y="-1"><feGaussianBlur result="blurOut" stdDeviation="2.0"/><feColorMatrix in="blurOut" result="blurOut2" type="matrix" values="0 0 0 0 0 0 0 0 0 0 0 0 0 0 0 0 0 0 .4 0"/><feOffset dx="4.0" dy="4.0" in="blurOut2" result="blurOut3"/><feBlend in="SourceGraphic" in2="blurOut3" mode="normal"/></filter></defs><g><ellipse cx="93" cy="16" fill="#000000" filter="url(#f1p9kr8gvmv1n0)" rx="10" ry="10" style="stroke:none;stroke-width:1.0;"/><g id="draft"><rect fill="#FEFECE" filter="url(#f1p9kr8gvmv1n0)" height="50" rx="12.5" ry="12.5" style="stroke:#A80036;stroke-width:1.5;" width="56" x="65" y="103"/><line style="stroke:#A80036;stroke-width:1.5;" x1="65" x2="121" y1="129.2969" y2="129.2969"/><text fill="#000000" font-family="sans-serif" font-size="14" lengthAdjust="spacing" textLength="36" x="75" y="120.9951">draft</text></g><g id="waiting_for_payment"><rect fill="#FEFECE" filter="url(#f1p9kr8gvmv1n0)" height="50" rx="12.5" ry="12.5" style="stroke:#A80036;stroke-width:1.5;" width="172" x="7" y="230"/><line style="stroke:#A80036;stroke-width:1.5;" x1="7" x2="179" y1="256.2969" y2="256.2969"/><text fill="#000000" font-family="sans-serif" font-size="14" lengthAdjust="spacing" textLength="152" x="17" y="247.9951">waiting_for_payment</text></g><g id="canceled"><rect fill="#FEFECE" filter="url(#f1p9kr8gvmv1n0)" height="50" rx="12.5" ry="12.5" style="stroke:#A80036;stroke-width:1.5;" width="84" x="165" y="611"/><line style="stroke:#A80036;stroke-width:1.5;" x1="165" x2="249" y1="637.2969" y2="637.2969"/><text fill="#000000" font-family="sans-serif" font-size="14" lengthAdjust="spacing" textLength="64" x="175" y="628.9951">canceled</text></g><g id="waiting_for_verification"><rect fill="#FEFECE" filter="url(#f1p9kr8gvmv1n0)" height="50" rx="12.5" ry="12.5" style="stroke:#A80036;stroke-width:1.5;" width="189" x="108.5" y="357"/><line style="stroke:#A80036;stroke-width:1.5;" x1="108.5" x2="297.5" y1="383.2969" y2="383.2969"/><text fill="#000000" font-family="sans-serif" font-size="14" lengthAdjust="spacing" textLength="169" x="118.5" y="374.9951">waiting_for_verification</text></g><g id="online_paid"><rect fill="#FEFECE" filter="url(#f1p9kr8gvmv1n0)" height="50" rx="12.5" ry="12.5" style="stroke:#A80036;stroke-width:1.5;" width="102" x="283" y="484"/><line style="stroke:#A80036;stroke-width:1.5;" x1="283" x2="385" y1="510.2969" y2="510.2969"/><text fill="#000000" font-family="sans-serif" font-size="14" lengthAdjust="spacing" textLength="82" x="293" y="501.9951">online_paid</text></g><g id="completed"><rect fill="#FEFECE" filter="url(#f1p9kr8gvmv1n0)" height="50" rx="12.5" ry="12.5" style="stroke:#A80036;stroke-width:1.5;" width="99" x="292.5" y="611"/><line style="stroke:#A80036;stroke-width:1.5;" x1="292.5" x2="391.5" y1="637.2969" y2="637.2969"/><text fill="#000000" font-family="sans-serif" font-size="14" lengthAdjust="spacing" textLength="79" x="302.5" y="628.9951">completed</text></g><ellipse cx="286" cy="732" filter="url(#f1p9kr8gvmv1n0)" rx="10" ry="10" style="stroke:#000000;stroke-width:1.0;fill:none;"/><ellipse cx="286.5" cy="732.5" fill="#000000" rx="6" ry="6" style="stroke:none;stroke-width:1.0;"/><!--MD5=[98967d72ce6cf1fee1a27daeddde0c85]
link *start to draft--><path d="M93,26.002 C93,41.458 93,73.685 93,97.6 " fill="none" id="*start-to-draft" style="stroke:#A80036;stroke-width:1.0;"/><polygon fill="#A80036" points="93,102.873,97,93.873,93,97.873,89,93.873,93,102.873" style="stroke:#A80036;stroke-width:1.0;"/><text fill="#000000" font-family="sans-serif" font-size="13" lengthAdjust="spacing" textLength="81" x="94" y="69.0669">Create order</text><!--MD5=[cd13f37510f70a690b9b418d7d16e417]
link draft to waiting_for_payment--><path d="M93,153.101 C93,173.593 93,203.076 93,224.884 " fill="none" id="draft-to-waiting_for_payment" style="stroke:#A80036;stroke-width:1.0;"/><polygon fill="#A80036" points="93,229.973,97,220.973,93,224.973,89,220.973,93,229.973" style="stroke:#A80036;stroke-width:1.0;"/><text fill="#000000" font-family="sans-serif" font-size="13" lengthAdjust="spacing" textLength="95" x="94" y="196.0669">Make payment</text><!--MD5=[28b8efafa84a35780e41c755a9869fe3]
link waiting_for_payment to canceled--><path d="M80.0708,280.12 C61.5216,318.072 31.9019,393.627 54,454 C77.4707,518.123 134.807,575.172 172.239,607.372 " fill="none" id="waiting_for_payment-to-canceled" style="stroke:#A80036;stroke-width:1.0;"/><polygon fill="#A80036" points="176.249,610.792,171.9965,601.9085,172.4446,607.5476,166.8055,607.9956,176.249,610.792" style="stroke:#A80036;stroke-width:1.0;"/><text fill="#000000" font-family="sans-serif" font-size="13" lengthAdjust="spacing" textLength="140" x="55" y="450.0669">Timeout after 4 hours</text><!--MD5=[e3af9f129da3e072fe86498899961507]
link waiting_for_payment to waiting_for_verification--><path d="M114.209,280.101 C132.546,300.939 159.065,331.074 178.344,352.982 " fill="none" id="waiting_for_payment-to-waiting_for_verification" style="stroke:#A80036;stroke-width:1.0;"/><polygon fill="#A80036" points="181.856,356.973,178.9145,347.5737,178.5534,353.219,172.9081,352.8579,181.856,356.973" style="stroke:#A80036;stroke-width:1.0;"/><text fill="#000000" font-family="sans-serif" font-size="13" lengthAdjust="spacing" textLength="170" x="156" y="323.0669">Proceed process of paying</text><!--MD5=[354e01ffd9847eb0f4b4fb9bfe61f6c9]
link waiting_for_verification to canceled--><path d="M203.384,407.163 C204.121,453.637 205.735,555.32 206.534,605.622 " fill="none" id="waiting_for_verification-to-canceled" style="stroke:#A80036;stroke-width:1.0;"/><polygon fill="#A80036" points="206.618,610.91,210.4735,601.8472,206.538,605.9106,202.4745,601.9751,206.618,610.91" style="stroke:#A80036;stroke-width:1.0;"/><text fill="#000000" font-family="sans-serif" font-size="13" lengthAdjust="spacing" textLength="43" x="207" y="513.5669">Cancel</text><!--MD5=[c399a788dba2481aa0028605bf7d3721]
link waiting_for_verification to online_paid--><path d="M228.258,407.101 C250.187,428.025 281.94,458.324 304.922,480.254 " fill="none" id="waiting_for_verification-to-online_paid" style="stroke:#A80036;stroke-width:1.0;"/><polygon fill="#A80036" points="308.819,483.973,305.069,474.866,305.2016,480.5213,299.5463,480.6539,308.819,483.973" style="stroke:#A80036;stroke-width:1.0;"/><text fill="#000000" font-family="sans-serif" font-size="13" lengthAdjust="spacing" textLength="38" x="278" y="450.0669">Verify</text><!--MD5=[b238396bef980d63104461b6475c842d]
link online_paid to canceled--><path d="M309.513,534.101 C288.254,555.025 257.47,585.324 235.19,607.254 " fill="none" id="online_paid-to-canceled" style="stroke:#A80036;stroke-width:1.0;"/><polygon fill="#A80036" points="231.412,610.973,240.6327,607.5119,234.976,607.4662,235.0217,601.8095,231.412,610.973" style="stroke:#A80036;stroke-width:1.0;"/><text fill="#000000" font-family="sans-serif" font-size="13" lengthAdjust="spacing" textLength="43" x="280" y="577.0669">Cancel</text><!--MD5=[c20522095bd12a9538e27a80b2214f3f]
link online_paid to completed--><path d="M335.542,534.101 C336.854,554.593 338.741,584.076 340.137,605.884 " fill="none" id="online_paid-to-completed" style="stroke:#A80036;stroke-width:1.0;"/><polygon fill="#A80036" points="340.462,610.973,343.8778,601.7355,340.142,605.9832,335.8942,602.2474,340.462,610.973" style="stroke:#A80036;stroke-width:1.0;"/><text fill="#000000" font-family="sans-serif" font-size="13" lengthAdjust="spacing" textLength="62" x="339" y="577.0669">Complete</text><!--MD5=[e3425dca7585d29a0042898e57b9a0ca]
link canceled to *end--><path d="M227.344,661.2073 C243.088,679.9405 264.189,705.0478 276.318,719.4797 " fill="none" id="canceled-to-*end" style="stroke:#A80036;stroke-width:1.0;"/><polygon fill="#A80036" points="279.778,723.597,277.0489,714.1338,276.5607,719.7696,270.925,719.2814,279.778,723.597" style="stroke:#A80036;stroke-width:1.0;"/><!--MD5=[a1dcb35ea59e9dd29bc76f060092a6d7]
link completed to *end--><path d="M327.579,661.2073 C316.748,679.388 302.34,703.5724 293.64,718.1754 " fill="none" id="completed-to-*end" style="stroke:#A80036;stroke-width:1.0;"/><polygon fill="#A80036" points="290.922,722.7379,298.9646,717.0532,293.481,718.4424,292.0918,712.9588,290.922,722.7379" style="stroke:#A80036;stroke-width:1.0;"/><!--MD5=[6990eae6f1e24dce9639088fc8cda345]
@startuml
[*] - -> draft: Create order
draft - -> waiting_for_payment: Make payment
waiting_for_payment - -> canceled: Timeout after 4 hours
waiting_for_payment - -> waiting_for_verification: Proceed process of paying
waiting_for_verification - -> canceled: Cancel

waiting_for_verification - -> online_paid: Verify
online_paid - -> canceled: Cancel
online_paid - -> completed: Complete
canceled - -> [*]
completed - -> [*]
@enduml

PlantUML version 1.2021.17beta9(Unknown compile time)
(GPL source distribution)
Java Runtime: Java(TM) SE Runtime Environment
JVM: Java HotSpot(TM) 64-Bit Server VM
Default Encoding: UTF-8
Language: en
Country: US
--></g></svg>