<svg width="24" height="24" viewBox="0 0 24 24" fill="none" xmlns="http://www.w3.org/2000/svg">
<path d="M18.3086 12.7631C18.3204 11.8432 18.5648 10.9412 19.0189 10.1412C19.473 9.34105 20.1221 8.66882 20.9058 8.187C20.408 7.47595 19.7512 6.89078 18.9876 6.47797C18.224 6.06517 17.3747 5.83609 16.5071 5.80895C14.6563 5.61469 12.8621 6.91641 11.919 6.91641C10.9576 6.91641 9.50557 5.82824 7.94194 5.86041C6.93054 5.89308 5.94485 6.18719 5.08092 6.71408C4.21698 7.24096 3.50426 7.98265 3.01219 8.86688C0.880666 12.5573 2.47059 17.9809 4.51241 20.964C5.53398 22.4247 6.7279 24.0563 8.29011 23.9985C9.81884 23.9351 10.3898 23.0237 12.2351 23.0237C14.0633 23.0237 14.5989 23.9985 16.1928 23.9617C17.8332 23.9351 18.8668 22.4945 19.8525 21.0199C20.5865 19.9791 21.1513 18.8288 21.526 17.6116C20.573 17.2085 19.7597 16.5338 19.1875 15.6716C18.6154 14.8094 18.3097 13.7979 18.3086 12.7631Z" fill="white"/>
<path d="M15.298 3.84712C16.1924 2.77342 16.633 1.39335 16.5263 0C15.1599 0.14352 13.8976 0.796599 12.9911 1.82911C12.5479 2.33352 12.2085 2.92033 11.9922 3.55601C11.7759 4.19169 11.687 4.86376 11.7306 5.53381C12.4141 5.54084 13.0903 5.3927 13.7082 5.10054C14.3261 4.80838 14.8697 4.37982 15.298 3.84712Z" fill="white"/>
</svg>
