<svg width="356" height="207" viewBox="0 0 356 207" fill="none" xmlns="http://www.w3.org/2000/svg">
<rect x="0.5" y="0.5" width="355" height="206" rx="3.5" fill="white" stroke="#C2E1FF"/>
<rect x="104.5" y="20.5" width="147" height="167" fill="#F0F8FF" stroke="#5CB3FF"/>
<path d="M260.5 20.5H344C345.933 20.5 347.5 22.067 347.5 24V184C347.5 185.933 345.933 187.5 344 187.5H260.5V20.5Z" fill="white" stroke="#C2E1FF"/>
<path d="M8.5 24C8.5 22.067 10.067 20.5 12 20.5H95.5V187.5H12C10.067 187.5 8.5 185.933 8.5 184V24Z" fill="white" stroke="#C2E1FF"/>
<path d="M120 48C120 45.7909 121.791 44 124 44H156C158.209 44 160 45.7909 160 48C160 50.2091 158.209 52 156 52H124C121.791 52 120 50.2091 120 48Z" fill="#1A94FF"/>
<path d="M120 96C120 93.7909 121.791 92 124 92H140C142.209 92 144 93.7909 144 96C144 98.2091 142.209 100 140 100H124C121.791 100 120 98.2091 120 96Z" fill="#1A94FF"/>
<path d="M120 160C120 157.791 121.791 156 124 156H156C158.209 156 160 157.791 160 160C160 162.209 158.209 164 156 164H124C121.791 164 120 162.209 120 160Z" fill="#1A94FF"/>
<path d="M148 96C148 93.7909 149.791 92 152 92H192C194.209 92 196 93.7909 196 96C196 98.2091 194.209 100 192 100H152C149.791 100 148 98.2091 148 96Z" fill="#94CDFF"/>
<path d="M136 80C136 77.7909 137.791 76 140 76H156C158.209 76 160 77.7909 160 80C160 82.2091 158.209 84 156 84H140C137.791 84 136 82.2091 136 80Z" fill="#1A94FF"/>
<path d="M136 112C136 109.791 137.791 108 140 108H188C190.209 108 192 109.791 192 112C192 114.209 190.209 116 188 116H140C137.791 116 136 114.209 136 112Z" fill="#94CDFF"/>
<path d="M196 112C196 109.791 197.791 108 200 108H216C218.209 108 220 109.791 220 112C220 114.209 218.209 116 216 116H200C197.791 116 196 114.209 196 112Z" fill="#94CDFF"/>
<path d="M164 80C164 77.7909 165.791 76 168 76H208C210.209 76 212 77.7909 212 80C212 82.2091 210.209 84 208 84H168C165.791 84 164 82.2091 164 80Z" fill="#94CDFF"/>
<path d="M136 64C136 61.7909 137.791 60 140 60H172C174.209 60 176 61.7909 176 64C176 66.2091 174.209 68 172 68H140C137.791 68 136 66.2091 136 64Z" fill="#94CDFF"/>
<path d="M152 128C152 125.791 153.791 124 156 124H172C174.209 124 176 125.791 176 128C176 130.209 174.209 132 172 132H156C153.791 132 152 130.209 152 128Z" fill="#94CDFF"/>
<path d="M136 144C136 141.791 137.791 140 140 140H188C190.209 140 192 141.791 192 144C192 146.209 190.209 148 188 148H140C137.791 148 136 146.209 136 144Z" fill="#94CDFF"/>
<path d="M180 64C180 61.7909 181.791 60 184 60H232C234.209 60 236 61.7909 236 64C236 66.2091 234.209 68 232 68H184C181.791 68 180 66.2091 180 64Z" fill="#DBEEFF"/>
<path d="M180 128C180 125.791 181.791 124 184 124H232C234.209 124 236 125.791 236 128C236 130.209 234.209 132 232 132H184C181.791 132 180 130.209 180 128Z" fill="#DBEEFF"/>
<circle cx="12" cy="12" r="3.5" fill="#F0F8FF" stroke="#C2E1FF"/>
<circle cx="24" cy="12" r="3.5" fill="#F0F8FF" stroke="#C2E1FF"/>
<circle cx="36" cy="12" r="3.5" fill="#F0F8FF" stroke="#C2E1FF"/>
</svg>
