<svg width="356" height="207" viewBox="0 0 356 207" fill="none" xmlns="http://www.w3.org/2000/svg">
<rect x="0.5" y="0.5" width="355" height="206" rx="3.5" fill="white" stroke="#C2E1FF"/>
<rect x="104.5" y="20.5" width="147" height="167" fill="white" stroke="#C2E1FF"/>
<path d="M260.5 20.5H344C345.933 20.5 347.5 22.067 347.5 24V184C347.5 185.933 345.933 187.5 344 187.5H260.5V20.5Z" fill="#F0F8FF" stroke="#5CB3FF"/>
<path d="M8.5 24C8.5 22.067 10.067 20.5 12 20.5H95.5V187.5H12C10.067 187.5 8.5 185.933 8.5 184V24Z" fill="white" stroke="#C2E1FF"/>
<path d="M268 172C268 167.582 271.582 164 276 164H332C336.418 164 340 167.582 340 172C340 176.418 336.418 180 332 180H276C271.582 180 268 176.418 268 172Z" fill="#1A94FF"/>
<path d="M268 89C268 86.7909 269.791 85 272 85H280C282.209 85 284 86.7909 284 89C284 91.2091 282.209 93 280 93H272C269.791 93 268 91.2091 268 89Z" fill="#94CDFF"/>
<path d="M316 137C316 134.791 317.791 133 320 133H336C338.209 133 340 134.791 340 137C340 139.209 338.209 141 336 141H320C317.791 141 316 139.209 316 137Z" fill="#DBEEFF"/>
<path d="M268 105C268 102.791 269.791 101 272 101H304C306.209 101 308 102.791 308 105C308 107.209 306.209 109 304 109H272C269.791 109 268 107.209 268 105Z" fill="#DBEEFF"/>
<path d="M268 121C268 118.791 269.791 117 272 117H296C298.209 117 300 118.791 300 121C300 123.209 298.209 125 296 125H272C269.791 125 268 123.209 268 121Z" fill="#DBEEFF"/>
<path d="M304 121C304 118.791 305.791 117 308 117H336C338.209 117 340 118.791 340 121C340 123.209 338.209 125 336 125H308C305.791 125 304 123.209 304 121Z" fill="#DBEEFF"/>
<path d="M312 105C312 102.791 313.791 101 316 101H336C338.209 101 340 102.791 340 105C340 107.209 338.209 109 336 109H316C313.791 109 312 107.209 312 105Z" fill="#DBEEFF"/>
<path d="M288 89C288 86.7909 289.791 85 292 85H324C326.209 85 328 86.7909 328 89C328 91.2091 326.209 93 324 93H292C289.791 93 288 91.2091 288 89Z" fill="#94CDFF"/>
<path d="M268 137C268 134.791 269.791 133 272 133H308C310.209 133 312 134.791 312 137C312 139.209 310.209 141 308 141H272C269.791 141 268 139.209 268 137Z" fill="#DBEEFF"/>
<path d="M268 32C268 29.7909 269.791 28 272 28H336C338.209 28 340 29.7909 340 32V73C340 75.2091 338.209 77 336 77H272C269.791 77 268 75.2091 268 73V32Z" fill="#94CDFF"/>
<path d="M299.81 46.008C300.464 45.944 301.096 46.204 301.518 46.698L313.518 60.698C314.026 61.292 314.142 62.126 313.816 62.836C313.49 63.544 312.782 64 312 64H292C291.288 64 290.628 63.62 290.27 63.004C289.912 62.388 289.91 61.628 290.264 61.008L298.264 47.008C298.586 46.442 299.164 46.07 299.81 46.008Z" fill="#F0F8FF"/>
<path d="M318 44C318 46.2091 316.209 48 314 48C311.791 48 310 46.2091 310 44C310 41.7909 311.791 40 314 40C316.209 40 318 41.7909 318 44Z" fill="#F0F8FF"/>
<circle cx="12" cy="12" r="3.5" fill="#F0F8FF" stroke="#C2E1FF"/>
<circle cx="24" cy="12" r="3.5" fill="#F0F8FF" stroke="#C2E1FF"/>
<circle cx="36" cy="12" r="3.5" fill="#F0F8FF" stroke="#C2E1FF"/>
</svg>
