<svg width="356" height="207" viewBox="0 0 356 207" fill="none" xmlns="http://www.w3.org/2000/svg">
<rect x="0.5" y="0.5" width="355" height="206" rx="3.5" fill="white" stroke="#C2E1FF"/>
<rect x="104.5" y="20.5" width="147" height="167" fill="white" stroke="#C2E1FF"/>
<path d="M260.5 20.5H344C345.933 20.5 347.5 22.067 347.5 24V184C347.5 185.933 345.933 187.5 344 187.5H260.5V20.5Z" fill="white" stroke="#C2E1FF"/>
<path d="M8.5 24C8.5 22.067 10.067 20.5 12 20.5H95.5V187.5H12C10.067 187.5 8.5 185.933 8.5 184V24Z" fill="#F0F8FF" stroke="#5CB3FF"/>
<path d="M16 48C16 45.7909 17.7909 44 20 44H52C54.2091 44 56 45.7909 56 48C56 50.2091 54.2091 52 52 52H20C17.7909 52 16 50.2091 16 48Z" fill="#1A94FF"/>
<path d="M16 128C16 125.791 17.7909 124 20 124H64C66.2091 124 68 125.791 68 128C68 130.209 66.2091 132 64 132H20C17.7909 132 16 130.209 16 128Z" fill="#1A94FF"/>
<path d="M16 144C16 141.791 17.7909 140 20 140H44C46.2091 140 48 141.791 48 144C48 146.209 46.2091 148 44 148H20C17.7909 148 16 146.209 16 144Z" fill="#1A94FF"/>
<path d="M16 160C16 157.791 17.7909 156 20 156H52C54.2091 156 56 157.791 56 160C56 162.209 54.2091 164 52 164H20C17.7909 164 16 162.209 16 160Z" fill="#1A94FF"/>
<path d="M24 64C24 61.7909 25.7909 60 28 60H44C46.2091 60 48 61.7909 48 64C48 66.2091 46.2091 68 44 68H28C25.7909 68 24 66.2091 24 64Z" fill="#94CDFF"/>
<path d="M24 112C24 109.791 25.7909 108 28 108H44C46.2091 108 48 109.791 48 112C48 114.209 46.2091 116 44 116H28C25.7909 116 24 114.209 24 112Z" fill="#94CDFF"/>
<path d="M24 96C24 93.7909 25.7909 92 28 92H52C54.2091 92 56 93.7909 56 96C56 98.2091 54.2091 100 52 100H28C25.7909 100 24 98.2091 24 96Z" fill="#94CDFF"/>
<path d="M24 80C24 77.7909 25.7909 76 28 76H60C62.2091 76 64 77.7909 64 80C64 82.2091 62.2091 84 60 84H28C25.7909 84 24 82.2091 24 80Z" fill="#94CDFF"/>
<path d="M68 80C68 77.7909 69.7909 76 72 76H84C86.2091 76 88 77.7909 88 80C88 82.2091 86.2091 84 84 84H72C69.7909 84 68 82.2091 68 80Z" fill="#94CDFF"/>
<path d="M52 64C52 61.7909 53.7909 60 56 60H80C82.2091 60 84 61.7909 84 64C84 66.2091 82.2091 68 80 68H56C53.7909 68 52 66.2091 52 64Z" fill="#94CDFF"/>
<circle cx="12" cy="12" r="3.5" fill="#F0F8FF" stroke="#C2E1FF"/>
<circle cx="24" cy="12" r="3.5" fill="#F0F8FF" stroke="#C2E1FF"/>
<circle cx="36" cy="12" r="3.5" fill="#F0F8FF" stroke="#C2E1FF"/>
<line x1="16.5" y1="56" x2="16.5" y2="120" stroke="#94CDFF"/>
</svg>
