<svg width="121" height="120" viewBox="0 0 121 120" fill="none" xmlns="http://www.w3.org/2000/svg">
<g clip-path="url(#clip-studio-logo)">
<path d="M0.5 42C0.5 18.804 19.304 0 42.5 0H78.5C101.696 0 120.5 18.804 120.5 42V78C120.5 101.196 101.696 120 78.5 120H42.5C19.304 120 0.5 101.196 0.5 78V42Z" fill="url(#svg-studio)"/>
<path fill-rule="evenodd" clip-rule="evenodd" d="M0.500671 41.76C0.500224 41.8399 0.5 41.9199 0.5 42V42.24H6.25999V47.76H0.5V48.24H6.25999V53.76H0.5V54.24H6.25999V59.76H0.5V60.24H6.25999V65.76H0.5V66.24H6.25999V71.76H0.5V72.24H6.25999V77.76H0.5V78C0.5 78.08 0.500224 78.16 0.500671 78.24H6.25999V83.76H0.891709C0.913693 83.9203 0.936582 84.0803 0.960369 84.24H6.25999V89.76H2.16862C2.21532 89.9204 2.26294 90.0804 2.31148 90.24H6.25999V95.76H4.4287C4.50373 95.9205 4.57974 96.0805 4.65673 96.24H6.25999V99.2421C6.41713 99.5096 6.57714 99.7752 6.73999 100.039V96.24H12.26V101.76H7.86196C7.97248 101.921 8.08409 102.081 8.19678 102.24H12.26V107.147C12.4187 107.312 12.5787 107.475 12.74 107.637V102.24H18.26V107.76H12.8631C13.0251 107.921 13.1884 108.081 13.353 108.24H18.26V112.303C18.4192 112.416 18.5792 112.528 18.74 112.638V108.24H24.26V113.76H20.4611C20.7247 113.923 20.9903 114.083 21.2579 114.24H24.26V115.843C24.4194 115.92 24.5794 115.996 24.74 116.071V114.24H30.26V118.189C30.4196 118.237 30.5796 118.285 30.74 118.331V114.24H36.26V119.54C36.4197 119.563 36.5797 119.586 36.74 119.608V114.24H42.26V119.999C42.3399 120 42.4199 120 42.5 120H42.74V114.24H48.26V120H48.74V114.24H54.26V120H54.74V114.24H60.26V120H60.74V114.24H66.26V120H66.74V114.24H72.26V120H72.74V114.24H78.26V120H78.5C78.58 120 78.66 120 78.74 119.999V114.24H84.26V119.608C84.4203 119.586 84.5803 119.563 84.74 119.54V114.24H90.26V118.331C90.4204 118.285 90.5804 118.237 90.74 118.189V114.24H96.26V116.071C96.4205 115.996 96.5806 115.92 96.74 115.843V114.24H99.7421C100.01 114.083 100.275 113.923 100.539 113.76H96.74V108.24H102.26V112.638C102.421 112.528 102.581 112.416 102.74 112.303V108.24H107.647C107.812 108.081 107.975 107.921 108.137 107.76H102.74V102.24H108.26V107.637C108.421 107.475 108.581 107.312 108.74 107.147V102.24H112.803C112.916 102.081 113.028 101.921 113.138 101.76H108.74V96.24H114.26V100.039C114.423 99.7753 114.583 99.5097 114.74 99.2421V96.24H116.343C116.42 96.0806 116.496 95.9205 116.571 95.76H114.74V90.24H118.689C118.737 90.0804 118.785 89.9204 118.831 89.76H114.74V84.24H120.04C120.063 84.0803 120.086 83.9203 120.108 83.76H114.74V78.24H120.499C120.5 78.16 120.5 78.0801 120.5 78V77.76H114.74V72.24H120.5V71.76H114.74V66.24H120.5V65.76H114.74V60.24H120.5V59.76H114.74V54.24H120.5V53.76H114.74V48.24H120.5V47.76H114.74V42.24H120.5V42C120.5 41.9199 120.5 41.84 120.499 41.76H114.74V36.24H120.108C120.086 36.0797 120.063 35.9197 120.04 35.76H114.74V30.24H118.831C118.785 30.0796 118.737 29.9196 118.689 29.76H114.74V24.24H116.571C116.496 24.0794 116.42 23.9194 116.343 23.76H114.74V20.7579C114.583 20.4904 114.423 20.2247 114.26 19.9611V23.76L108.74 23.76V18.24L113.138 18.24C113.028 18.0792 112.916 17.9192 112.803 17.76L108.74 17.76V12.853C108.581 12.6884 108.421 12.5251 108.26 12.3632V17.76H102.74V12.24L108.137 12.24C107.975 12.0787 107.812 11.9187 107.647 11.76L102.74 11.76V7.69679C102.581 7.58409 102.421 7.47248 102.26 7.36196V11.76H96.74V6.24L100.539 6.24C100.275 6.07715 100.01 5.91714 99.7421 5.76L96.74 5.76V4.15673C96.5806 4.07974 96.4205 4.00373 96.26 3.9287V5.76L90.74 5.76V1.81149C90.5804 1.76294 90.4204 1.71532 90.26 1.66863V5.76L84.74 5.76V0.46037C84.5803 0.436583 84.4203 0.413694 84.26 0.39171V5.76L78.74 5.76V0.000671285C78.66 0.000223959 78.5801 0 78.5 0H78.26V5.76L72.74 5.76V0H72.26V5.76L66.74 5.76V0H66.26V5.76L60.74 5.76V0H60.26V5.76L54.74 5.76V0H54.26V5.76L48.74 5.76V0H48.26V5.76L42.74 5.76V0H42.5C42.4199 0 42.3399 0.000223966 42.26 0.000671306V5.76L36.74 5.76V0.391711C36.5797 0.413695 36.4197 0.436584 36.26 0.460371V5.76L30.74 5.76V1.66863C30.5796 1.71532 30.4196 1.76294 30.26 1.81149V5.76L24.74 5.75999V3.92871C24.5794 4.00374 24.4194 4.07975 24.26 4.15674V5.75999L21.2579 5.75999C20.9904 5.91713 20.7248 6.07715 20.4611 6.23999L24.26 6.24V11.76H18.74V7.36197C18.5792 7.47249 18.4192 7.5841 18.26 7.69679V11.76L13.353 11.76C13.1884 11.9187 13.0252 12.0787 12.8632 12.24L18.26 12.24V17.76H12.74V12.3632C12.5787 12.5251 12.4187 12.6884 12.26 12.853V17.76L8.1968 17.76C8.08411 17.9192 7.97249 18.0792 7.86197 18.24L12.26 18.24V23.76L6.74 23.76V19.9611C6.57715 20.2248 6.41713 20.4904 6.26 20.7579V23.76H4.65674C4.57975 23.9194 4.50374 24.0794 4.42871 24.24H6.26V29.76H2.31149C2.26294 29.9196 2.21532 30.0796 2.16863 30.24H6.25999V35.76H0.960372C0.936585 35.9197 0.913696 36.0797 0.891712 36.24H6.25999V41.76H0.500671ZM96.26 108.24V113.76H90.74V108.24H96.26ZM90.26 108.24V113.76H84.74V108.24H90.26ZM84.26 108.24V113.76H78.74V108.24H84.26ZM78.26 108.24V113.76H72.74V108.24H78.26ZM72.26 108.24V113.76H66.74V108.24H72.26ZM66.26 108.24V113.76H60.74V108.24H66.26ZM60.26 108.24V113.76H54.74V108.24H60.26ZM54.26 108.24V113.76H48.74V108.24H54.26ZM48.26 108.24V113.76H42.74V108.24H48.26ZM42.26 108.24V113.76H36.74V108.24H42.26ZM36.26 108.24V113.76H30.74V108.24H36.26ZM30.26 108.24V113.76H24.74V108.24H30.26ZM18.74 107.76H24.26V102.24H18.74V107.76ZM24.74 107.76H30.26V102.24H24.74V107.76ZM30.74 107.76H36.26V102.24H30.74V107.76ZM36.74 107.76H42.26V102.24H36.74V107.76ZM42.74 107.76H48.26V102.24H42.74V107.76ZM48.74 107.76H54.26V102.24H48.74V107.76ZM54.74 107.76H60.26V102.24H54.74V107.76ZM60.74 107.76H66.26V102.24H60.74V107.76ZM66.74 107.76H72.26V102.24H66.74V107.76ZM72.74 107.76H78.26V102.24H72.74V107.76ZM78.74 107.76H84.26V102.24H78.74V107.76ZM84.74 107.76H90.26V102.24H84.74V107.76ZM90.74 107.76H96.26V102.24H90.74V107.76ZM96.74 107.76H102.26V102.24H96.74V107.76ZM108.26 96.24V101.76H102.74V96.24H108.26ZM102.26 96.24V101.76H96.74V96.24H102.26ZM96.26 96.24V101.76H90.74V96.24H96.26ZM90.26 96.24V101.76H84.74V96.24H90.26ZM84.26 96.24V101.76H78.74V96.24H84.26ZM78.26 96.24V101.76H72.74V96.24H78.26ZM72.26 96.24V101.76H66.74V96.24H72.26ZM66.26 96.24V101.76H60.74V96.24H66.26ZM60.26 96.24V101.76H54.74V96.24H60.26ZM54.26 96.24V101.76H48.74V96.24H54.26ZM48.26 96.24V101.76H42.74V96.24H48.26ZM42.26 96.24V101.76H36.74V96.24H42.26ZM36.26 96.24V101.76H30.74V96.24H36.26ZM30.26 96.24V101.76H24.74V96.24H30.26ZM24.26 96.24V101.76H18.74V96.24H24.26ZM18.26 96.24V101.76H12.74V96.24H18.26ZM6.73999 95.76H12.26V90.24H6.73999V95.76ZM12.74 95.76H18.26V90.24H12.74V95.76ZM18.74 95.76H24.26V90.24H18.74V95.76ZM24.74 95.76H30.26V90.24H24.74V95.76ZM30.74 95.76H36.26V90.24H30.74V95.76ZM36.74 95.76H42.26V90.24H36.74V95.76ZM42.74 95.76H48.26V90.24H42.74V95.76ZM48.74 95.76H54.26V90.24H48.74V95.76ZM54.74 95.76H60.26V90.24H54.74V95.76ZM60.74 95.76H66.26V90.24H60.74V95.76ZM66.74 95.76H72.26V90.24H66.74V95.76ZM72.74 95.76H78.26V90.24H72.74V95.76ZM78.74 95.76H84.26V90.24H78.74V95.76ZM84.74 95.76H90.26V90.24H84.74V95.76ZM90.74 95.76H96.26V90.24H90.74V95.76ZM96.74 95.76H102.26V90.24H96.74V95.76ZM102.74 95.76H108.26V90.24H102.74V95.76ZM108.74 95.76H114.26V90.24H108.74V95.76ZM114.26 84.24V89.76H108.74V84.24H114.26ZM108.26 84.24V89.76H102.74V84.24H108.26ZM102.26 84.24V89.76H96.74V84.24H102.26ZM96.26 84.24V89.76H90.74V84.24H96.26ZM90.26 84.24V89.76H84.74V84.24H90.26ZM84.26 84.24V89.76H78.74V84.24H84.26ZM78.26 84.24V89.76H72.74V84.24H78.26ZM72.26 84.24V89.76H66.74V84.24H72.26ZM66.26 84.24V89.76H60.74V84.24H66.26ZM60.26 84.24V89.76H54.74V84.24H60.26ZM54.26 84.24V89.76H48.74V84.24H54.26ZM48.26 84.24V89.76H42.74V84.24H48.26ZM42.26 84.24V89.76H36.74V84.24H42.26ZM36.26 84.24V89.76H30.74V84.24H36.26ZM30.26 84.24V89.76H24.74V84.24H30.26ZM24.26 84.24V89.76H18.74V84.24H24.26ZM18.26 84.24V89.76H12.74V84.24H18.26ZM12.26 84.24V89.76H6.73999V84.24H12.26ZM6.73999 83.76H12.26V78.24H6.73999V83.76ZM12.74 83.76H18.26V78.24H12.74V83.76ZM18.74 83.76H24.26V78.24H18.74V83.76ZM24.74 83.76H30.26V78.24H24.74V83.76ZM30.74 83.76H36.26V78.24H30.74V83.76ZM36.74 83.76H42.26V78.24H36.74V83.76ZM42.74 83.76H48.26V78.24H42.74V83.76ZM48.74 83.76H54.26V78.24H48.74V83.76ZM54.74 83.76H60.26V78.24H54.74V83.76ZM60.74 83.76H66.26V78.24H60.74V83.76ZM66.74 83.76H72.26V78.24H66.74V83.76ZM72.74 83.76H78.26V78.24H72.74V83.76ZM78.74 83.76H84.26V78.24H78.74V83.76ZM84.74 83.76H90.26V78.24H84.74V83.76ZM90.74 83.76H96.26V78.24H90.74V83.76ZM96.74 83.76H102.26V78.24H96.74V83.76ZM102.74 83.76H108.26V78.24H102.74V83.76ZM108.74 83.76H114.26V78.24H108.74V83.76ZM114.26 72.24V77.76H108.74V72.24H114.26ZM108.26 72.24V77.76H102.74V72.24H108.26ZM102.26 72.24V77.76H96.74V72.24H102.26ZM96.26 72.24V77.76H90.74V72.24H96.26ZM90.26 72.24V77.76H84.74V72.24H90.26ZM84.26 72.24V77.76H78.74V72.24H84.26ZM78.26 72.24V77.76H72.74V72.24H78.26ZM72.26 72.24V77.76H66.74V72.24H72.26ZM66.26 72.24V77.76H60.74V72.24H66.26ZM60.26 72.24V77.76H54.74V72.24H60.26ZM54.26 72.24V77.76H48.74V72.24H54.26ZM48.26 72.24V77.76H42.74V72.24H48.26ZM42.26 72.24V77.76H36.74V72.24H42.26ZM36.26 72.24V77.76H30.74V72.24H36.26ZM30.26 72.24V77.76H24.74V72.24H30.26ZM24.26 72.24V77.76H18.74V72.24H24.26ZM18.26 72.24V77.76H12.74V72.24H18.26ZM12.26 72.24V77.76H6.73999V72.24H12.26ZM6.73999 71.76H12.26V66.24H6.73999V71.76ZM12.74 71.76H18.26V66.24H12.74V71.76ZM18.74 71.76H24.26V66.24H18.74V71.76ZM24.74 71.76H30.26V66.24H24.74V71.76ZM30.74 71.76H36.26V66.24H30.74V71.76ZM36.74 71.76H42.26V66.24H36.74V71.76ZM42.74 71.76H48.26V66.24H42.74V71.76ZM48.74 71.76H54.26V66.24H48.74V71.76ZM54.74 71.76H60.26V66.24H54.74V71.76ZM60.74 71.76H66.26V66.24H60.74V71.76ZM66.74 71.76H72.26V66.24H66.74V71.76ZM72.74 71.76H78.26V66.24H72.74V71.76ZM78.74 71.76H84.26V66.24H78.74V71.76ZM84.74 71.76H90.26V66.24H84.74V71.76ZM90.74 71.76H96.26V66.24H90.74V71.76ZM96.74 71.76H102.26V66.24H96.74V71.76ZM102.74 71.76H108.26V66.24H102.74V71.76ZM108.74 71.76H114.26V66.24H108.74V71.76ZM114.26 60.24V65.76H108.74V60.24H114.26ZM108.26 60.24V65.76H102.74V60.24H108.26ZM102.26 60.24V65.76H96.74V60.24L102.26 60.24ZM96.26 60.24V65.76H90.74V60.24H96.26ZM90.26 60.24V65.76H84.74V60.24H90.26ZM84.26 60.24V65.76H78.74V60.24H84.26ZM78.26 60.24V65.76H72.74V60.24H78.26ZM72.26 60.24V65.76H66.74V60.24H72.26ZM66.26 60.24V65.76H60.74V60.24H66.26ZM60.26 60.24V65.76H54.74V60.24H60.26ZM54.26 60.24V65.76H48.74V60.24H54.26ZM48.26 60.24V65.76H42.74V60.24H48.26ZM42.26 60.24V65.76H36.74V60.24H42.26ZM36.26 60.24V65.76H30.74V60.24H36.26ZM30.26 60.24V65.76H24.74V60.24H30.26ZM24.26 60.24V65.76H18.74V60.24L24.26 60.24ZM18.26 60.24V65.76H12.74V60.24H18.26ZM12.26 60.24V65.76H6.73999V60.24H12.26ZM6.73999 59.76H12.26V54.24H6.73999V59.76ZM12.74 59.76H18.26V54.24H12.74V59.76ZM18.74 59.76L24.26 59.76V54.24L18.74 54.24V59.76ZM24.74 59.76H30.26V54.24H24.74V59.76ZM30.74 59.76H36.26V54.24H30.74V59.76ZM36.74 59.76H42.26V54.24H36.74V59.76ZM42.74 59.76H48.26V54.24H42.74V59.76ZM48.74 59.76H54.26V54.24H48.74V59.76ZM54.74 59.76H60.26V54.24H54.74V59.76ZM60.74 59.76H66.26V54.24H60.74V59.76ZM66.74 59.76H72.26V54.24H66.74V59.76ZM72.74 59.76H78.26V54.24H72.74V59.76ZM78.74 59.76H84.26V54.24H78.74V59.76ZM84.74 59.76H90.26V54.24H84.74V59.76ZM90.74 59.76H96.26V54.24H90.74V59.76ZM96.74 59.76L102.26 59.76V54.24L96.74 54.24V59.76ZM102.74 59.76H108.26V54.24H102.74V59.76ZM108.74 59.76H114.26V54.24H108.74V59.76ZM114.26 48.24V53.76H108.74V48.24H114.26ZM108.26 48.24V53.76H102.74V48.24H108.26ZM102.26 48.24V53.76L96.74 53.76V48.24L102.26 48.24ZM96.26 48.24V53.76H90.74V48.24H96.26ZM90.26 48.24V53.76H84.74V48.24H90.26ZM84.26 48.24V53.76H78.74V48.24H84.26ZM78.26 48.24V53.76H72.74V48.24H78.26ZM72.26 48.24V53.76H66.74V48.24H72.26ZM66.26 48.24V53.76H60.74V48.24H66.26ZM60.26 48.24V53.76H54.74V48.24H60.26ZM54.26 48.24V53.76H48.74V48.24H54.26ZM48.26 48.24V53.76H42.74V48.24H48.26ZM42.26 48.24V53.76H36.74V48.24H42.26ZM36.26 48.24V53.76H30.74V48.24H36.26ZM30.26 48.24V53.76H24.74V48.24H30.26ZM24.26 48.24V53.76L18.74 53.76V48.24L24.26 48.24ZM18.26 48.24V53.76H12.74V48.24H18.26ZM12.26 48.24V53.76H6.73999V48.24H12.26ZM6.73999 47.76H12.26V42.24H6.73999V47.76ZM12.74 47.76H18.26V42.24H12.74V47.76ZM18.74 47.76L24.26 47.76V42.24L18.74 42.24V47.76ZM24.74 47.76H30.26V42.24H24.74V47.76ZM30.74 47.76H36.26V42.24H30.74V47.76ZM36.74 47.76H42.26V42.24H36.74V47.76ZM42.74 47.76H48.26V42.24H42.74V47.76ZM48.74 47.76H54.26V42.24H48.74V47.76ZM54.74 47.76H60.26V42.24H54.74V47.76ZM60.74 47.76H66.26V42.24H60.74V47.76ZM66.74 47.76H72.26V42.24H66.74V47.76ZM72.74 47.76H78.26V42.24H72.74V47.76ZM78.74 47.76H84.26V42.24H78.74V47.76ZM84.74 47.76H90.26V42.24H84.74V47.76ZM90.74 47.76H96.26V42.24H90.74V47.76ZM96.74 47.76L102.26 47.76V42.24L96.74 42.24V47.76ZM102.74 47.76H108.26V42.24H102.74V47.76ZM108.74 47.76H114.26V42.24H108.74V47.76ZM114.26 36.24V41.76H108.74V36.24H114.26ZM108.26 36.24V41.76H102.74V36.24H108.26ZM102.26 36.24V41.76L96.74 41.76V36.24L102.26 36.24ZM96.26 36.24V41.76H90.74V36.24H96.26ZM90.26 36.24V41.76H84.74V36.24H90.26ZM84.26 36.24V41.76H78.74V36.24H84.26ZM78.26 36.24V41.76H72.74V36.24H78.26ZM72.26 36.24V41.76H66.74V36.24H72.26ZM66.26 36.24V41.76H60.74V36.24H66.26ZM60.26 36.24V41.76H54.74V36.24H60.26ZM54.26 36.24V41.76H48.74V36.24H54.26ZM48.26 36.24V41.76H42.74V36.24H48.26ZM42.26 36.24V41.76H36.74V36.24H42.26ZM36.26 36.24V41.76H30.74V36.24H36.26ZM30.26 36.24V41.76H24.74V36.24H30.26ZM24.26 36.24V41.76L18.74 41.76V36.24L24.26 36.24ZM18.26 36.24V41.76H12.74V36.24H18.26ZM12.26 36.24V41.76H6.74V36.24H12.26ZM6.74 35.76H12.26V30.24L6.74 30.24V35.76ZM12.74 35.76H18.26V30.24H12.74V35.76ZM18.74 35.76L24.26 35.76V30.24H18.74V35.76ZM24.74 35.76H30.26V30.24H24.74V35.76ZM30.74 35.76H36.26V30.24H30.74V35.76ZM36.74 35.76H42.26V30.24H36.74V35.76ZM42.74 35.76H48.26V30.24H42.74V35.76ZM48.74 35.76H54.26V30.24L48.74 30.24V35.76ZM54.74 35.76H60.26V30.24H54.74V35.76ZM60.74 35.76H66.26V30.24H60.74V35.76ZM66.74 35.76H72.26V30.24L66.74 30.24V35.76ZM72.74 35.76H78.26V30.24H72.74V35.76ZM78.74 35.76H84.26V30.24H78.74V35.76ZM84.74 35.76H90.26V30.24H84.74V35.76ZM90.74 35.76H96.26V30.24H90.74V35.76ZM96.74 35.76L102.26 35.76V30.24H96.74V35.76ZM102.74 35.76H108.26V30.24H102.74V35.76ZM108.74 35.76H114.26V30.24L108.74 30.24V35.76ZM114.26 24.24V29.76L108.74 29.76V24.24L114.26 24.24ZM108.26 24.24V29.76H102.74V24.24H108.26ZM102.26 24.24V29.76H96.74V24.24H102.26ZM96.26 24.24V29.76H90.74V24.24H96.26ZM90.26 24.24V29.76H84.74V24.24H90.26ZM84.26 24.24V29.76H78.74V24.24H84.26ZM78.26 24.24V29.76H72.74V24.24H78.26ZM72.26 24.24V29.76L66.74 29.76V24.24L72.26 24.24ZM66.26 24.24V29.76H60.74V24.24H66.26ZM60.26 24.24V29.76H54.74V24.24H60.26ZM54.26 24.24V29.76L48.74 29.76V24.24L54.26 24.24ZM48.26 24.24V29.76H42.74V24.24H48.26ZM42.26 24.24V29.76H36.74V24.24H42.26ZM36.26 24.24V29.76H30.74V24.24H36.26ZM30.26 24.24V29.76H24.74V24.24H30.26ZM24.26 24.24V29.76H18.74V24.24H24.26ZM18.26 24.24V29.76H12.74V24.24H18.26ZM12.26 24.24V29.76L6.74 29.76V24.24L12.26 24.24ZM12.74 23.76H18.26V18.24H12.74V23.76ZM18.74 23.76H24.26V18.24H18.74V23.76ZM24.74 23.76H30.26V18.24H24.74V23.76ZM30.74 23.76H36.26V18.24H30.74V23.76ZM36.74 23.76H42.26V18.24H36.74V23.76ZM42.74 23.76H48.26V18.24H42.74V23.76ZM48.74 23.76L54.26 23.76V18.24L48.74 18.24V23.76ZM54.74 23.76H60.26V18.24H54.74V23.76ZM60.74 23.76H66.26V18.24H60.74V23.76ZM66.74 23.76L72.26 23.76V18.24L66.74 18.24V23.76ZM72.74 23.76H78.26V18.24H72.74V23.76ZM78.74 23.76H84.26V18.24H78.74V23.76ZM84.74 23.76H90.26V18.24H84.74V23.76ZM90.74 23.76H96.26V18.24H90.74V23.76ZM96.74 23.76H102.26V18.24H96.74V23.76ZM102.74 23.76H108.26V18.24H102.74V23.76ZM102.26 12.24V17.76H96.74V12.24H102.26ZM96.26 12.24V17.76H90.74V12.24L96.26 12.24ZM90.26 12.24V17.76H84.74V12.24H90.26ZM84.26 12.24V17.76H78.74V12.24L84.26 12.24ZM78.26 12.24V17.76H72.74V12.24H78.26ZM72.26 12.24V17.76L66.74 17.76V12.24L72.26 12.24ZM66.26 12.24V17.76H60.74V12.24H66.26ZM60.26 12.24V17.76H54.74V12.24H60.26ZM54.26 12.24V17.76L48.74 17.76V12.24L54.26 12.24ZM48.26 12.24V17.76H42.74V12.24H48.26ZM42.26 12.24V17.76H36.74V12.24L42.26 12.24ZM36.26 12.24V17.76H30.74V12.24H36.26ZM30.26 12.24V17.76H24.74V12.24L30.26 12.24ZM24.26 12.24V17.76H18.74V12.24H24.26ZM24.74 11.76L30.26 11.76V6.24L24.74 6.24V11.76ZM30.74 11.76H36.26V6.24L30.74 6.24V11.76ZM36.74 11.76L42.26 11.76V6.24L36.74 6.24V11.76ZM42.74 11.76H48.26V6.24L42.74 6.24V11.76ZM48.74 11.76L54.26 11.76V6.24L48.74 6.24V11.76ZM54.74 11.76H60.26V6.24L54.74 6.24V11.76ZM60.74 11.76H66.26V6.24L60.74 6.24V11.76ZM66.74 11.76L72.26 11.76V6.24L66.74 6.24V11.76ZM72.74 11.76H78.26V6.24L72.74 6.24V11.76ZM78.74 11.76L84.26 11.76V6.24L78.74 6.24V11.76ZM84.74 11.76H90.26V6.24L84.74 6.24V11.76ZM90.74 11.76L96.26 11.76V6.24L90.74 6.24V11.76Z" fill="#5CB3FF"/>
<path fill-rule="evenodd" clip-rule="evenodd" d="M19.22 15.36C19.22 15.0949 19.0051 14.88 18.74 14.88C18.4749 14.88 18.26 15.0949 18.26 15.36L18.26 17.76L15.86 17.76C15.5949 17.76 15.38 17.9749 15.38 18.24C15.38 18.5051 15.5949 18.72 15.86 18.72L18.26 18.72L18.26 53.76H15.86C15.5949 53.76 15.38 53.9749 15.38 54.24C15.38 54.5051 15.5949 54.72 15.86 54.72H18.26L18.26 95.52H15.86C15.5949 95.52 15.38 95.7349 15.38 96C15.38 96.2651 15.5949 96.48 15.86 96.48H18.26L18.26 101.28H15.86C15.5949 101.28 15.38 101.495 15.38 101.76C15.38 102.025 15.5949 102.24 15.86 102.24H18.26L18.26 104.88C18.26 105.145 18.4749 105.36 18.74 105.36C19.0051 105.36 19.22 105.145 19.22 104.88L19.22 102.24H26.9V104.88C26.9 105.145 27.1149 105.36 27.38 105.36C27.6451 105.36 27.86 105.145 27.86 104.88V102.24L93.14 102.24V104.88C93.14 105.145 93.3549 105.36 93.62 105.36C93.8851 105.36 94.1 105.145 94.1 104.88V102.24H101.78V104.88C101.78 105.145 101.995 105.36 102.26 105.36C102.525 105.36 102.74 105.145 102.74 104.88V102.24H105.14C105.405 102.24 105.62 102.025 105.62 101.76C105.62 101.495 105.405 101.28 105.14 101.28H102.74V96.48H105.14C105.405 96.48 105.62 96.2651 105.62 96C105.62 95.7349 105.405 95.52 105.14 95.52H102.74L102.74 54.72H105.14C105.405 54.72 105.62 54.5051 105.62 54.24C105.62 53.9749 105.405 53.76 105.14 53.76H102.74V18.72L105.14 18.72C105.405 18.72 105.62 18.5051 105.62 18.24C105.62 17.9749 105.405 17.76 105.14 17.76L102.74 17.76V15.36C102.74 15.0949 102.525 14.88 102.26 14.88C101.995 14.88 101.78 15.0949 101.78 15.36V17.76L94.1 17.76V15.36C94.1 15.0949 93.8851 14.88 93.62 14.88C93.3549 14.88 93.14 15.0949 93.14 15.36V17.76L27.86 17.76V15.36C27.86 15.0949 27.6451 14.88 27.38 14.88C27.1149 14.88 26.9 15.0949 26.9 15.36V17.76L19.22 17.76L19.22 15.36ZM101.78 18.72L94.1 18.72V53.76H101.78V18.72ZM101.78 54.72H94.1L94.1 95.52H101.78V54.72ZM101.78 96.48H94.1V101.28H101.78V96.48ZM26.9 101.28H19.22L19.22 96.48H26.9V101.28ZM93.14 96.48V101.28L27.86 101.28V96.48L93.14 96.48ZM68.4781 95.52H93.14V70.0464C90.4978 82.5594 80.8419 92.4859 68.4781 95.52ZM93.14 56.1936V54.72H92.7935C92.9198 55.207 93.0354 55.6983 93.14 56.1936ZM92.529 53.76H93.14V18.72L27.86 18.72L27.86 53.76H28.471C32.5169 39.892 45.3252 29.76 60.5 29.76C75.6748 29.76 88.4831 39.892 92.529 53.76ZM29.4725 53.76C33.4884 40.4294 45.8603 30.72 60.5 30.72C75.1397 30.72 87.5116 40.4294 91.5275 53.76H29.4725ZM29.1995 54.72H91.8005C92.5176 57.399 92.9 60.2148 92.9 63.12C92.9 81.0087 78.4026 95.5114 60.5159 95.52L60.4841 95.52C42.5974 95.5114 28.1 81.0087 28.1 63.12C28.1 60.2148 28.4824 57.399 29.1995 54.72ZM28.2065 54.72H27.86V56.1936C27.9646 55.6983 28.0802 55.207 28.2065 54.72ZM27.86 70.0464L27.86 95.52H52.5219C40.1581 92.4859 30.5022 82.5595 27.86 70.0464ZM19.22 95.52L19.22 54.72H26.9L26.9 95.52H19.22ZM19.22 53.76H26.9L26.9 18.72L19.22 18.72L19.22 53.76Z" fill="#94CDFF"/>
<path fill-rule="evenodd" clip-rule="evenodd" d="M27.14 63.12C27.14 59.8706 27.6046 56.7296 28.471 53.76H92.529C93.3954 56.7296 93.86 59.8706 93.86 63.12C93.86 81.5442 78.9242 96.48 60.5 96.48C42.0758 96.48 27.14 81.5442 27.14 63.12ZM30.14 63.12C30.14 60.9362 30.3701 58.8089 30.8066 56.76H90.1934C90.6299 58.8089 90.86 60.9362 90.86 63.12C90.86 79.8874 77.2674 93.48 60.5 93.48C43.7326 93.48 30.14 79.8874 30.14 63.12Z" fill="white"/>
<path fill-rule="evenodd" clip-rule="evenodd" d="M102.74 60C102.74 83.3285 83.8285 102.24 60.5 102.24C37.1715 102.24 18.26 83.3285 18.26 60C18.26 36.6715 37.1715 17.76 60.5 17.76C83.8285 17.76 102.74 36.6715 102.74 60ZM99.74 60C99.74 81.6717 82.1717 99.24 60.5 99.24C38.8284 99.24 21.26 81.6717 21.26 60C21.26 38.3284 38.8284 20.76 60.5 20.76C82.1717 20.76 99.74 38.3284 99.74 60Z" fill="white"/>
</g>
<defs>
<linearGradient id="svg-studio" x1="120.5" y1="0" x2="120.5" y2="120" gradientUnits="userSpaceOnUse">
<stop stop-color="#1A94FF"/>
<stop offset="1" stop-color="#0B74E5"/>
</linearGradient>
<clipPath id="clip-studio-logo">
<rect width="120" height="120" fill="white" transform="translate(0.5)"/>
</clipPath>
</defs>
</svg>
