<svg width="155" height="60" viewBox="0 0 155 60" fill="none" xmlns="http://www.w3.org/2000/svg">
<path d="M122.135 32.1679C122.135 34.3918 123.13 36.0887 125.042 36.0887C126.889 36.0887 127.912 34.5001 127.912 32.1679C127.912 29.85 126.91 28.312 125.042 28.312C123.109 28.312 122.135 29.9656 122.135 32.1679Z" fill="#1A94FF"/>
<path d="M139.761 32.2112C139.761 34.3413 140.706 36.1248 142.732 36.1248C144.743 36.1248 145.688 34.3413 145.688 32.2112C145.688 30.0883 144.743 28.2831 142.732 28.2831C140.706 28.2831 139.761 30.0883 139.761 32.2112Z" fill="#1A94FF"/>
<path fill-rule="evenodd" clip-rule="evenodd" d="M88.9019 15C84.5213 15 80.9702 18.5817 80.9702 23V37C80.9702 41.4183 84.5213 45 88.9019 45H147.068C151.449 45 155 41.4183 155 37V23C155 18.5817 151.449 15 147.068 15H88.9019ZM133.072 37.7133H135.213V26.6224H133.072V37.7133ZM134.153 24.9111C134.891 24.9111 135.506 24.3335 135.506 23.6258C135.506 22.9182 134.891 22.3333 134.153 22.3333C133.409 22.3333 132.8 22.9182 132.8 23.6258C132.8 24.3335 133.409 24.9111 134.153 24.9111ZM98.2899 26.8101H96.1565C95.999 25.4454 94.8035 24.6512 93.1211 24.6512C91.317 24.6512 90.1787 25.5826 90.1787 26.839C90.1715 28.2543 91.6964 28.7958 92.8419 29.0919L94.2737 29.4673C96.135 29.9295 98.4904 30.962 98.4904 33.6264C98.4904 36.132 96.5073 37.9588 93.0638 37.9588C89.7778 37.9588 87.7231 36.3053 87.58 33.6264H89.7993C89.9281 35.2366 91.3456 36.002 93.0495 36.002C94.9323 36.002 96.2997 35.0489 96.2997 33.6048C96.2997 32.2906 95.0898 31.7707 93.522 31.3519L91.7895 30.8754C89.4342 30.2327 87.9737 29.0269 87.9737 26.969C87.9737 24.4201 90.2288 22.7232 93.1712 22.7232C96.1494 22.7232 98.2255 24.4418 98.2899 26.8101ZM103.84 26.6224H106.095V28.3554H103.84V34.4568C103.84 35.706 104.463 35.937 105.157 35.937C105.462 35.937 105.704 35.8861 105.855 35.8543L105.876 35.85C105.886 35.8478 105.896 35.8458 105.905 35.8439L105.909 35.8432L106.296 37.6267C106.045 37.7205 105.587 37.8505 104.907 37.8577C103.217 37.8938 101.692 36.919 101.699 34.9045V28.3554H100.089V26.6224H101.699V23.9652H103.84V26.6224ZM115.429 33.1138C115.436 34.9983 114.047 35.8937 112.844 35.8937C111.52 35.8937 110.604 34.9261 110.604 33.417V26.6224H108.463V33.677C108.463 36.428 109.959 37.8577 112.071 37.8577C113.725 37.8577 114.849 36.9768 115.357 35.7926H115.472V37.7133H117.576V26.6224H115.429V33.1138ZM127.748 35.9876C127.361 36.6952 126.574 37.9299 124.569 37.9299C121.899 37.9299 119.973 35.7782 119.973 32.1895C119.973 28.5936 121.927 26.478 124.583 26.478C126.631 26.478 127.361 27.7344 127.748 28.4203H127.877V22.9254H130.017V37.7133H127.927V35.9876H127.748ZM147.85 32.2184C147.85 35.6482 145.824 37.9371 142.724 37.9371C139.625 37.9371 137.599 35.6482 137.599 32.2184C137.599 28.7669 139.625 26.478 142.724 26.478C145.824 26.478 147.85 28.7669 147.85 32.2184Z" fill="#1A94FF"/>
<g clip-path="url(#clip-studio)">
<path d="M0 17.6147C0 19.0588 1.16068 20.2295 2.59245 20.2295H9.10624V41.8652C9.10624 43.5965 10.4978 45 12.2143 45C13.9308 45 15.3223 43.5965 15.3223 41.8652V20.2295H21.8361C23.2679 20.2295 24.4285 19.0588 24.4285 17.6147C24.4285 16.1707 23.2679 15 21.8361 15H2.59245C1.16068 15 0 16.1707 0 17.6147Z" fill="#1A94FF"/>
<path d="M33.7487 18.1714C33.7487 16.4199 32.341 15 30.6044 15C28.8678 15 27.4601 16.4199 27.4601 18.1714V41.8286C27.4601 43.5801 28.8678 45 30.6044 45C32.341 45 33.7487 43.5801 33.7487 41.8286V18.1714Z" fill="#1A94FF"/>
<path d="M63.3058 18.1567C63.3058 16.4133 61.9045 15 60.176 15C58.4474 15 57.0461 16.4133 57.0461 18.1567V33.8672H56.7847L45.0231 16.583C44.3489 15.5921 43.2339 15 42.0423 15C40.0457 15 38.427 16.6326 38.427 18.6464V41.8286C38.427 43.5801 39.8348 45 41.5714 45C43.3079 45 44.7157 43.5801 44.7157 41.8286V26.1182H44.9335L56.8115 43.4497C57.4768 44.4205 58.5724 45 59.7426 45C61.7105 45 63.3058 43.391 63.3058 41.4062V18.1567Z" fill="#1A94FF"/>
<path d="M74.2945 18.1714C74.2945 16.4199 72.8867 15 71.1502 15C69.4136 15 68.0058 16.4199 68.0058 18.1714V41.8286C68.0058 43.5801 69.4136 45 71.1502 45C72.8867 45 74.2945 43.5801 74.2945 41.8286V18.1714Z" fill="#1A94FF"/>
</g>
<defs>
<clipPath id="clip-studio">
<rect width="74.3603" height="60" fill="white"/>
</clipPath>
</defs>
</svg>
